<?xml version="1.0" encoding="UTF-8"?>
<svg width="64.44mm" height="18.28mm" version="1.1" viewBox="0 0 64.44 18.28" xmlns="http://www.w3.org/2000/svg" xmlns:osb="http://www.openswatchbook.org/uri/2009/osb"><defs><linearGradient id="a" gradientTransform="matrix(0 0 0 0 18.03 -143.8)" osb:paint="solid"><stop style="stop-color:#424540" offset="0"/></linearGradient></defs><g transform="translate(-33.55 -65.61)"><path d="m36.86 65.67c-1.319 0.5521-2.769 2.112-3.227 4.07-0.58 2.481 1.834 3.53 2.031 3.186 0.233-0.4042-0.4325-0.5408-0.5695-1.828-0.177-1.662 0.5958-3.52 1.568-4.335 0.1808-0.1512 0.1722 0.05931 0.1722 0.4492 0 0.6971-0.03852 6.955-0.03852 8.261 0 1.767-0.07298 2.325-0.2041 2.877-0.1328 0.5588-0.3464 0.9364-0.1846 1.082 0.1808 0.1625 0.9527-0.2242 1.4-0.848 0.5359-0.748 0.7234-1.646 0.7571-2.622 0.04069-1.176 0.03894-3.042 0.04069-4.106 0.0016-0.9762 0.01631-3.835-0.0172-5.553-0.0083-0.4215-1.177-0.8637-1.729-0.6326m46.84 8.271c-0.04252 0.9187-0.2459 1.637-0.4983 2.143-0.4886 0.9806-1.503 1.285-1.933-0.1245-0.2346-0.7684-0.2456-2.052-0.07689-3.124 0.1717-1.092 0.6511-1.917 1.445-1.843 0.783 0.07354 1.15 1.083 1.063 2.948zm-13.2 5.7c-0.01068 1.527-0.2509 2.865-0.7661 3.254-0.7307 0.5512-1.713 0.1376-1.51-0.9762 0.1799-0.9857 1.031-1.992 2.278-3.222 0 0 0.0024 0.2805-0.0021 0.9449zm-0.1996-5.709c-0.04469 0.8368-0.2616 1.677-0.4983 2.152-0.4885 0.9806-1.51 1.287-1.933-0.1245-0.2894-0.9646-0.2201-2.213-0.07689-3 0.1858-1.021 0.6362-1.967 1.445-1.967 0.7864 0 1.174 0.8628 1.063 2.939zm-7.647-0.01186c-0.04795 0.8863-0.2208 1.627-0.4983 2.165-0.502 0.9739-1.495 1.283-1.933-0.1245-0.3158-1.015-0.2083-2.398-0.07692-3.146 0.1949-1.109 0.683-1.896 1.445-1.821 0.7827 0.07651 1.163 1.082 1.063 2.926zm35.04 1.035c-0.1913 0-0.2787 0.1972-0.3509 0.5292-0.2505 1.154-0.5139 1.415-0.8535 1.415-0.3794 0-0.7203-0.5716-0.808-1.716-0.06889-0.8997-0.05783-2.556 0.03025-4.204 0.01809-0.3385-0.07538-0.6735-0.9834-1.003-0.3907-0.1417-0.9586-0.3508-1.241 0.3318-0.799 1.928-1.112 3.459-1.185 4.081-0.0039 0.03232-0.0433 0.03885-0.05021-0.03647-0.04685-0.4982-0.1517-1.403-0.1647-3.305-0.0024-0.3711-0.08113-0.6869-0.4907-0.9455-0.2658-0.1678-1.073-0.4646-1.363-0.1115-0.2518 0.2888-0.5433 1.066-0.8463 1.987-0.2462 0.7487-0.4177 1.255-0.4177 1.255s0.0033-2.02 0.0062-2.786c0.0013-0.2891-0.197-0.3854-0.2567-0.4029-0.2691-0.07829-0.7993-0.2085-1.024-0.2085-0.2777 0-0.3457 0.1554-0.3457 0.3814 0 0.02966-0.04383 2.66-0.04383 4.499 0 0.07977 0 0.167 9.41e-4 0.2595-0.1536 0.8452-0.6517 1.993-1.193 1.993-0.5423 0-0.7982-0.4797-0.7982-2.672 0-1.279 0.0384-1.835 0.05726-2.76 0.01097-0.5328 0.03212-0.9419 0.0309-1.035-0.0039-0.2847-0.4963-0.4282-0.7254-0.4813-0.2302-0.05338-0.4302-0.07414-0.5864-0.06554-0.221 0.01186-0.3775 0.1575-0.3775 0.357 0 0.1071 0.0013 0.3103 0.0013 0.3103-0.2847-0.4474-0.7427-0.7588-1.047-0.8491-0.8207-0.2438-1.677-0.02669-2.323 0.8761-0.5134 0.7182-0.8228 1.532-0.9446 2.7-0.08905 0.8544-0.05999 1.721 0.09827 2.453-0.1912 0.8268-0.5462 1.165-0.935 1.165-0.5644 0-0.9735-0.9212-0.926-2.514 0.03135-1.048 0.241-1.783 0.4702-2.847 0.09771-0.4535 0.01838-0.6909-0.1808-0.9185-0.1826-0.2088-0.5718-0.3153-1.131-0.1842-0.3985 0.09341-0.9683 0.1939-1.49 0.2713 0 0 0.03146-0.1254 0.05726-0.3468 0.1356-1.16-1.125-1.066-1.528-0.6956-0.2401 0.2212-0.4036 0.4823-0.4657 0.9515-0.09836 0.7446 0.5089 1.096 0.5089 1.096-0.1993 0.9121-0.6877 2.104-1.192 2.965-0.2701 0.4615-0.4767 0.8035-0.7434 1.167-9.43e-4 -0.1352-0.0019-0.2707-0.0021-0.4055-0.0059-1.918 0.01957-3.427 0.03069-3.971 0.01097-0.5328 0.03232-0.9311 0.03114-1.024-3e-3 -0.2085-0.1246-0.2871-0.3776-0.3865-0.2237-0.08807-0.4881-0.1489-0.7624-0.1702-0.3462-0.02669-0.5548 0.1566-0.5494 0.3738 9.43e-4 0.04092 9.43e-4 0.2927 9.43e-4 0.2927-0.2847-0.4475-0.7427-0.7589-1.047-0.8491-0.8207-0.2438-1.677-0.02669-2.323 0.8761-0.5133 0.7182-0.8494 1.726-0.9446 2.691-0.08873 0.8997-0.07236 1.664 0.0486 2.308-0.1305 0.645-0.5057 1.319-0.9299 1.319-0.5423 0-0.8509-0.4797-0.8509-2.672 0-1.279 0.0384-1.835 0.05726-2.76 0.01097-0.5328 0.03212-0.9421 0.03093-1.035-0.0039-0.2847-0.4964-0.4282-0.7254-0.4814-0.2397-0.05545-0.4467-0.07592-0.6056-0.06405-0.2097 0.01483-0.3571 0.2034-0.3571 0.3434v0.3227c-0.2848-0.4475-0.7427-0.7589-1.047-0.8491-0.8207-0.2438-1.672-0.02372-2.323 0.8761-0.4243 0.587-0.7679 1.238-0.9446 2.678-0.05109 0.4163-0.07363 0.8062-0.07073 1.171-0.1692 1.035-0.9166 2.227-1.528 2.227-0.3577 0-0.6984-0.6939-0.6984-2.173 0-1.97 0.1219-4.774 0.1425-5.045 0 0 0.7724-0.01186 0.922-0.01483 0.3853-3e-3 0.7342 3e-3 1.247-0.02076 0.2574-0.01186 0.5054-0.9368 0.2397-1.051-0.1204-0.0516-0.9713-0.09697-1.309-0.1041-0.2836-0.0059-1.073-0.06494-1.073-0.06494s0.07081-1.862 0.0873-2.058c0.01394-0.164-0.1981-0.2482-0.3197-0.2994-0.2957-0.1251-0.5602-0.185-0.8738-0.2497-0.4332-0.08956-0.6298-0.0019-0.6682 0.3637-0.05783 0.5549-0.08775 2.18-0.08775 2.18-0.3179 0-1.404-0.06227-1.722-0.06227-0.2955 0-0.6144 1.271-0.2059 1.286 0.47 0.01779 1.289 0.0341 1.832 0.05041 0 0-0.02432 2.851-0.02432 3.731 0 0.09341 7.86e-4 0.1839 1e-3 0.2713-0.2988 1.558-1.351 2.399-1.351 2.399 0.2261-1.03-0.2357-1.804-1.067-2.459-0.3064-0.2414-0.9114-0.6984-1.588-1.199 0 0 0.392-0.3863 0.7396-1.164 0.2463-0.5506 0.257-1.181-0.3476-1.32-0.999-0.2298-1.823 0.5039-2.068 1.287-0.1904 0.6068-0.08881 1.057 0.2841 1.525 0.02728 0.0341 0.05673 0.06909 0.08721 0.1041-0.2255 0.4346-0.5353 1.02-0.7977 1.474-0.7283 1.26-1.278 2.257-1.694 2.257-0.3324 0-0.3279-1.012-0.3279-1.959 0-0.8167 0.06032-2.044 0.1085-3.316 0.01601-0.4204-0.1943-0.6599-0.5467-0.8768-0.2141-0.132-0.6711-0.3909-0.9358-0.3909-0.3961 0-1.539 0.05397-2.619 3.178-0.1361 0.3938-0.4035 1.111-0.4035 1.111l0.02313-3.756c0-0.08807-0.04691-0.1732-0.1543-0.2316-0.182-0.09875-0.668-0.3009-1.1-0.3009-0.2059 0-0.3087 0.09578-0.3087 0.2868l-0.03772 5.877c0 0.4466 0.01156 0.9675 0.05578 1.195 0.04398 0.228 0.1152 0.4137 0.2035 0.5241 0.08813 0.1103 0.1901 0.1942 0.3582 0.2289 0.1564 0.03232 1.013 0.1423 1.058-0.185 0.05335-0.3923 0.05539-0.8167 0.5052-2.399 0.7002-2.464 1.613-3.666 2.042-4.093 0.07505-0.07473 0.1607-0.07918 0.1566 0.043-0.01839 0.5402-0.08277 1.89-0.1262 3.037-0.1162 3.069 0.442 3.638 1.24 3.638 0.6103 0 1.471-0.6065 2.393-2.142 0.575-0.9567 1.133-1.895 1.534-2.571 0.2795 0.2589 0.5932 0.5373 0.9067 0.8348 0.7285 0.6914 0.9676 1.348 0.809 1.972-0.1214 0.4765-0.5785 0.9674-1.392 0.4902-0.2371-0.1394-0.3383-0.2467-0.5767-0.4037-0.1281-0.08422-0.3237-0.1097-0.4409-0.02076-0.3046 0.2295-0.4788 0.5218-0.5782 0.8834-0.09676 0.3519 0.2556 0.5379 0.621 0.7006 0.3146 0.14 0.9906 0.2669 1.422 0.2814 1.68 0.05605 3.026-0.8112 3.963-3.048 0.1677 1.932 0.8814 3.026 2.121 3.026 0.829 0 1.66-1.072 2.024-2.126 0.1044 0.4297 0.2588 0.8034 0.4583 1.119 0.9555 1.514 2.809 1.188 3.74-0.09756 0.2879-0.3972 0.3317-0.5399 0.3317-0.5399 0.1358 1.214 1.113 1.638 1.673 1.638 0.6268 0 1.274-0.2962 1.728-1.318 0.05317 0.1109 0.1112 0.2168 0.1745 0.317 0.9555 1.514 2.809 1.188 3.74-0.09756 0.04395-0.0605 0.08199-0.1151 0.1153-0.1643l0.02728 0.7973s-0.5312 0.4873-0.8572 0.7862c-1.435 1.317-2.526 2.315-2.606 3.479-0.103 1.483 1.1 2.034 2.01 2.107 0.9664 0.0768 1.794-0.4572 2.303-1.204 0.4474-0.6576 0.7403-2.073 0.7188-3.471-0.0086-0.5598-0.02254-1.272-0.03375-2.035 0.5044-0.5857 1.073-1.326 1.596-2.193 0.5702-0.9444 1.181-2.213 1.494-3.199 0 0 0.531 3e-3 1.098-0.03262 0.1812-0.01186 0.2333 0.02372 0.1998 0.1581-0.04045 0.1604-0.7159 2.766-0.09949 4.501 0.4219 1.188 1.373 1.57 1.937 1.57 0.6601 0 1.292-0.4985 1.63-1.239 0.04077 0.08244 0.08342 0.1625 0.1299 0.236 0.9555 1.514 2.803 1.186 3.74-0.09756 0.2116-0.2897 0.3317-0.54 0.3317-0.54 0.2012 1.256 1.178 1.644 1.738 1.644 0.5829 0 1.136-0.239 1.585-1.301 0.01898 0.4676 0.04828 0.85 0.09489 0.9705 0.02847 0.07354 0.1941 0.1664 0.3146 0.2108 0.5332 0.1978 1.077 0.1041 1.278 0.06346 0.1394-0.02669 0.2481-0.14 0.2629-0.4288 0.03905-0.7582 0.01512-2.032 0.2449-2.979 0.3858-1.589 0.7457-2.205 0.9164-2.51 0.09555-0.1711 0.2034-0.1993 0.2073-0.01779 8e-3 0.3661 0.02639 1.441 0.1757 2.885 0.1098 1.062 0.2564 1.69 0.3691 1.889 0.3216 0.5683 0.7188 0.5952 1.042 0.5952 0.2058 0 0.636-0.05694 0.5975-0.4185-0.01898-0.1761 0.01394-1.266 0.3945-2.831 0.2484-1.022 0.6625-1.946 0.8119-2.283 0.0551-0.1245 0.08069-0.02669 0.07983-0.0059-0.03146 0.704-0.102 3.007 0.1847 4.266 0.3888 1.706 1.513 1.897 1.905 1.897 0.8366 0 1.521-0.6364 1.751-2.311 0.05554-0.403-0.02669-0.7141-0.273-0.7141" style="fill:url(#a);stroke-width:.02744"/></g></svg>
