<?xml version="1.0" encoding="UTF-8" standalone="no"?>
<!-- Created with Inkscape (http://www.inkscape.org/) -->

<svg
   xmlns:dc="http://purl.org/dc/elements/1.1/"
   xmlns:cc="http://creativecommons.org/ns#"
   xmlns:rdf="http://www.w3.org/1999/02/22-rdf-syntax-ns#"
   xmlns:svg="http://www.w3.org/2000/svg"
   xmlns="http://www.w3.org/2000/svg"
   xmlns:sodipodi="http://sodipodi.sourceforge.net/DTD/sodipodi-0.dtd"
   xmlns:inkscape="http://www.inkscape.org/namespaces/inkscape"
   width="569.39868"
   height="315.13181"
   id="svg2"
   version="1.1"
   inkscape:version="0.48.4 r9939"
   sodipodi:docname="New document 1"
   viewbox="0 0 569.40 315.13">
  <defs
     id="defs4" />
  <sodipodi:namedview
     id="base"
     pagecolor="#ffffff"
     bordercolor="#666666"
     borderopacity="1.0"
     inkscape:pageopacity="0.0"
     inkscape:pageshadow="2"
     inkscape:zoom="0.175"
     inkscape:cx="-1272.6819"
     inkscape:cy="-109.11988"
     inkscape:document-units="px"
     inkscape:current-layer="layer1"
     showgrid="false"
     fit-margin-top="0"
     fit-margin-left="0"
     fit-margin-right="0"
     fit-margin-bottom="0"
     inkscape:window-width="1920"
     inkscape:window-height="1018"
     inkscape:window-x="1912"
     inkscape:window-y="-8"
     inkscape:window-maximized="1" />
  <metadata
     id="metadata7">
    <rdf:RDF>
      <cc:Work
         rdf:about="">
        <dc:format>image/svg+xml</dc:format>
        <dc:type
           rdf:resource="http://purl.org/dc/dcmitype/StillImage" />
        <dc:title></dc:title>
      </cc:Work>
    </rdf:RDF>
  </metadata>
  <g
     inkscape:label="Layer 1"
     inkscape:groupmode="layer"
     id="layer1"
     transform="translate(-1559.6115,874.59494)">
    <g
       id="g3909"
       transform="matrix(0.69462036,-0.71937651,0.71937651,0.69462036,1072.1469,1126.8354)">
      <path
         inkscape:connector-curvature="0"
         d="m 1688.8785,-923.6266 c 2.6693,2.73358 6.4682,3.84646 9.3939,6.19324 2.2697,1.82067 3.9783,4.26516 6.1961,6.14878 2.7766,2.35819 6.004,4.15367 8.7511,6.54616 3.0272,2.63637 5.6719,5.68216 8.5282,8.50266 2.843,2.80735 5.7132,5.58714 8.5697,8.38071 2.6497,2.73617 13.1258,13.42822 15.7632,16.62345 2.1521,2.60719 3.9231,5.5078 5.96,8.20583 4.7803,6.33165 9.7578,12.5502 14.6939,18.76238 1.0194,1.80172 1.7396,3.80926 3.0581,5.40516 1.307,1.58198 3.1665,2.61257 4.696,3.98055 11.5911,10.36676 -2.608,-1.31282 11.1644,8.64867 7.082,5.12236 6.7004,5.42644 12.9266,12.17259 9.5101,3.34395 14.7863,11.55077 21.9867,17.9322 2.0263,1.79593 4.5236,3.06795 6.3465,5.07007 1.4501,1.59262 2.0678,3.79085 3.3182,5.5446 1.1283,1.5824 2.5284,2.95217 3.7926,4.42826 3.9645,3.78896 3.6417,2.9505 6.3238,7.40921 0.6873,1.14265 0.9741,2.55187 1.8781,3.53213 0.9358,1.01481 2.4942,1.28536 3.4674,2.26441 0.9111,0.91659 1.3686,2.19274 2.0529,3.28911 1.1541,0.94197 2.3083,1.88394 3.4624,2.82591 1.5946,0.89281 3.3024,1.60826 4.7839,2.67842 1.5726,1.13605 2.8949,2.58374 4.3212,3.89889 5.1529,4.75153 4.3811,4.03943 9.2468,9.26694 1.5558,1.67141 2.978,3.47438 4.6449,5.03496 1.6911,1.58324 3.6017,2.91439 5.4025,4.37158 8.7967,9.29989 0.394,0.17227 9.0135,10.30748 1.3139,1.54488 2.7681,2.96769 4.0639,4.52777 1.2236,1.47321 2.2059,3.14276 3.4884,4.56503 1.3392,1.48525 2.9454,2.70825 4.3519,4.12997 1.3109,1.32506 2.5306,2.7373 3.7959,4.10596 0.9075,0.75125 7.2395,5.96718 7.9924,6.69785 1.5249,1.47986 2.7578,3.24673 4.3167,4.69076 1.6584,1.53627 3.7407,2.5927 5.3063,4.22345 11.7875,12.27791 -4.4596,-0.80199 10.4241,10.32062 3.2938,3.79285 5.3828,8.41792 8.3645,12.42121 1.4018,1.88203 3.2504,3.41386 4.5747,5.3512 1.1055,1.61732 1.6371,3.57037 2.6641,5.23869 0.807,1.31106 1.9215,2.40786 2.8147,3.66183 0.6045,0.84868 1.1159,1.75996 1.6738,2.63994 -0.04,0.61807 -0.1966,1.23964 -0.1198,1.85423 0.037,0.29409 0.4206,-0.6163 0.2447,-0.85483 -1.8417,-2.49695 -2.6867,-1.87669 -5.3406,-2.91415 -0.3505,-0.137 0.7431,0.11935 1.1141,0.18207 1.2447,0.21041 2.4887,0.42489 3.733,0.63733 0.5834,0.19368 1.1668,0.38736 1.7501,0.58104 20.359,12.87488 2.1511,41.66676 -18.2078,28.79187 l 0,0 c -0.4851,-0.14286 -0.9701,-0.28571 -1.4552,-0.42857 0.2663,0.17495 0.8284,0.20756 0.799,0.52484 -0.1452,1.56655 -2.7802,-1.47436 -4.1499,-2.24835 -1.3848,-0.78257 -3.0573,-0.96209 -4.4405,-1.74758 -0.8215,-0.46652 -4.1036,-3.78949 -4.7721,-4.44902 -5.0672,-7.39964 1.3398,1.19105 -6.4938,-6.3781 -6.9208,-6.68723 -0.2109,-1.84364 -6.2283,-9.70262 -2.7071,-3.53565 -6.9795,-5.66206 -9.5979,-9.29204 -1.6172,-1.52206 -3.2333,-3.04533 -4.8516,-4.56619 -1.6966,-1.59445 -3.7342,-2.88932 -5.0933,-4.77972 -1.26,-1.75258 -1.3442,-4.1765 -2.6053,-5.92832 -3.6598,-5.08413 -10.8477,-6.50308 -14.0298,-12.10446 -4.433,-8.27208 0.1592,-1.29409 -6.7738,-7.67939 -1.469,-1.353 -2.4979,-3.13468 -3.9542,-4.50136 -1.5612,-1.46503 -3.6309,-2.36207 -5.059,-3.95701 -1.3161,-1.46978 -1.6981,-3.63018 -3.0344,-5.08161 -1.4992,-1.62846 -3.5415,-2.6563 -5.3123,-3.98445 -6.1726,-4.66261 -16.0164,-12.08687 -20.1555,-18.56538 -1.1707,-1.83242 -1.4953,-4.13057 -2.7111,-5.93343 -1.1009,-1.63255 -2.7567,-2.81241 -4.135,-4.21861 -1.2302,-1.28138 -2.4268,-2.59591 -3.6906,-3.84414 -1.1209,-1.10708 -2.3732,-2.07903 -3.4607,-3.21897 -1.681,-1.76213 -3.1886,-3.68323 -4.7184,-5.57812 -0.5872,-0.72734 -1.0422,-1.56132 -1.6763,-2.24815 -0.8015,-0.8681 -1.7411,-1.59761 -2.6116,-2.39641 -1.0918,-1.05831 -2.0137,-2.32637 -3.2754,-3.17492 -7.2438,-4.87157 -5.7979,-1.46984 -12.8224,-7.55958 -2.2222,-1.92657 -3.643,-4.68909 -5.9445,-6.52025 -18.2525,-14.52225 0.8433,5.75823 -15.2186,-12.70951 -2.6543,-1.89549 -5.5145,-3.5314 -7.9627,-5.68647 -2.4028,-2.11518 -4.3185,-4.72689 -6.5137,-7.05688 -4.8135,-5.10915 -6.7285,-6.71187 -11.0833,-11.95203 -1.4334,-1.72481 -2.7064,-3.57766 -4.1103,-5.32653 -1.3502,-1.68188 -2.767,-3.30917 -4.1504,-4.96376 -7.9443,-11.89596 1.7302,0.88269 -10.2885,-9.29648 -2.1638,-1.83261 -3.5901,-4.39679 -5.5408,-6.45474 -7.5765,-7.99292 -16.566,-14.3288 -24.8543,-21.52532 -6.6834,-8.70937 -8.0214,-10.64442 -14.9565,-18.94773 -2.3415,-2.80357 -4.8878,-5.43703 -7.1423,-8.31108 -1.8789,-2.39527 -3.4236,-5.03718 -5.2432,-7.47789 -1.4159,-1.89931 -3.2693,-3.48577 -4.4579,-5.53507 -0.8168,-1.40842 -0.9708,-3.1082 -1.4562,-4.6623 -13.2996,-20.14185 15.1853,-38.95034 28.4849,-18.80849 z"
         id="path3897"
         style="fill:#77a669;fill-opacity:1;stroke:none" />
      <path
         inkscape:connector-curvature="0"
         d="m 2007.5017,-794.56095 c 1.7596,6.6646 4.7653,13.28366 5.3177,20.22926 0.2462,3.09443 -0.5971,6.20724 -0.3892,9.30448 0.1969,2.93362 1.099,5.77715 1.5961,8.67503 0.4677,2.72565 0.8652,5.46286 1.2977,8.1943 0.5921,2.1883 1.5067,4.31401 1.7763,6.56491 0.2148,1.82658 -0.5189,3.67802 -0.3307,5.50751 0.5171,5.02823 1.5984,3.89926 3.4332,8.02934 1.868,5.74962 0.7427,3.0352 3.3124,8.16924 0.1043,5.30218 3.5458,9.82986 4.5035,14.88197 0.3587,1.89157 0.08,3.85219 0.2402,5.7708 0.5456,6.53963 0.3727,4.93431 2.5828,10.69289 -0.02,1.69391 -0.041,3.38784 -0.061,5.08175 0.3989,1.58779 1.0912,3.12964 1.1967,4.76336 0.4276,6.62169 -1.7817,2.78225 0.074,8.62523 3.1852,10.02959 0.766,-2.49774 2.4929,8.22415 3.38,8.02854 0.7851,0.45982 2.0109,9.05733 0.1767,1.23834 0.8531,2.37526 0.9967,3.61785 0.1601,1.38266 -0.3699,2.80985 -0.096,4.17461 0.2924,1.45902 1.2522,2.70407 1.7555,4.10442 0.5199,1.44717 0.8726,2.94912 1.3089,4.42367 -0.045,6.05146 -0.1933,3.42732 0.4259,9.40792 0.1156,1.11956 0.03,2.28292 0.3688,3.35632 0.4004,1.27021 1.4811,2.27091 1.8121,3.56096 0.3536,1.37859 0.099,2.84527 0.1958,4.26521 0.103,1.51618 0.2692,3.02739 0.4039,4.54108 0.5509,1.31137 1.2135,2.58125 1.6529,3.93412 3.2098,9.88381 -0.6565,0.14097 2.3668,9.59331 0.4544,1.42076 3.5524,8.8555 3.9113,10.37006 0.4753,2.00581 0.5226,4.08946 0.7834,6.13425 4.9457,11.04683 0.2874,-1.02549 2.5474,10.73854 0.2889,1.50353 1.2842,2.80067 1.6437,4.2889 0.362,1.49884 0.2267,3.08142 0.5026,4.59845 0.3051,1.6764 1.3537,4.34752 1.9414,5.95752 -0.046,1.07249 -0.356,2.16661 -0.137,3.21749 0.2296,1.10351 1.1814,1.96135 1.4449,3.05729 0.5962,2.47942 0.052,8.72286 -0.1044,11.57881 -0.6112,1.10187 0.827,1.85945 0.7361,2.82992 -0.042,0.44646 -0.7116,0.67581 -0.7402,1.12334 -0.022,0.34665 0.5912,0.49453 0.6154,0.84107 0.1679,2.3976 -1.4729,-0.53718 0.063,1.72179 0.3224,7.08552 1.2825,10.99895 -7.6948,17.2735 -4.5942,3.21123 -10.787,3.28821 -16.3601,3.88908 -1.8095,0.19505 -3.4523,-1.17961 -5.2319,-1.56115 -2.4918,-0.53429 -6.3124,-0.46403 -8.7646,-0.5073 -4.4977,-1.59982 -9.3575,-0.65981 -13.9579,-1.37757 -1.7055,-0.26608 -3.305,-1.0172 -4.9973,-1.35702 -1.7224,-0.34584 -3.4888,-0.42247 -5.2241,-0.69539 -1.6821,-0.26454 -3.3502,-0.61101 -5.0253,-0.9165 -8.3835,-0.75062 -15.715,-5.16202 -23.1712,-8.70607 -1.8552,-0.88184 -3.6316,-1.96304 -5.578,-2.6194 -2.1456,-0.72351 -4.4174,-0.9973 -6.6262,-1.49594 -7.092,-6.20251 -1.8481,-2.55176 -9.6626,-6.0476 -2.9214,-1.30686 -5.9857,-3.80311 -9.4123,-3.63678 -0.9669,0.0469 -1.8743,0.48512 -2.8114,0.72768 -0.6446,-0.54285 -1.1027,-1.48933 -1.934,-1.62855 -1.1289,-0.18911 -2.2089,0.78922 -3.3526,0.74299 -1.1673,-0.0472 -2.229,-0.70193 -3.3547,-1.0141 -1.7403,-0.48258 -3.5685,-0.69063 -5.2419,-1.3697 -1.4548,-0.59039 -2.5744,-1.87097 -4.052,-2.40171 -1.4473,-0.5198 -3.0408,-0.4612 -4.5611,-0.69181 -1.3194,-0.49419 -2.6387,-0.98838 -3.958,-1.48257 -1.8078,-0.26656 -3.6759,-0.26468 -5.4231,-0.79966 -1.5572,-0.47682 -2.8592,-1.57409 -4.3639,-2.19711 -6.6988,-2.77355 -3.7162,-0.98576 -10.3862,-3.02244 -1.745,-0.53281 -3.4217,-1.26773 -5.1325,-1.90161 -1.5245,-0.5276 -3.049,-1.05519 -4.5735,-1.58279 -1.0959,-0.99328 -1.916,-2.42708 -3.288,-2.97984 -1.3089,-0.52741 -2.8678,0.3054 -4.2334,-0.0506 -0.9581,-0.24974 -1.5198,-1.33147 -2.4428,-1.68975 -0.9203,-0.35727 -1.9578,-0.25682 -2.935,-0.39777 -0.971,-0.14005 -1.9395,-0.29679 -2.9093,-0.44518 -7.4328,-3.84696 1.091,-0.0839 -4.4866,-1.07198 -1.7763,-0.3147 -3.1259,-1.87018 -4.8497,-2.4021 -0.6369,-0.19647 -1.3323,-0.0401 -1.9984,-0.0601 -0.9064,-0.0273 -1.8127,-0.0545 -2.719,-0.0817 -3.9654,-0.79262 -8.041,-0.44515 -11.8182,-2.04102 -0.7997,-0.33792 -1.4109,-1.12577 -2.2637,-1.28836 -1.1508,-0.21939 -2.3397,0.12518 -3.5095,0.18777 -2.3752,-0.34789 -2.8902,-0.25608 -5.1761,-1.33526 -1.0066,-0.47517 -1.7991,-1.45977 -2.8923,-1.66878 -1.3624,-0.26049 -2.788,0.59144 -4.1489,0.32263 -0.7492,-0.14798 -1.1621,-0.99102 -1.7432,-1.48653 -0.9764,-0.0571 -1.9527,-0.11432 -2.9291,-0.17147 -0.5944,-0.11377 -1.1873,-0.23539 -1.7832,-0.34131 -2.1314,-0.37891 -2.7441,-0.64236 -4.8096,-0.33871 -0.6074,0.0893 -1.1736,0.37888 -1.7805,0.47148 -2.7641,0.4218 -2.2861,0.3417 -4.5626,-0.19813 -2.564,-3.36185 0.4696,0.17123 -0.7954,-0.15943 -1.1485,-0.30017 -2.0654,-1.18959 -3.1726,-1.61756 -2.686,-1.03822 -4.8852,-0.23603 -6.7184,-3.39426 -1.4556,2.18404 -3.8391,0.18554 -5.2598,-0.54108 -20.8521,-11.53899 -4.5335,-41.02852 16.3186,-29.48952 l 0,0 c 1.8352,0.62919 1.4777,0.6005 3.9949,0.80936 0.5236,0.0435 1.1387,-0.30132 1.5763,-0.0105 0.812,0.53961 1.2235,1.51835 1.8351,2.27753 3.163,-0.7109 1.2197,-0.0792 -0.5168,-0.63699 -0.2024,-0.065 -0.1713,-0.40572 -0.3324,-0.54466 -0.4595,-0.39646 -2.0792,-0.85903 -1.4982,-1.03467 0.692,-0.20917 1.256,0.85073 1.9779,0.88968 0.7252,0.0391 1.3819,-0.44742 2.0728,-0.67112 1.0678,-0.18648 3.0288,-0.60708 4.1224,-0.47739 2.5442,0.30177 4.9131,1.65432 7.4705,1.80794 1.2401,0.0745 2.4551,-0.70279 3.6872,-0.54391 1.2822,0.16536 2.3895,0.98776 3.5842,1.48165 3.829,0.89812 1.9981,0.16032 5.4695,2.26985 0.699,0.16577 1.388,-0.5729 2.1006,-0.48179 0.6154,0.0787 0.9828,0.87266 1.5977,0.95467 8.729,1.16408 -3.8643,-2.64814 5.8267,0.682 6.424,-0.12209 0.4603,-0.33573 7.0548,0.93116 0.9439,0.18136 1.9365,0.0315 2.873,0.24848 2.774,0.64264 5.2431,2.35924 7.8833,3.35871 0.8192,0.0785 1.646,0.0984 2.4574,0.23543 0.95,0.1605 1.852,0.63851 2.8154,0.65528 0.7161,0.0125 1.3627,-0.67301 2.0716,-0.57022 0.9518,0.13805 1.6843,0.95867 2.6015,1.24797 6.3114,1.99066 1.1287,-0.7097 5.6679,1.9305 5.8009,-0.96291 1.2553,-0.86684 6.6175,0.82027 1.3124,0.41293 2.6924,0.56774 4.0374,0.85738 4.6097,0.99271 9.2189,2.03191 13.5325,4.01169 6.0322,1.98429 3.8624,1.15232 9.9675,3.66504 1.6005,0.65876 3.143,1.471 4.7881,2.00884 1.4497,0.47394 8.5927,1.98055 10.2613,2.60455 1.5118,0.56533 2.8911,1.43556 4.3368,2.15333 0.3857,0.25262 4.3798,3.03937 5.4659,3.24626 0.4549,0.0866 0.858,-0.54222 1.3128,-0.45441 0.7943,0.15343 1.3475,1.03236 2.1514,1.12351 2.2858,0.25916 4.5228,-1.90288 6.8882,-0.42314 12.2397,0.0491 -3.3576,-0.74178 9.3154,2.52833 2.1826,0.5632 4.5683,-0.13738 6.7482,0.43596 2.0445,0.5377 3.785,1.88433 5.675,2.83134 8.1518,4.08445 3.1459,1.65145 11.2163,5.49437 1.6618,1.13419 3.2082,2.4592 4.9851,3.40254 3.1749,1.68539 6.7829,2.43203 9.9995,4.03619 1.0941,0.54565 1.9482,1.57962 3.1199,1.92869 2.3377,0.69647 4.9839,-0.49644 7.2948,0.58165 1.4771,0.32848 2.9614,0.62625 4.4313,0.98547 1.5935,0.38937 3.1232,1.11276 4.7569,1.25983 1.9023,0.17124 3.8161,-0.4548 5.7211,-0.31657 1.8724,0.13593 3.6797,0.74717 5.5171,1.13235 7.3761,1.54623 4.0369,0.52537 10.9279,3.42821 1.4701,0.24598 2.9714,0.34888 4.4103,0.73795 1.0495,0.28379 2.0324,0.78215 3.0055,1.26725 0.066,0.0331 0.052,0.19976 -0.019,0.22175 -4.3693,1.3567 -9.6985,0.88982 -13.1673,3.87275 -8.6427,7.43199 -7.3487,9.20465 -5.1641,14.64278 -2.092,-2.81027 -0.8212,-0.31159 -0.9186,-3.79319 -0.1747,-6.24771 -0.5791,1.91985 -1.2912,-4.60979 -0.088,-0.80618 0.2995,-1.59777 0.356,-2.40678 0.052,-0.74687 -0.021,-1.49724 -0.031,-2.24586 -10e-5,-0.49999 -0.057,-1.00322 -6e-4,-1.49995 0.051,-0.44767 0.3898,-0.86753 0.3217,-1.31294 -0.057,-0.37114 -0.5303,-0.55974 -0.6619,-0.91136 -0.072,-0.19254 0.1327,-0.40817 0.092,-0.60976 -0.069,-0.34633 -0.2729,-0.65139 -0.4094,-0.97708 -0.085,-0.69019 -0.1799,-1.37917 -0.2648,-2.06936 -4.4493,-7.97345 1.4911,3.21045 -2.7462,-7.03385 -0.555,-1.34187 -1.5976,-2.44645 -2.1466,-3.79081 -0.6547,-1.60366 -0.9039,-3.3459 -1.4399,-4.99303 -0.5379,-1.65265 -1.1868,-3.26708 -1.7802,-4.90064 -0.6148,-1.91032 -1.2295,-3.82066 -1.8443,-5.73099 -0.4632,-1.84454 -1.0352,-3.66515 -1.3897,-5.53363 -0.3815,-2.01027 -0.307,-4.10198 -0.8145,-6.08414 -0.4649,-1.81453 -1.4598,-3.45276 -2.0812,-5.21981 -0.6589,-1.87336 -1.3318,-3.7528 -1.7566,-5.69267 -0.7502,-3.42609 -0.5068,-7.02056 -1.2628,-10.44576 -0.3632,-1.37695 -0.7915,-2.73835 -1.0895,-4.13087 -0.9597,-4.48515 -0.5079,-4.28069 -1.4218,-8.83454 -0.3123,-1.55551 -0.8749,-3.05754 -1.1315,-4.62319 -0.2089,-1.27085 -0.1724,-2.56995 -0.2586,-3.85494 -0.2161,-1.23958 -0.4326,-2.47912 -0.6489,-3.71868 -0.8868,-5.0567 -0.6108,-2.47528 -0.7994,-7.74729 -0.6201,-4.50567 -1.3291,-4.01645 -2.3734,-8.55647 -0.2818,-1.22443 -0.1378,-2.5298 -0.4804,-3.73852 -0.3783,-1.33258 -1.1078,-2.53934 -1.6616,-3.80902 -0.056,-1.52065 0.1568,-3.07513 -0.167,-4.56195 -0.7435,-3.41414 -3.3859,-6.28093 -3.0797,-10.0199 -0.8361,-4.76699 -0.4983,-4.80055 -0.076,-9.74953 -0.2516,-1.79807 -1.2466,-3.41049 -1.8698,-5.11574 -0.1771,-1.82291 -0.3542,-3.6458 -0.5309,-5.46874 -0.2727,-1.41269 -0.6726,-2.8066 -0.8194,-4.23788 -0.1319,-1.2845 0.121,-2.58945 -0.013,-3.87378 -0.1232,-1.18095 -0.5327,-2.31486 -0.7528,-3.48166 -0.9235,-4.89615 0.2857,-2.4926 -2.4552,-6.1314 -0.9628,-4.47004 -0.3952,-3.70184 -2.9211,-7.67889 -1.0722,-1.68818 -2.5024,-3.15203 -3.4231,-4.92739 -1.0018,-1.93168 -1.5755,-4.05755 -2.3006,-6.10917 -1.8888,-5.34363 -3.4983,-10.78338 -5.4175,-16.11667 -2.6135,-30.7126 1.3703,13.0218 -2.5204,-19.59303 -0.3857,-3.2312 -0.3795,-6.49797 -0.6557,-9.74036 -0.2596,-3.04624 -0.9346,-6.0651 -0.9517,-9.12234 -0.023,-4.05024 1.1664,-9.2191 1.969,-13.26514 -0.9791,-25.24117 34.7173,-26.62592 35.6965,-1.38476 z"
         id="path3899"
         style="fill:#77a669;fill-opacity:1;stroke:none" />
    </g>
  </g>
</svg>
