<?xml version="1.0" encoding="UTF-8" standalone="no"?>
<!-- Created with Inkscape (http://www.inkscape.org/) -->

<svg
   xmlns:dc="http://purl.org/dc/elements/1.1/"
   xmlns:cc="http://creativecommons.org/ns#"
   xmlns:rdf="http://www.w3.org/1999/02/22-rdf-syntax-ns#"
   xmlns:svg="http://www.w3.org/2000/svg"
   xmlns="http://www.w3.org/2000/svg"
   xmlns:sodipodi="http://sodipodi.sourceforge.net/DTD/sodipodi-0.dtd"
   xmlns:inkscape="http://www.inkscape.org/namespaces/inkscape"
   width="530.23669"
   height="299.62866"
   id="svg3934"
   version="1.1"
   inkscape:version="0.48.4 r9939"
   sodipodi:docname="New document 4"
   viewbox="0 0 530.24 299.63">
  <defs
     id="defs3936" />
  <sodipodi:namedview
     id="base"
     pagecolor="#ffffff"
     bordercolor="#666666"
     borderopacity="1.0"
     inkscape:pageopacity="0.0"
     inkscape:pageshadow="2"
     inkscape:zoom="0.35"
     inkscape:cx="-246.31022"
     inkscape:cy="149.81428"
     inkscape:document-units="px"
     inkscape:current-layer="layer1"
     showgrid="false"
     fit-margin-top="0"
     fit-margin-left="0"
     fit-margin-right="0"
     fit-margin-bottom="0"
     inkscape:window-width="1920"
     inkscape:window-height="1018"
     inkscape:window-x="1912"
     inkscape:window-y="-8"
     inkscape:window-maximized="1" />
  <metadata
     id="metadata3939">
    <rdf:RDF>
      <cc:Work
         rdf:about="">
        <dc:format>image/svg+xml</dc:format>
        <dc:type
           rdf:resource="http://purl.org/dc/dcmitype/StillImage" />
        <dc:title></dc:title>
      </cc:Work>
    </rdf:RDF>
  </metadata>
  <g
     inkscape:label="Layer 1"
     inkscape:groupmode="layer"
     id="layer1"
     transform="translate(-109.88165,-382.54781)">
    <g
       id="g3913"
       transform="matrix(-0.7028093,0.7113783,-0.7113783,-0.7028093,1412.8607,-1629.645)">
      <path
         inkscape:connector-curvature="0"
         d="m 2112.4939,-966.45371 c 6.3892,6.51126 -0.5806,-0.77666 6.4591,7.28782 1.5104,1.73026 3.2019,3.30069 4.6628,5.07291 1.4851,1.80157 2.7249,3.79369 4.1628,5.63315 4.422,5.6568 4.21,5.15538 9.1472,10.11592 1.7912,1.29629 3.7592,2.37815 5.3737,3.88887 1.5026,1.40603 2.4155,3.3602 3.8983,4.78709 0.3598,0.34626 9.8652,7.47859 10.3258,7.83051 6.4118,4.89961 4.1211,3.04958 10.0427,8.39695 3.2114,3.35707 7.9923,4.72072 11.339,7.88093 4.255,4.01796 4.8467,7.42915 8.6672,11.71877 10.0485,11.28258 0.7356,-2.3313 8.1396,9.29298 2.638,3.31776 4.2067,4.98374 6.2283,8.61184 0.7747,1.39031 1.0226,3.09588 2.0477,4.3134 0.9416,1.11841 2.6865,1.33753 3.6418,2.44423 0.9039,1.04706 1.1131,2.53365 1.7258,3.77378 0.5364,1.08572 1.1465,2.13346 1.7197,3.20019 1.6623,2.18241 4.2737,3.2261 6.2306,5.04636 1.3972,1.29967 2.3873,3.00816 3.8387,4.24701 1.6129,1.37666 3.6163,2.23244 5.2853,3.54061 1.8138,1.42173 3.3832,3.13211 5.1363,4.62815 1.974,1.68456 4.0274,3.2737 6.0411,4.91054 8.1135,5.91251 14.2576,13.99595 21.7388,20.59694 8.1702,7.20894 2.6906,0.81409 8.3736,8.14534 2.42,2.67497 5.9323,3.97696 8.5514,6.384 1.5102,1.38792 2.4988,3.28598 4.0325,4.64789 16.3019,14.47601 -5.3315,-7.05947 11.1282,8.12757 1.683,1.55291 3.0587,3.40892 4.5881,5.11338 1.1785,2.06006 2.3569,4.12011 3.5354,6.18016 1.5529,1.49048 3.4324,2.70244 4.6587,4.47143 1.0374,1.49666 1.0632,3.51688 1.9724,5.09472 1.2337,2.14087 3.8049,4.52881 5.9327,5.91612 0.4617,0.32391 0.9235,0.64781 1.3852,0.97171 0.3006,0.53192 0.4484,1.18634 0.9019,1.59577 1.4802,1.33625 3.6317,1.62537 5.2203,2.74736 3.0043,2.1218 3.0659,3.31155 4.8452,6.66193 3.5983,1.71319 4.7084,5.62522 7.3005,8.32876 2.8154,2.93655 3.1432,1.29697 3.6142,5.7621 4.0576,-0.0382 0.3367,0.0902 4.179,2.32131 0.9845,0.57169 2.2694,0.42638 3.2811,0.94838 1.4629,0.75473 6.5076,5.12302 7.4142,5.88268 2.6745,2.86071 4.5658,6.26191 6.5108,9.62085 14.3583,19.58889 -13.3446,39.8946 -27.7029,20.30572 l 0,0 c -1.2266,-0.34983 -2.6198,-0.3399 -3.6797,-1.04947 -1.7277,-1.15659 -1.4592,-4.24642 -3.5096,-5.15609 -0.9324,-0.6571 -1.9215,-1.24034 -2.7972,-1.97128 -1.9134,-1.59706 -3.5921,-3.45942 -5.4791,-5.08757 -2.229,-1.92332 -2.6593,-1.93236 -4.874,-4.60441 -0.6485,-0.78239 -1.1106,-1.70215 -1.6658,-2.55322 -0.68,-0.44797 -4.0994,-2.59094 -4.5721,-3.3385 -0.511,-0.80802 -0.1123,-2.0203 -0.6865,-2.78467 -0.6139,-0.81715 -1.9419,-0.83419 -2.6119,-1.60604 -0.5636,-0.64932 -0.5901,-1.61521 -0.8851,-2.42281 -0.7204,-0.72791 -1.4409,-1.45583 -2.1613,-2.18374 -0.3928,-0.23175 -0.8409,-0.38846 -1.1783,-0.69525 -0.4576,-0.41612 -0.8033,-0.9421 -1.1701,-1.44013 -0.4048,-0.54965 -0.5561,-1.34988 -1.1423,-1.6997 -0.7975,-0.47598 -1.9371,-0.10529 -2.7198,-0.6052 -1.9642,-1.25445 -2.2591,-4.51219 -5.2605,-4.6059 -5.2651,-6.77724 0.5646,-0.10249 -6.8679,-5.90541 -5.7066,-4.45544 -0.5994,-1.83534 -5.8566,-7.12534 -8.9257,-8.98137 -0.5399,2.68926 -7.5535,-8.04883 -1.311,-1.54693 -2.4653,-3.24159 -3.933,-4.64078 -2.7858,-2.6559 -6.2515,-4.51109 -9.1485,-7.04528 -2.615,-2.28757 -4.6618,-5.18962 -7.3509,-7.38958 -1.5424,-1.26179 -3.309,-2.22143 -4.9635,-3.33214 -2.8517,-3.01179 -5.7185,-6.43543 -9.2927,-8.67748 -7.2667,-4.55819 -6.6007,-1.56217 -12.7021,-8.15433 -1.8493,-1.99806 -2.8387,-4.69351 -4.7027,-6.67779 -1.8388,-1.95733 -4.1964,-3.3525 -6.2945,-5.02875 -0.5147,-0.52415 -10.0805,-10.24537 -10.72,-10.97174 -1.5561,-1.76728 -2.8951,-3.71507 -4.3868,-5.53705 -1.1994,-1.46493 -2.5179,-2.83143 -3.6851,-4.32209 -1.1392,-1.45481 -2.0674,-3.0686 -3.2279,-4.50647 -1.0653,-1.32 -2.2917,-2.5015 -3.4375,-3.75224 -2.2309,-2.21728 -4.0293,-3.86031 -5.9656,-6.32804 -3.874,-4.93744 -6.1432,-11.06994 -11.8421,-14.38372 -11.1875,-14.11114 4.7391,5.42603 -7.436,-7.72548 -1.1902,-1.2856 -1.9953,-2.88376 -3.0903,-4.25127 -1.0317,-1.28834 -2.2054,-2.45659 -3.2826,-3.70707 -5.1759,-6.00817 -1.7104,-2.88087 -8.4205,-7.78836 -1.8701,-1.1729 -3.7287,-2.36437 -5.6103,-3.5187 -1.9018,-1.16676 -3.9335,-2.13408 -5.7395,-3.44423 -1.9412,-1.40813 -3.6693,-3.0896 -5.4625,-4.68184 -5.93,-5.26544 -11.8783,-10.55818 -17.2408,-16.41076 -1.466,-1.37218 -11.77,-10.89113 -13.1097,-12.63122 -1.6886,-2.19331 -2.7724,-4.79298 -4.079,-7.2332 -1.1482,-2.14426 -2.1884,-4.34458 -3.2834,-6.5165 -3.5907,-7.12281 -2.2902,-3.68528 -4.1977,-10.13334 -10.4462,-22.4165 21.2555,-37.18963 31.7017,-14.77312 z"
         id="path3901"
         style="fill:#77a669;fill-opacity:1;stroke:none" />
      <path
         inkscape:connector-curvature="0"
         d="m 2402.304,-850.78606 c 3.0267,5.7419 6.0513,11.83249 7.7015,18.14526 0.7279,2.78458 0.884,5.6896 1.4407,8.51339 3.0636,15.53805 0.9155,1.04328 2.8859,16.01759 2.9886,7.17477 3.295,6.12216 3.7158,13.53911 0.1007,1.77534 -0.4461,3.58611 -0.1156,5.33332 0.2847,1.5052 1.6924,2.66212 1.9148,4.1778 0.228,1.5545 -0.5836,3.10215 -0.6163,4.67296 -0.028,1.33002 0.291,2.64467 0.4365,3.967 0.2539,1.13026 0.5079,2.26052 0.7618,3.39078 0.4134,1.04244 0.9598,2.04149 1.2401,3.12731 0.3604,1.39682 0.5327,2.8395 0.6704,4.2755 0.1489,1.55366 -0.151,3.155 0.1877,4.67857 0.3453,1.55292 1.2503,2.92625 1.8324,4.40678 0.5769,1.46745 1.096,2.95698 1.6441,4.43547 0.2585,1.7749 0.5171,3.54979 0.7757,5.32469 0.2963,1.62206 0.6485,3.23489 0.889,4.86617 0.1984,1.34609 -0.05,2.78521 0.4267,4.05956 0.4536,1.21221 1.757,1.96169 2.2709,3.14961 6.0553,13.99824 -4.7373,-5.92568 2.456,6.83608 -1.6272,4.23946 1.7134,3.63648 2.021,7.74757 0.1042,1.39317 -0.6212,2.78965 -0.4118,4.17093 0.157,1.03515 1.019,1.83114 1.4656,2.77811 0.536,1.13672 0.9866,2.31181 1.48,3.46772 -0.2672,1.3565 -0.7949,2.68697 -0.8015,4.06951 0,0.8748 0.6063,1.64955 0.7703,2.50885 0.9617,5.03953 -0.426,0.39742 0.446,4.41108 0.6082,2.79953 0.7204,2.65154 1.9484,5.23654 0.1708,1.05398 0.043,2.20274 0.5124,3.16192 0.538,1.10024 1.8087,1.71077 2.3959,2.78556 1.0247,1.87533 1.6995,7.04656 2.2295,8.72697 0.9132,2.89587 2.4087,5.57482 3.6048,8.36578 -0.012,1.43005 -0.1996,2.86929 -0.037,4.29014 0.1162,1.01673 0.7134,1.93371 0.8643,2.94589 0.3878,2.60279 -0.2419,4.69864 0.2079,7.32009 1.4954,8.71545 0.8413,-3.86068 1.0799,5.8012 0.7307,5.47216 -0.5208,-2.39054 1.4966,4.56977 0.2364,0.81545 0.029,1.71602 0.2567,2.53407 0.3194,1.15004 1.0736,2.15266 1.3664,3.30976 0.2421,0.95704 0.1464,1.96895 0.2183,2.95352 0.087,1.19356 0.1726,2.38724 0.2589,3.58086 0.4244,1.24513 0.8488,2.49026 1.2732,3.73539 -0.076,1.00146 -0.4721,2.02985 -0.2291,3.00438 0.1861,0.74648 1.1372,1.10026 1.4298,1.81176 0.3576,0.86936 0.2024,1.8782 0.4597,2.78233 1.4825,5.21069 1.4745,1.32965 1.0062,5.95043 0.6095,3.50725 2.1046,7.37919 1.2646,10.98771 -0.7267,3.12144 0.031,7.51115 -2.6696,9.23663 -6.3755,4.07321 -14.5202,4.25607 -21.7803,6.38411 -5.959,-2.24311 -11.9737,-6.2591 -18.5214,-6.548 -3.149,1.51319 -0.7921,0.80438 -4.5969,0.68236 -0.8041,-0.0258 -3.1736,0.36254 -2.4111,0.1062 2.0781,-0.69857 4.2413,-1.74013 6.4147,-1.45209 0.8764,0.11616 -0.7593,2.00307 -1.6396,2.08496 -1.1275,0.10487 -1.9772,-1.10441 -2.9657,-1.65661 -0.7409,0.46951 -1.3765,1.17783 -2.2227,1.40853 -1.0475,0.28557 -2.1703,0.0848 -3.256,0.0851 -4.5587,10e-4 -9.1192,0.0525 -13.6761,-0.0804 -1.4612,-0.0426 -2.909,-0.29285 -4.3629,-0.44594 -1.7634,-0.18568 -3.5814,-0.0918 -5.2888,-0.57036 -1.7686,-0.49572 -3.3341,-1.54248 -5.0011,-2.31372 -3.9293,-1.9736 -8.4488,-2.35432 -12.4494,-4.11393 -2.0345,-0.89485 -3.8443,-2.23263 -5.7919,-3.30365 -1.7454,-0.95984 -3.5892,-1.74377 -5.2854,-2.78811 -3.19,-1.96403 -4.5623,-3.41574 -7.2456,-5.85294 -10.9862,-1.70942 1.2504,1.25215 -6.0412,-3.53141 -0.8532,-0.55972 -2.0362,-0.17113 -3.0418,-0.34398 -0.3505,-0.0602 -0.6758,-0.48108 -1.007,-0.35192 -0.2406,0.0938 0.1202,0.59592 -0.069,0.77147 -0.586,0.54342 -1.3795,0.80753 -2.0692,1.21129 2.3753,-0.059 9.4707,0.20618 7.1258,-0.17693 -4.1426,-0.67681 -8.3853,-0.41742 -12.5723,-0.71293 -2.2663,0.22302 -4.3286,-0.89503 -6.5252,-1.08892 -1.5351,-0.13551 -3.1066,0.26418 -4.6232,-0.01 -1.6266,-0.29364 -3.1131,-1.112 -4.6697,-1.668 -2.9277,-1.27015 -6.2409,-0.19383 -9.2129,-1.0414 -1.5081,-0.43011 -2.6796,-1.67184 -4.1507,-2.21524 -1.2628,-0.46646 -2.6787,-0.37569 -3.9623,-0.78151 -2.5372,-0.80215 -4.8732,-2.13912 -7.3242,-3.1751 -1.7996,-0.97087 -2.5205,-1.72174 -4.5261,-1.69276 -0.9728,0.0141 -1.9201,0.37885 -2.893,0.38664 -0.6212,0.005 -1.2177,-0.44938 -1.8307,-0.34879 -0.7953,0.13051 -1.3968,1.10679 -2.1969,1.00972 -1.1173,-0.13556 -1.9697,-1.0898 -2.9545,-1.6347 -1.9784,0.2208 -4.1341,0.59274 -6.1453,0.34342 -0.836,-0.10363 -1.6033,-0.64007 -2.4457,-0.63602 -0.9249,0.004 -1.7852,0.49463 -2.6951,0.66072 -0.8347,0.15235 -3.3761,0.25423 -2.5285,0.29275 2.1906,0.0995 4.3852,-0.0725 6.5777,-0.10874 -0.946,-0.23112 -1.8921,-0.46224 -2.8382,-0.69336 -0.784,0.50065 -1.4341,1.65283 -2.352,1.50193 -1.3432,-0.22081 -1.9703,-2.06936 -3.2833,-2.42832 -0.06,-0.0164 -4.1588,1.68145 -4.356,1.71909 -0.7349,0.14026 -1.4963,0.006 -2.2445,0.009 -9.1379,1.123 -10.4827,1.70882 -16.9818,-1.73425 -0.9321,-0.49384 -1.749,-1.22579 -2.7436,-1.5772 -1.9157,-0.67682 -4.7689,0.1577 -6.4623,0.43806 -1.6045,-1.60471 -2.2595,-2.75131 -4.8634,-2.979 -1.1954,-0.10453 -2.3573,0.71598 -3.5509,0.59215 -8.3459,-0.86583 0.6588,-1.35424 -6.2795,-3.03792 -1.341,-0.32541 -2.7597,0.0306 -4.1396,0.0458 -0.9045,-0.35658 -1.809,-0.71316 -2.7135,-1.06973 -0.6762,0.0519 -1.3747,0.33594 -2.0284,0.15577 -4.4369,-1.2228 -0.6184,-1.07246 -3.7569,-2.62716 -1.122,-0.5558 -2.5826,-0.41386 -3.5613,-1.19488 -1.9848,-1.58398 -3.3772,-3.79325 -5.0659,-5.68987 -0.7377,-4.12468 -1.4754,-8.24936 -2.2131,-12.37403 3.6956,-23.24661 36.5712,-18.02037 32.8757,5.22624 l 0,0 c -0.6756,-3.69031 -1.3512,-7.38062 -2.0268,-11.07092 -2.3615,-1.88087 -5.9295,-3.90388 -4.9684,-5.33831 0.2517,-0.3757 0.5948,0.7752 1.0355,0.87645 0.5532,0.12707 1.1232,-0.33947 1.684,-0.2517 10.571,1.65467 -4.31,0.63657 6.3826,1.16644 10.804,1.11539 -5.1244,-0.72346 7.1975,1.44401 1.2194,0.21449 2.5211,-0.12323 3.7071,0.23224 1.2793,0.38343 2.294,1.37976 3.5104,1.93104 0.9419,0.42687 1.9596,0.66136 2.9394,0.99204 0.8558,0.42361 1.7116,0.84721 2.5675,1.27081 2.2883,0.0628 1.3401,0.005 3.9306,0.23517 0.3492,0.0311 0.792,-0.13762 1.0468,0.10329 0.2341,0.22145 -0.2204,1.07705 0.081,0.96351 1.312,-0.49385 10.1383,-8.60926 -4.2037,0.13005 0.5655,-0.19987 1.1518,-0.34874 1.6966,-0.59961 0.6002,-0.27635 1.065,-0.95073 1.7253,-0.976 0.8956,-0.0343 1.6698,0.74121 2.5633,0.81182 2.7526,0.21754 5.3608,-2.0486 8.1801,-1.21448 4.0283,-0.0429 8.0564,-0.13573 12.085,-0.12856 2.7704,0.005 3.6733,0.37435 6.4679,0.13129 1.155,-0.10046 2.2772,-0.65398 3.4327,-0.55984 0.989,0.0806 1.8531,0.71062 2.7796,1.06594 0.964,0.008 1.928,0.0161 2.8919,0.0242 3.0222,0.95385 2.561,1.01589 6.3892,1.00724 1.4239,-0.003 2.8701,-0.57506 4.2626,-0.27798 1.0434,0.22258 1.6511,1.45667 2.6745,1.75791 8.8263,2.59801 0.8074,-2.36064 7.8338,2.73475 1.3405,0.0305 2.6907,-0.0714 4.0216,0.0914 6.4819,0.79312 12.1487,4.10708 18.3236,5.93922 0.9725,-0.11521 1.9517,-0.508 2.9175,-0.34563 7.6643,1.28859 -4.7155,1.58754 5.1726,1.71146 0.859,0.0108 3.3959,-0.47556 2.5372,-0.45203 -1.7256,0.0473 -25.1307,2.1138 5.1691,0.31851 2.1159,0.33328 6.7304,1.01465 8.4233,1.53642 1.286,0.39636 2.3829,1.28653 3.6674,1.68782 1.2043,0.37627 2.5557,0.17152 3.7334,0.62434 1.3144,0.50538 2.2768,1.73793 3.6077,2.19827 1.7398,0.6018 3.629,0.62169 5.4436,0.93253 17.5419,8.07615 -6.3814,-3.46452 9.3938,5.81668 8.5489,5.02971 1.3528,-0.82378 9.1455,3.45602 1.2357,0.67867 2.0467,2.01212 3.3164,2.62484 1.0243,0.49427 2.2395,0.39774 3.3593,0.59662 2.5518,1.82614 2.3928,2.28901 5.4602,2.46187 0.9163,0.0516 3.6384,-0.41955 2.7453,-0.20835 -14.5362,3.43751 -5.502,0.42449 -2.2715,0.16707 5.8935,-2.14575 -0.9081,-0.22836 6.3149,-0.10734 4.0905,0.0685 8.1723,-0.40247 12.2585,-0.6037 1.2678,0.1407 2.5295,0.35559 3.8033,0.42212 7.3998,0.38642 0.8684,-0.87223 9.2637,1.35331 6.3021,2.9897 2.9689,1.99248 10.0173,2.9315 1.2465,0.47763 1.9948,1.78891 3.1084,2.52492 1.1245,0.74316 2.4148,1.20371 3.5741,1.89144 0.5075,0.30108 1.9865,1.20398 1.4126,1.06694 -1.1164,-0.26654 -2.0748,-0.98183 -3.1122,-1.47275 -6.5931,2.52098 -14.0427,3.45007 -19.7792,7.56294 -2.1802,1.56309 -0.8778,5.31619 -1.7315,7.85932 -0.113,0.33654 -0.6679,0.39683 -1.015,0.32239 -0.1734,-0.0372 0.2089,-0.32928 0.1731,-0.50292 -0.094,-0.45446 -0.4524,-0.82711 -0.5411,-1.28256 -0.1367,-0.70151 -0.084,-1.42695 -0.1259,-2.14042 -0.919,-1.95066 -2.0898,-4.85099 -2.7251,-6.91314 -0.379,-1.23043 -0.5275,-2.5237 -0.8996,-3.75627 -2.4912,-8.25346 -0.1413,1.35495 -1.8023,-5.80933 0.1069,-1.23467 0.4595,-2.47251 0.3208,-3.70401 -0.1635,-1.45037 -0.8921,-2.78349 -1.2124,-4.20748 -0.2712,-1.20598 -0.296,-2.4581 -0.5584,-3.66601 -0.3014,-1.38686 -1.0517,-2.68788 -1.1302,-4.10493 -0.063,-1.13614 0.8195,-2.20403 0.7177,-3.33734 -0.1134,-1.26177 -0.8915,-2.37167 -1.3372,-3.5575 0.244,-0.71015 0.8187,-1.38452 0.7322,-2.13043 -0.1116,-0.96207 -2.1046,-3.18947 -2.4632,-4.14913 -0.3718,-0.99493 -0.3649,-2.10038 -0.6973,-3.10914 -0.3451,-1.0472 -0.884,-2.02028 -1.326,-3.03042 -0.4437,-1.33502 -0.9865,-2.6411 -1.3312,-4.00507 -0.6072,-2.40273 -0.7835,-5.79624 -1.6536,-8.16378 -0.5806,-1.57961 -1.557,-2.98825 -2.2105,-4.5391 -1.7016,-4.03796 -1.7737,-5.05427 -2.7666,-9.19867 -0.1434,-1.33594 -0.3261,-2.66824 -0.4303,-4.00781 -0.083,-1.06299 0.1002,-2.15483 -0.1296,-3.19596 -0.281,-1.27294 -1.2689,-2.35938 -1.3834,-3.65792 -0.084,-0.94735 0.7861,-1.7823 0.82,-2.73273 0.045,-1.25491 -0.6551,-3.10078 -1.0966,-4.38744 -0.3669,-1.65313 -0.1216,-3.69935 -1.0123,-5.17641 -0.4617,-0.76561 -1.2888,-1.30819 -1.6174,-2.13966 -0.9178,-2.32201 -0.3829,-5.07296 -1.8112,-7.26812 -0.5856,-1.00633 -1.304,-1.94634 -1.7568,-3.019 -1.6614,-3.93612 -1.65,-8.48361 -3.0806,-12.49075 -0.553,-1.54899 -1.692,-2.8647 -2.1336,-4.44904 -0.4221,-1.51431 -0.2773,-3.13182 -0.4159,-4.69773 -1.5679,-4.82515 -1.7281,-5.58441 -3.5832,-10.25596 -0.5985,-1.50702 -1.7605,-2.86599 -1.8901,-4.4823 -0.1249,-1.55661 1.2412,-2.97742 1.1666,-4.53724 -0.08,-1.67291 -1.0742,-3.17274 -1.6113,-4.75912 0.02,-1.49995 0.04,-2.99991 0.061,-4.49986 -0.4116,-1.20575 -0.9907,-2.36679 -1.2348,-3.61725 -1.4197,-7.27125 1.7917,1.23304 -0.9772,-7.47904 -0.49,-1.54143 -1.3242,-2.95365 -1.8926,-4.46791 -1.3968,-3.72152 -2.3173,-7.6125 -3.9182,-11.26301 -3.0999,-10.60394 -1.6656,-5.13666 -4.2587,-16.41343 -1.5893,-5.75739 -4.332,-11.58665 -4.6307,-17.6846 -0.1349,-2.75474 0.9657,-5.46091 0.9541,-8.21893 -0.01,-2.16092 -0.6771,-4.2685 -1.0157,-6.40275 -2.1102,-25.14681 33.4527,-28.13118 35.563,-2.98437 z"
         id="path3903"
         style="fill:#77a669;fill-opacity:1;stroke:none" />
    </g>
  </g>
</svg>
