<?xml version="1.0" encoding="UTF-8" standalone="no"?>
<!-- Created with Inkscape (http://www.inkscape.org/) -->

<svg
   xmlns:osb="http://www.openswatchbook.org/uri/2009/osb"
   xmlns:dc="http://purl.org/dc/elements/1.1/"
   xmlns:cc="http://creativecommons.org/ns#"
   xmlns:rdf="http://www.w3.org/1999/02/22-rdf-syntax-ns#"
   xmlns:svg="http://www.w3.org/2000/svg"
   xmlns="http://www.w3.org/2000/svg"
   xmlns:sodipodi="http://sodipodi.sourceforge.net/DTD/sodipodi-0.dtd"
   xmlns:inkscape="http://www.inkscape.org/namespaces/inkscape"
   width="200"
   height="200"
   id="svg3649"
   version="1.1"
   inkscape:version="0.48.4 r9939"
   sodipodi:docname="New document 4"
   viewbox="0 0 200 200">
  <defs
     id="defs3651">
    <linearGradient
       osb:paint="solid"
       id="linearGradient3854"
       gradientTransform="matrix(1.5705521,0,0,1.5705521,-456.16968,-1010.1955)">
      <stop
         id="stop3856"
         offset="0"
         style="stop-color:#beb5aa;stop-opacity:1;" />
    </linearGradient>
  </defs>
  <sodipodi:namedview
     id="base"
     pagecolor="#ffffff"
     bordercolor="#666666"
     borderopacity="1.0"
     inkscape:pageopacity="0.0"
     inkscape:pageshadow="2"
     inkscape:zoom="1.4"
     inkscape:cx="88.876172"
     inkscape:cy="74.131945"
     inkscape:document-units="px"
     inkscape:current-layer="layer1"
     showgrid="false"
     fit-margin-top="0"
     fit-margin-left="0"
     fit-margin-right="0"
     fit-margin-bottom="0"
     inkscape:window-width="1366"
     inkscape:window-height="706"
     inkscape:window-x="-8"
     inkscape:window-y="-8"
     inkscape:window-maximized="1" />
  <metadata
     id="metadata3654">
    <rdf:RDF>
      <cc:Work
         rdf:about="">
        <dc:format>image/svg+xml</dc:format>
        <dc:type
           rdf:resource="http://purl.org/dc/dcmitype/StillImage" />
        <dc:title></dc:title>
      </cc:Work>
    </rdf:RDF>
  </metadata>
  <g
     inkscape:label="Layer 1"
     inkscape:groupmode="layer"
     id="layer1"
     transform="translate(292.2433,69.680227)">
    <path
       id="rect3408"
       d="m -292.2433,-69.680227 0,199.999997 200,0 0,-199.999997 -200,0 z m 142.18405,26.895706 c 0.79833,-0.06031 1.65547,0.304655 1.71779,1.128834 l -0.049,0 c 0.24873,0.651858 0.33962,1.330163 0.44172,2.01227 0.0892,0.596056 0.15864,1.219157 0.2454,1.815951 0.0418,0.891115 -0.0275,-0.07947 0.0982,0.588957 0.0126,0.06471 0.0319,0.132712 0.049,0.196319 0.0157,0.05732 0.025,0.09313 0.049,0.147161 0.0726,0.162395 0.11088,0.260193 0.14716,0.441717 0.0427,0.08151 0.0715,0.157401 0.0982,0.245399 0.0361,0.119048 0.0207,0.222469 0.049,0.343559 0.12517,0.53383 0.082,0.166462 0.19632,0.638036 0.055,0.227071 0.0922,0.460046 0.14716,0.687117 0.0258,0.110253 0.0601,0.236792 0.0982,0.343558 0.0402,0.113237 0.1068,0.181273 0.14716,0.294479 0.0397,0.111038 0.11999,0.570785 0.14716,0.687116 0.0727,0.311127 0.0936,0.372535 0.19632,0.687117 0.0831,0.584701 0.20868,1.155801 0.39264,1.717791 0.21769,0.621939 0.34569,1.203624 0.39264,1.865031 0.0363,0.523999 0.0468,1.04492 0.049,1.570552 -0.0358,0.194466 0.0536,0.39746 0.049,0.588957 -0.002,0.09549 -0.0449,0.149988 -0.049,0.245399 -0.009,0.219862 0.076,0.515329 0.0982,0.736196 0.011,0.08842 -0.011,0.156898 0,0.245399 -0.003,0.100515 -0.008,0.194246 0,0.294479 0.009,0.10664 0.0402,0.236854 0.049,0.343558 0.0278,0.336349 0.0215,0.691844 0.049,1.030675 0.008,0.0969 -0.008,0.197497 0,0.294478 -0.003,0.109154 -0.006,0.185294 0,0.294479 0.006,0.117948 0.0462,0.2255 0.049,0.343558 0.003,0.124859 -0.0468,0.267826 -0.049,0.392638 -0.006,0.361808 0.0342,0.349731 0.0982,0.687117 -0.0872,0.959151 -0.0126,-0.269806 0,0.687116 0.001,0.116849 -0.0578,0.226992 -0.049,0.343558 0.008,0.09973 0.0801,0.196131 0.0982,0.294479 0.041,0.223442 0.0529,0.415819 0.049,0.638037 0.0554,0.243043 0.0666,0.489871 0.0982,0.736196 0.0126,-0.09989 0.0366,-0.194513 0.049,-0.294478 0.0226,-0.180787 0.0611,-0.36151 0.0982,-0.539878 0.0353,-0.170483 0.10978,-0.320722 0.14716,-0.490797 0.0336,-0.153129 0.0298,-0.335188 0.049,-0.490798 0.57823,-1.323174 -0.18429,0.473475 0.2454,-0.687116 0.0369,-0.09989 0.11182,-0.194089 0.14716,-0.294479 0.0806,-0.227887 0.1002,-0.479929 0.2454,-0.687116 0.0369,-0.06219 0.0755,-0.127686 0.0982,-0.196319 0.017,-0.05136 -0.0126,-0.09455 0,-0.147161 0.0881,-0.369363 0.0806,0.03565 0.14716,-0.490798 0.0369,-0.2914 0.0581,-0.413102 0.049,-0.441718 -0.0126,0.04869 -0.0705,0.14135 0.049,-0.343558 0.13947,-0.943525 -0.017,0.07633 0.19632,-0.883435 0.1291,-0.580806 0.17581,-1.206342 0.39264,-1.766872 0.24035,-0.595584 0.35072,-1.225816 0.39264,-1.86503 0.20792,-1.095649 0.0671,-2.233765 0.24539,-3.337424 -0.005,-0.178006 -0.006,-0.361902 0,-0.539877 0.005,-0.168771 0.0561,-0.371184 0.049,-0.539877 -0.008,-0.170327 -0.0812,-0.321178 -0.0982,-0.490798 -0.0182,-0.182152 0.0173,-0.35763 0,-0.539877 -0.12188,-1.283251 -0.13303,0.05136 -0.0982,-1.374233 -0.005,-0.42818 -0.0233,-1.463268 0,-1.865031 0.0733,-1.266132 0.3221,-2.567067 0.68711,-3.779141 0.19648,-1.442238 2.99403,-1.049616 2.79755,0.392638 0.0446,0.530171 0.12721,1.087058 0.0982,1.619632 -0.0182,0.3358 -0.11779,0.646581 -0.14716,0.981595 -0.0294,0.333711 -0.0177,0.697137 -0.049,1.030675 -0.26664,2.840626 -0.0394,-0.814865 -0.19632,1.717791 -0.003,0.230149 0.0171,0.457596 0,0.687117 -0.0141,0.193775 -0.0309,0.346417 -0.049,0.539877 -0.0633,0.6754 -0.0217,1.385447 0,2.06135 0.15344,1.280408 -0.0234,2.570224 -0.2454,3.828221 -0.22655,0.460674 -0.25921,0.937242 -0.39264,1.423313 -0.0545,0.198879 -0.13632,0.391617 -0.19632,0.588957 -0.0356,0.556164 -0.17854,1.116285 -0.2454,1.668711 -0.0195,0.160322 -0.0162,0.33258 -0.049,0.490798 -0.0322,0.157511 -0.0956,0.289453 -0.14716,0.441718 -0.12015,0.749122 -0.46097,1.413654 -0.7362,2.110429 -0.033,0.158579 -0.17353,0.280202 -0.19632,0.441718 -0.009,0.06675 0.008,0.129413 0,0.196319 -0.0209,0.193131 -0.11433,0.397491 -0.14716,0.588957 -0.011,0.431509 -0.0779,0.85182 -0.14716,1.276074 0.20198,-0.510446 0.40338,-1.024911 0.63804,-1.521473 0.18719,-0.385555 0.41243,-0.738992 0.58896,-1.128834 0.17811,-0.393408 0.31524,-0.830869 0.58895,-1.177914 0.29395,-0.797213 -0.0361,-0.04303 0.34356,-0.785276 0.27744,-0.5425 0.47357,-1.119741 0.7362,-1.668712 0.12596,-0.355981 0.27576,-0.720679 0.39264,-1.079755 0.0605,-0.185953 0.0878,-0.353547 0.14716,-0.539877 0.36083,-1.131693 0.0534,-0.06628 0.44172,-1.177914 0.0702,-0.201046 0.13475,-0.434163 0.19631,-0.638037 0.18352,-0.616049 0.39429,-1.127169 0.63804,-1.717791 0.0578,-0.139936 0.37561,-0.994537 0.44172,-1.128835 0.0851,-0.17265 0.19467,-0.326297 0.29448,-0.490797 0.46007,-0.86594 0.96586,-1.664408 1.47239,-2.503068 0.25168,-0.617399 0.53231,-1.270733 0.83436,-1.86503 0.12281,-0.241708 0.26608,-0.447341 0.39263,-0.687117 0.11324,-0.214679 0.21905,-0.478751 0.34356,-0.687116 0.10397,-0.173876 0.22269,-0.279197 0.34356,-0.441718 0.45711,-1.387881 3.1565,-0.504462 2.69939,0.883435 -0.14811,0.722659 -0.3716,1.440951 -0.68712,2.11043 -0.12046,0.255623 -0.26467,0.484232 -0.39264,0.736196 -0.56712,1.116631 -0.0256,0.327366 -0.73619,1.276074 -0.65909,0.776229 -0.1803,0.136481 -0.68712,0.883435 -0.15501,0.228421 -0.35001,0.400585 -0.4908,0.638037 -0.0509,0.08591 -0.31191,0.713471 -0.34356,0.785276 -0.49057,0.990783 -0.80693,2.052366 -1.17791,3.092025 -0.0603,0.187005 -0.13601,0.401936 -0.19632,0.588957 -0.0784,0.196382 -0.1789,0.38824 -0.2454,0.588957 -0.0653,0.197214 -0.0763,0.393643 -0.14716,0.588957 -0.0738,0.203889 -0.17359,0.38433 -0.2454,0.588957 -0.44995,1.282356 0.17273,-0.04193 -0.44172,1.128834 -0.38729,0.899267 -0.77167,1.760872 -1.27607,2.601227 -0.21642,0.515581 -0.5559,1.011844 -0.78528,1.521473 -0.11527,0.256078 -0.18926,0.524878 -0.29447,0.785276 -0.0619,0.124388 -0.13036,0.221432 -0.19632,0.343558 -0.0674,0.124859 -0.13617,0.264151 -0.19632,0.392638 -0.18555,0.396376 -0.24449,0.818478 -0.39264,1.226994 -0.0537,0.148417 -0.13303,0.29707 -0.19632,0.441718 -0.041,0.159003 -0.0925,0.335972 -0.14716,0.490797 -0.0517,0.146376 -0.13475,0.249969 -0.19632,0.392638 -0.43187,1.001149 0.11135,-0.108368 -0.29448,0.883436 -0.0963,0.235316 -0.19749,0.452099 -0.29448,0.687117 -0.1963,0.330004 -0.29843,0.713297 -0.39263,1.079754 -0.0295,0.11465 -0.0821,0.226332 -0.0982,0.343558 -0.0182,0.13334 0.002,0.258074 0,0.392638 -0.009,0.03691 -0.241,0.859281 -0.2454,0.883436 -0.0273,0.150459 -0.0226,0.291008 -0.049,0.441718 0.14072,-0.210533 0.37286,-0.510524 0.39263,-0.539877 0.41381,-0.595224 0.0232,-0.130199 0.53988,-0.638037 0.35088,-0.344862 0.67488,-0.745212 1.07976,-1.030675 0.62654,-0.371404 1.1889,-0.843528 1.57055,-1.472393 0.78458,-0.990484 -0.13962,0.116378 0.7362,-0.883435 0.50976,-0.581984 0.95516,-1.233669 1.52147,-1.766872 0.50202,-0.443806 0.27023,-0.22484 0.73619,-0.687116 0.11434,-0.113394 0.21797,-0.242792 0.34356,-0.343558 0.13523,-0.108368 0.30372,-0.18955 0.44172,-0.294479 0.33503,-0.254759 0.62621,-0.554813 0.98159,-0.785276 0.79874,-0.516759 0.684,-0.446382 0.58896,-0.392638 -0.0357,0.0031 0.0693,-0.137423 0.7362,-0.638037 0.25159,-0.188843 0.5297,-0.307404 0.78527,-0.490797 0.6528,-0.468386 1.20694,-1.064049 1.96319,-1.374233 1.02413,-1.206342 3.37994,0.805928 2.35583,2.012269 -0.70926,0.922653 -1.56001,1.675403 -2.50306,2.355829 -1.06003,0.686472 -0.56291,0.370964 -1.52148,1.079754 -0.54923,0.271282 -1.04225,0.576597 -1.57055,0.883436 -0.21297,0.123759 -0.49252,0.241676 -0.68712,0.392638 -0.0919,0.0713 -0.1661,0.160196 -0.24539,0.245399 -0.43498,0.482505 -0.73152,1.060264 -1.12884,1.570552 -0.0674,0.08669 -0.71438,0.802505 -0.78527,0.883435 -0.33365,0.46157 -0.76007,0.800841 -1.17792,1.177915 -0.12313,0.111038 -0.26305,0.240121 -0.39264,0.343558 -0.1993,0.15905 -0.46062,0.323 -0.68711,0.441718 -0.52089,0.280893 9.9e-4,-0.07696 -0.34356,0.245398 -0.0481,0.04507 -0.1013,0.100202 -0.14716,0.147161 -0.0526,0.05371 -0.0507,0.08889 -0.0982,0.147161 -0.45688,0.561315 0.0568,-0.210046 -0.39264,0.490797 -0.20309,0.304326 -0.44362,0.6226144 -0.63804,0.9325157 -0.0691,0.1102528 -0.12156,0.2369492 -0.19632,0.3435583 -0.008,0.010994 0.008,0.038479 0,0.049001 0.0815,0.02984 0.16857,0.052142 0.2454,0.098159 0.73116,0.4387024 1.61963,0.7459966 2.55215,0.9325154 1.29333,0.2586699 2.45768,0.136638 3.68098,0.6871165 0.37356,0.1680962 0.9216,0.323094 1.27608,0.5889571 0.302,0.2265207 0.59324,0.5835229 0.93251,0.7361963 0.7486,0.3368992 1.47264,0.736479 1.96319,1.3251534 0.69717,0.8366331 1.4074,2.0619622 2.06135,3.0429448 0.0922,0.1383656 0.0947,0.3336481 0.14716,0.4907975 0.0506,0.1518724 0.1977,0.2843014 0.2454,0.44171781 0.10004,0.32986307 0.2185,0.58324024 0.34356,0.88343558 0.0942,0.22634798 0.17182,1.06524271 0.2454,1.37423311 0.0897,0.377121 0.34758,0.7125752 0.44171,1.0797546 0.0815,0.3175343 0.14355,0.6269959 0.2454,0.9325154 0.1702,0.5106179 0.18393,1.0885811 0.29448,1.6196319 0.0655,0.3143931 0.17572,0.6189703 0.2454,0.9325153 0.0636,0.2863745 -0.085,0.652266 0,0.9325153 0.22241,0.7339819 -5.5e-4,1.504322 0.14716,2.2576687 0.17435,0.8891683 0.0982,1.8817253 0.0982,2.7975453 0,1.959814 0.0435,3.884777 -0.2454,5.791412 -0.0672,0.444356 -0.0239,0.882116 -0.0982,1.325153 -0.10475,0.628472 10e-4,1.333933 -0.0982,1.96319 -0.0989,0.623321 0.0598,1.293067 -0.049,1.91411 -0.23148,1.319531 -0.0982,2.769936 -0.0982,4.1227 0,0.863505 0.14182,1.849199 0,2.699386 -0.26138,1.568432 -0.42489,3.187405 -0.68711,4.760737 -0.15643,0.938781 0.0663,1.909414 -0.0982,2.846625 -0.0594,0.33803 -0.0441,0.690148 -0.0982,1.030675 -0.073,0.460313 -0.18553,0.907324 -0.2454,1.374233 -0.0386,0.300887 0.0455,0.632682 0,0.932516 -0.19748,1.303495 -0.19491,2.621283 -0.39264,3.92638 -0.0281,0.185309 0.0295,0.403852 0,0.588957 -0.0644,0.405752 -0.21631,0.779324 -0.29448,1.177914 -0.0732,0.373289 0.0237,0.80329 -0.049,1.177914 -0.15281,0.779434 -0.39576,1.528524 -0.53988,2.306749 -0.10287,0.555174 -0.11543,1.122379 -0.2454,1.668711 -0.14307,0.600784 -0.37575,1.194814 -0.49079,1.815951 -0.24477,1.32184 -0.91739,2.594223 -1.12884,3.926381 -0.15046,0.94855 -0.40817,1.777394 -0.58895,2.699386 -0.0767,0.390722 -0.0294,0.834513 -0.0982,1.226994 -0.25563,1.457064 -0.54159,2.905898 -0.78528,4.368098 -0.14748,0.885022 -0.60784,1.715561 -0.7362,2.601227 -0.044,0.302803 -0.0561,0.629493 -0.0982,0.932516 -0.13553,0.975422 -0.73669,1.808459 -0.93251,2.748466 -0.22784,1.093654 -0.57892,2.166372 -0.83436,3.239264 -0.17048,0.716046 -0.64014,1.370181 -0.78527,2.110429 -0.11026,0.562886 -0.21124,1.162083 -0.34356,1.717791 -0.0323,0.13601 -0.11481,0.207502 -0.14716,0.343559 -0.12439,0.52213 -0.22261,1.110427 -0.44172,1.570552 -0.0404,0.08465 0.0232,0.203873 0,0.294478 -0.081,0.315776 -0.1915,0.609139 -0.2454,0.932516 -0.0276,0.165724 0.0276,0.374152 0,0.539877 -0.0432,0.258887 -0.18294,0.492616 -0.2454,0.736193 -0.0887,0.346605 -0.20615,0.686143 -0.29448,1.030675 -0.0452,0.175933 0.0394,0.411548 0,0.588957 -0.0942,0.424395 -0.26357,0.795061 -0.34355,1.226994 -0.10947,0.591863 -0.0166,1.228706 -0.14717,1.815951 -0.0983,0.442456 -0.24109,0.845695 -0.34355,1.276074 -0.0515,0.21661 0.0366,0.467302 0,0.687116 -0.0418,0.251037 -0.14999,0.485709 -0.19632,0.736196 -0.0396,0.213972 0.0419,0.473632 0,0.687117 -0.1079,0.550636 -0.27945,1.076331 -0.39264,1.619632 -0.0889,0.427269 -0.0945,0.848192 -0.19632,1.276074 -0.047,0.196711 -0.20353,0.38791 -0.2454,0.588957 -0.0531,0.254618 -0.0382,0.533626 -0.0982,0.785276 -0.12454,0.523009 -0.42332,0.940164 -0.63803,1.423313 -0.14717,0.331198 -0.25073,0.725061 -0.44172,1.030674 -0.1134,0.181556 -0.28353,0.372865 -0.34356,0.588957 -0.0708,0.255058 -0.0996,0.566389 -0.2454,0.785277 -0.11559,0.173451 -0.30996,0.322465 -0.44172,0.539882 -0.31475,0.51938 -0.5727,1.05048 -0.83435,1.52147 -0.16746,0.30142 -1.86126,1.46936 -2.20859,1.52147 -0.27023,0.0405 -0.61079,0 -0.88344,0 -0.31967,0 -0.71831,0.0625 -1.03067,0 -0.92749,-0.18551 -1.70179,-1.04399 -2.45399,-1.57055 -0.18694,-0.13083 -0.33872,-0.47074 -0.4908,-0.63804 -0.3677,-0.40448 -0.40115,-1.063907 -0.68711,-1.521472 -0.40761,-0.652187 -0.65321,-1.455839 -0.78528,-2.208589 -0.1024,-0.583224 -0.39391,-1.087309 -0.4908,-1.668711 -0.0501,-0.301326 -0.20682,-0.525476 -0.34356,-0.785276 -0.18105,-0.343998 -0.0292,-0.117949 -0.0982,-0.490798 -0.0644,-0.347626 -0.36568,-0.639466 -0.44171,-0.981595 -0.12643,-0.569027 -0.24214,-1.13964 -0.34356,-1.717791 -0.052,-0.296222 -0.28275,-0.542501 -0.34356,-0.834356 -0.12187,-0.584591 -0.37304,-1.138776 -0.4908,-1.668712 -0.0969,-0.436001 -0.0658,-0.885022 -0.14716,-1.325153 -0.19117,-1.032387 -0.38039,-2.039457 -0.53988,-3.092025 -0.0741,-0.489274 -0.36092,-0.938578 -0.44171,-1.423313 -0.16006,-0.960405 -0.39781,-1.932907 -0.7362,-2.846622 -0.15454,-0.417233 -0.32155,-0.833979 -0.53988,-1.226994 -0.36374,-0.654763 -0.8101,-1.290115 -0.93251,-2.06135 -0.27034,-1.703185 -0.52256,-3.422861 -0.7362,-5.153374 -0.044,-0.355526 -0.25058,-0.675133 -0.29448,-1.030675 -0.16154,-1.308506 -0.49661,-2.611027 -0.63803,-3.92638 -0.0578,-0.538134 -0.26367,-1.022901 -0.44172,-1.521473 -0.15758,-0.441215 -0.29004,-1.383169 -0.34356,-1.86503 -0.1724,-1.551675 -0.37519,-3.074419 -0.58896,-4.613497 -0.0394,-0.28405 0.0412,-0.599653 0,-0.883436 -0.0696,-0.48073 -0.14229,-0.959812 -0.2454,-1.423313 -0.11842,-0.532998 -0.0223,-1.172904 -0.0982,-1.717791 -0.0512,-0.369614 -0.18703,-0.712136 -0.24539,-1.079755 -0.0818,-0.515565 0.003,-1.106909 -0.0982,-1.619632 -0.24358,-1.242338 -0.39994,-2.572957 -0.68712,-3.779141 -0.0479,-0.201219 0.0377,-0.434477 0,-0.638037 -0.0485,-0.262235 -0.18157,-0.487295 -0.2454,-0.736196 -0.0768,-0.299253 -0.14276,-0.675981 -0.19632,-0.981595 -0.15061,-0.858605 -0.55594,-1.686396 -0.68711,-2.552147 -0.12471,-0.822671 -0.20361,-1.608748 -0.29448,-2.453988 -0.11088,-1.031806 -0.50195,-2.022274 -0.63804,-3.042945 -0.0903,-0.678274 0.0809,-1.381709 0,-2.06135 -0.0499,-0.420138 -0.0814,-0.861416 -0.14716,-1.276073 -0.16379,-1.031963 0.0518,-2.106472 -0.0982,-3.141104 -0.0773,-0.533737 -0.38279,-1.052098 -0.4908,-1.570553 -0.18534,-0.889717 -0.5158,-1.669622 -0.93251,-2.503067 -0.49107,-0.982192 -0.52386,-2.170582 -0.78528,-3.190184 -0.0655,-0.254916 0.0455,-0.574665 0,-0.834356 -0.10758,-0.613992 -0.22391,-1.205744 -0.34356,-1.815951 -0.11433,-0.582863 0,-1.369993 0,-1.96319 l 0,-4.613497 0,-2.748466 c 0,-0.43776 0.0719,-0.941876 0,-1.374233 -0.17609,-1.0566047 -0.2454,-2.0956035 -0.2454,-3.1901841 0,-0.2835004 -0.0578,-0.6060918 0,-0.8834356 0.11513,-0.552426 0.2446,-1.1046322 0.34356,-1.6687117 0.0485,-0.2766999 0.0289,-0.5642208 0.0982,-0.8343558 0.11638,-0.4541566 0.46927,-0.8091956 0.58896,-1.2760736 0.1002,-0.3906749 0.12234,-0.8087401 0.2454,-1.1779141 0.20156,-0.6047411 0.94695,-1.49427046 1.07975,-2.01226997 0.10711,-0.41740565 0.20132,-0.79385129 0.34356,-1.17791413 0.0295,-0.079941 -0.027,-0.1645781 0,-0.2453988 0.0199,-0.059681 0.17642,-0.1857335 0.19632,-0.2453987 0.0913,-0.2740771 0.0565,-1.0091269 0.14716,-1.2269939 0.15093,-0.3624049 0.17116,-0.7589379 0.29448,-1.1288343 0.11481,-0.3445792 0.26745,-0.692645 0.39264,-1.0306749 0.15046,-0.4064746 0.91392,-0.8648245 1.22699,-1.1779141 0.10962,-0.1096245 0.0806,-0.272852 0.14716,-0.392638 0.1368,-0.2463569 0.49793,-0.3205183 0.68712,-0.4907976 0.73517,-0.6616736 1.87484,-0.7597546 2.79754,-1.1288343 0.56221,-0.2249031 1.40255,-0.7924535 1.96319,-1.1288344 0.13067,-0.078528 0.1302,-0.1935391 0.2454,-0.2453988 1.02347,-0.4605642 2.17729,-0.1352245 3.23927,-0.2944792 0.20783,-0.0311 0.42797,-0.06926 0.63803,-0.09816 -0.0322,-0.09628 -0.0545,-0.201769 -0.0982,-0.294479 -0.0401,-0.306147 -0.16076,-0.577743 -0.19632,-0.883435 -0.011,-0.08984 0.0187,-0.20568 0,-0.294479 -0.0363,-0.184351 -0.1503,-0.343055 -0.14716,-0.539877 -0.10836,-0.285746 -0.19149,-0.547824 -0.29447,-0.834356 -0.0338,-0.09423 -0.074,-0.197355 -0.0982,-0.294478 -0.3136,-1.259222 0.30498,0.654873 -0.0982,-0.588957 -0.10727,-0.400381 -0.0671,-0.204753 -0.2454,-0.588958 -0.0308,-0.100829 -0.0264,-0.191544 -0.049,-0.294478 -0.0732,-0.330491 -0.14905,-0.657512 -0.2454,-0.981595 -0.085,-0.251446 -0.21451,-0.483133 -0.29448,-0.736196 -0.0374,-0.118263 -0.0644,-0.273261 -0.0982,-0.392638 -0.10743,-0.379634 -0.24527,-0.763352 -0.39264,-1.128835 -0.66784,-1.52609 0.32126,0.71881 -0.44172,-0.883435 -0.0711,-0.14936 -0.0776,-0.291605 -0.14716,-0.441718 -0.23145,-0.499357 -0.57259,-0.963597 -0.78527,-1.472393 -0.50687,-0.908109 -0.92484,-1.864654 -1.4724,-2.748466 -0.79634,-1.290162 0.28786,0.504367 -0.49079,-0.834356 -0.0889,-0.152815 -0.16801,-0.282715 -0.2454,-0.441718 -0.0818,-0.167986 -0.11277,-0.372802 -0.19632,-0.539877 -0.18716,-0.37387 -0.51346,-0.669165 -0.63804,-1.079755 -0.59016,-1.451284 -1.46713,-2.792834 -1.86503,-4.319018 -0.63882,-1.556543 2.35504,-2.783552 2.99387,-1.226994 0.14166,0.144648 0.31483,0.283925 0.44171,0.441718 0.40739,0.506566 0.54153,0.832738 0.83436,1.423313 0.38865,0.783815 0.74179,1.598508 1.07975,2.404908 0.0798,0.216233 0.17539,0.418411 0.2454,0.638037 0.0578,0.181273 0.0839,0.360488 0.14716,0.539877 0.18117,0.512926 0.51273,1.041417 0.83436,1.472392 0.52877,0.948049 1.06531,1.860602 1.52147,2.846626 0.64025,0.944248 1.08767,2.023971 1.4724,3.092025 0.16509,0.464899 0.35439,0.899424 0.49079,1.374233 -0.0481,-0.186346 -0.0842,-0.411673 -0.0982,-0.588957 -0.0333,-0.425227 0.0141,-0.855213 -0.0982,-1.276074 -0.011,-0.122189 0.011,-0.270543 0,-0.392638 -0.0253,-0.107426 -0.0856,-0.184791 -0.0982,-0.294478 -0.0518,-0.450497 0.0141,-0.926956 -0.0982,-1.374233 -0.011,-0.133497 -0.0383,-0.259142 -0.049,-0.392638 0.011,-0.118734 0.0547,-0.273575 0.049,-0.392639 -0.006,-0.12156 -0.0416,-0.22217 -0.049,-0.343558 -0.0226,-0.371514 0.0165,-0.756079 -0.049,-1.128834 0.0165,-0.555771 0.0317,-1.117087 -0.049,-1.668712 -0.003,-0.105855 0.009,-0.189141 0,-0.294478 -0.011,-0.115122 -0.0503,-0.227966 -0.049,-0.343559 9.7e-4,-0.09298 0.0434,-0.201643 0.049,-0.294478 0.0166,-0.265015 -0.0766,-0.518471 -0.049,-0.785276 0.0548,-0.381299 0.0328,-0.808536 -0.049,-1.177914 -0.10633,-0.570927 -0.33919,-1.096418 -0.44172,-1.668712 -0.12894,-0.565587 -0.20604,-1.155298 -0.34356,-1.717791 -0.10224,-0.288118 -0.22845,-0.551076 -0.34356,-0.834356 -0.0482,-0.118734 -0.11119,-0.220647 -0.14716,-0.343559 -0.0765,-0.261292 -0.0382,-0.579549 -0.14716,-0.834355 -0.0591,-0.246263 -0.13993,-0.489322 -0.19632,-0.736197 -0.0708,-0.310451 -0.0843,-0.631691 -0.19632,-0.932515 -0.12423,-0.578796 -0.54245,-1.041999 -0.68711,-1.619632 -0.47335,-1.344424 -0.73629,-2.795693 -0.53988,-4.220859 -0.0624,-0.824178 0.72315,-1.313877 1.52147,-1.374233 z m -88.29448,0.981595 c 0.83885,-0.115122 1.83631,0.384958 1.71779,1.276073 0.0944,1.315087 0.0707,-0.298719 -0.049,1.276074 -0.0215,0.28226 0.0198,0.551955 0,0.834356 -0.0443,0.641288 -0.18713,1.041229 -0.29448,1.668711 -0.0434,0.253205 -0.0658,0.530454 -0.0982,0.785277 -0.22061,1.034067 -0.0942,0.239619 -0.19632,1.226993 -0.0182,0.175494 -0.085,0.363944 -0.0982,0.539878 -0.0429,0.57066 0.0635,1.106061 0.14716,1.668711 0.0141,0.227856 0.0347,0.459261 0.049,0.687117 0.0239,0.233761 0.0333,0.45268 0.049,0.687117 0.0159,0.237043 -0.0298,0.500629 0,0.736196 0.0305,0.2334 0.16037,0.454486 0.19632,0.687116 0.0666,0.430709 0.0452,0.843481 0.0982,1.276074 0.0157,0.197937 0.0182,0.392858 0.049,0.588957 0.0292,0.184823 0.11512,0.355542 0.14716,0.539877 0.0297,0.17174 0.0272,0.36696 0.049,0.539878 0.0675,0.530941 0.11763,1.035276 0.14716,1.570552 0.11858,0.991521 -0.0829,2.003757 -0.0982,2.993865 0.003,0.04916 -0.002,0.09816 0,0.147161 0.29252,-0.620636 0.56977,-1.257259 0.9816,-1.815951 0.087,-0.107897 0.15843,-0.235615 0.24539,-0.343559 0.0606,-0.113551 0.11795,-0.241488 0.19632,-0.343558 0.0691,-0.09015 0.16895,-0.112137 0.2454,-0.196319 0.19238,-0.211805 0.40016,-0.487986 0.53988,-0.736196 0.24684,-0.313765 0.25906,-0.458931 0.39264,-0.834356 0.19641,-0.552033 0.41154,-1.128206 0.63803,-1.668712 0.67255,-1.407199 1.58733,-2.727986 2.74847,-3.779141 0.71531,-1.185076 2.97298,0.238222 2.25767,1.423313 -0.0755,0.165992 -0.10805,0.331135 -0.19632,0.490798 -0.11685,0.211207 -0.26679,0.382994 -0.39264,0.588957 -0.52346,0.856752 -1.05601,1.720712 -1.61963,2.552147 -0.15234,0.314519 -0.38628,0.569482 -0.53988,0.883435 -0.0653,0.13334 -0.0788,0.310027 -0.14716,0.441718 -0.20155,0.387848 -0.46187,0.724983 -0.63803,1.128835 -0.26783,0.425211 -0.55852,0.84136 -0.88344,1.226993 -0.38343,0.455099 -0.10648,0.03911 -0.39264,0.539878 -0.0561,0.105227 -0.0834,0.19379 -0.14716,0.294478 -0.0636,0.100359 -0.13381,0.193477 -0.19632,0.294479 -0.2214,0.357253 -0.3956,0.833382 -0.58896,1.226994 -0.27849,0.637094 -0.55643,1.31072 -0.98159,1.86503 -0.12847,0.238693 -0.30492,0.456152 -0.44172,0.687117 -0.0713,0.120618 -0.0691,0.264167 -0.0982,0.392638 -0.0697,0.311723 -0.26888,0.620682 -0.34356,0.932515 -0.0316,0.131927 -0.0141,0.261482 -0.049,0.392638 -0.0228,0.08591 -0.0691,0.161453 -0.0982,0.245399 0.13287,-0.11308 0.26211,-0.228185 0.39264,-0.343558 0.50274,-0.236698 0.93607,-0.364887 1.27608,-0.834356 0.48371,-0.575921 1.01575,-1.111825 1.52147,-1.668712 0.44553,-0.490609 0.70934,-0.819137 1.22699,-1.226994 0.17276,-0.136166 0.35667,-0.270935 0.53988,-0.392638 0.77045,-1.027816 2.78273,0.493641 2.01227,1.521473 -0.36572,0.660087 -0.87166,1.253175 -1.37423,1.815951 -0.19551,0.218919 -0.38715,0.424944 -0.58896,0.638037 -0.8898,0.939472 -0.16306,0.256157 -1.07976,1.030674 -0.41849,0.446917 -0.99356,0.701095 -1.52147,0.981596 -0.31844,0.169211 -0.0372,0.05811 -0.29448,0.14716 -0.53744,0.806652 -0.93729,1.687292 -1.37423,2.552147 -0.10177,0.210407 -0.1798,0.38532 -0.29448,0.588958 -0.10962,0.194732 -0.27602,0.39826 -0.39264,0.588957 -0.18026,0.294792 -0.36232,0.589506 -0.53987,0.8834352 0.3821,-0.014135 0.78914,0.00942 1.17791,0.049001 0.54596,0.054498 1.08487,0.3347632 1.61963,0.4417178 0.36801,0.073502 0.71277,0.073816 1.07976,0.1471607 0.53937,0.1077399 1.00942,0.3806234 1.47239,0.5889571 0.23541,0.1060123 0.45339,0.056069 0.68712,0.196319 0.18053,0.1082111 0.4084,0.2843171 0.58895,0.3926381 0.67104,0.4026424 1.55782,0.6129079 2.11043,1.2760736 0.10759,0.1290994 0.34226,0.175148 0.44172,0.2944785 0.29556,0.3547092 0.94489,0.3890415 1.27607,0.6871166 0.55554,0.5000009 1.36042,1.1122022 1.86503,1.7177914 0.27985,0.3358154 0.3595,0.75509 0.53988,1.0797546 0.0506,0.091092 0.1929,0.15093 0.2454,0.2453988 0.1247,0.224479 0.21594,0.5447617 0.34356,0.7361963 0.21207,0.318131 0.68206,0.6160805 0.83435,0.9815951 0.11104,0.26667972 0.31212,0.50289076 0.44172,0.73619628 0.17366,0.31261841 0.2596,0.77918233 0.4908,1.0797546 0.0466,0.0606233 0.15913,0.0805693 0.19632,0.14716074 0.074,0.13318278 0.0908,0.38753378 0.14716,0.53987728 0.0754,0.2036221 0.1547,0.4255725 0.2454,0.5889571 0.0958,0.1724152 0.0443,0.4441678 0.0982,0.6380368 0.26575,0.9567489 0.35799,1.9747494 0.58895,2.9447853 0.13664,0.5736755 0,1.8198459 0,2.4539877 0,0.7469546 0.14497,2.8271194 0,3.4355834 -0.17547,0.737013 -0.31836,1.484376 -0.49079,2.208589 -0.0335,0.140878 0.0264,0.250236 0,0.392638 -0.1503,0.812101 -0.0861,1.68126 -0.34356,2.453987 -0.0435,0.130356 0.0435,0.311362 0,0.441718 -0.14638,0.439456 -0.25716,0.907701 -0.34356,1.374233 -0.0561,0.302724 -0.28504,0.584984 -0.34356,0.883436 -0.16385,0.835738 -0.44418,1.652299 -0.68711,2.453988 -0.0741,0.244597 -0.0386,0.486227 -0.0982,0.736196 -0.15745,0.661297 -0.26788,1.289423 -0.39264,1.96319 -0.0928,0.501069 0.027,1.032795 -0.0982,1.521472 -0.20876,0.814253 0.22338,1.993377 0,2.797546 -0.26626,0.95854 -0.30817,1.971562 -0.53988,2.944786 -0.0295,0.124387 0.0278,0.267889 0,0.392638 -0.17684,0.79583 -0.41225,1.560657 -0.58896,2.355828 -0.0295,0.133026 0.0278,0.308268 0,0.441718 -0.34112,1.637395 -0.27858,4.80702 0,6.478527 0.12015,0.7209 -0.0349,1.49047 0.0982,2.208589 0.0485,0.262785 -0.0545,0.572859 0,0.834356 0.16292,0.78201 -0.047,1.572406 0.0982,2.355828 0.0872,0.470412 0.24033,1.739387 0.0982,2.208589 -0.0788,0.260005 -0.32446,0.489934 -0.44171,0.736197 -0.15219,0.31978 -0.25348,0.657229 -0.34356,0.981595 -0.0682,0.245053 -0.28993,0.406788 -0.44172,0.588957 -0.29762,0.357159 -0.46229,0.969533 -0.68712,1.374233 -0.19068,0.343213 0.0192,0.114336 -0.049,0.441718 -0.09,0.432231 -0.45357,0.786768 -0.53988,1.226994 -0.10318,0.526072 -0.30756,1.034585 -0.39263,1.570552 -0.0674,0.425133 -0.13444,0.849778 -0.19632,1.276073 -0.0303,0.21003 -0.11921,0.427693 -0.14716,0.638037 -0.14057,1.053684 -0.0894,2.131051 -0.19632,3.190184 -0.0638,0.631252 0.0777,1.284618 0,1.914111 -0.0755,0.611463 -0.052,1.264765 -0.14716,1.86503 -0.0657,0.413213 -0.2318,0.813311 -0.29448,1.226994 -0.17689,1.16747 0.10947,2.378743 -0.14716,3.533743 -0.11073,0.498383 -0.19631,1.035512 -0.34356,1.521472 -0.0847,0.279433 -0.36068,0.49353 -0.44172,0.785276 -0.17311,0.623179 -0.22647,1.232805 -0.34356,1.865031 -0.0595,0.321193 -0.18859,0.657873 -0.2454,0.981595 -0.0295,0.167813 0.0281,0.322733 0,0.490797 -0.0601,0.360411 -0.27373,0.674505 -0.34355,1.030675 -0.0495,0.252623 -0.035,0.538998 -0.0982,0.785276 -0.0495,0.193539 -0.2068,0.282354 -0.2454,0.490798 -0.12109,0.653507 -0.20717,1.357585 -0.34356,2.01227 -0.15266,0.732725 -0.62217,1.308725 -0.7362,2.061349 -0.079,0.521361 -0.34192,0.963377 -0.44171,1.47239 -0.2014,1.027141 -0.57189,2.067757 -0.78528,3.092024 -0.0856,0.41059 -0.442,0.70499 -0.58896,1.079755 -0.29941,0.763555 -0.53926,1.587765 -0.73619,2.355828 -0.1123,0.438247 -0.6472,1.217995 -0.88344,1.619632 -0.40949,0.696147 -0.65941,1.484612 -1.03067,2.208589 -0.18271,0.35628 -0.31883,0.880781 -0.58896,1.177914 -0.32185,0.35405 -0.7593,0.808379 -0.93252,1.276074 -0.13569,0.366457 -0.30129,0.717836 -0.39264,1.128834 -0.092,0.414202 -0.10538,0.86649 -0.19631,1.276074 -0.0949,0.426923 -0.34157,0.806274 -0.44172,1.226994 -0.0276,0.116064 0.0345,0.22941 0,0.343558 -0.0487,0.161076 -0.18343,0.29296 -0.2454,0.44172 -0.10554,0.25311 -0.13695,0.84466 -0.34356,1.03067 -0.15955,0.14371 -0.26052,0.33228 -0.39264,0.4908 -0.0517,0.062 -0.2434,0.0726 -0.29448,0.0982 -0.12423,0.062 -0.24993,0.21023 -0.34355,0.29448 -0.38411,0.34571 -1.85399,0.81478 -2.35583,0.58896 -2.41458,-1.08662 -3.20267,-4.04113 -3.92638,-6.429453 -0.20837,-0.687666 -0.67532,-1.296553 -0.83436,-2.01227 -0.19984,-0.899251 -0.58399,-1.813846 -0.93251,-2.650306 -0.0633,-0.151873 -0.062,-0.426484 -0.0982,-0.588957 -0.0809,-0.363976 -0.27501,-0.66048 -0.34356,-1.030675 -0.20493,-1.10669 -0.39451,-2.301644 -0.53988,-3.435583 -0.0765,-0.597328 -0.24259,-1.181652 -0.39264,-1.766871 -0.19328,-0.753881 -0.31156,-1.487376 -0.58895,-2.208586 -0.14512,-0.376917 -0.16819,-0.809604 -0.34356,-1.177914 -0.40996,-0.860945 -0.90396,-2.190779 -1.03068,-3.141104 -0.13601,-1.020388 -0.36446,-1.993973 -0.53987,-2.993865 -0.0905,-0.516005 0.0372,-1.102355 -0.049,-1.619632 -0.14511,-0.870432 -0.15564,-1.725833 -0.29447,-2.601227 -0.0526,-0.331371 0.0611,-0.700969 0,-1.030675 -0.16623,-0.897712 -0.17287,-1.836321 -0.29448,-2.748466 -0.0317,-0.237688 -0.0853,-0.274769 -0.0982,-0.343559 0.002,0.159804 -0.009,0.339161 -0.0982,-0.245398 -0.0658,-0.43396 -0.0817,-0.892357 -0.14716,-1.325154 -0.0631,-0.415945 -0.28799,-0.810122 -0.34356,-1.226994 -0.0873,-0.65426 -0.1866,-1.266996 -0.29448,-1.91411 -0.0267,-0.159678 0.0295,-0.331638 0,-0.490798 -0.0297,-0.160809 -0.11748,-0.329988 -0.14716,-0.490797 -0.0944,-0.509864 -0.16337,-1.004682 -0.2454,-1.521473 -0.0958,-0.603327 -0.37599,-1.225941 -0.53988,-1.815951 -0.40485,-1.457566 -0.81459,-2.926111 -1.03067,-4.417177 -0.0534,-0.368483 -0.23651,-0.714555 -0.29448,-1.079755 -0.10664,-0.672542 -0.20755,-1.334168 -0.29448,-2.01227 -0.0713,-0.556352 -0.30929,-1.069436 -0.39264,-1.619632 -0.0718,-0.473898 -0.12752,-0.997002 -0.19631,-1.472393 -0.0465,-0.320785 -0.2024,-0.610033 -0.2454,-0.932515 -0.11984,-0.898701 -0.33466,-1.750899 -0.44172,-2.650307 -0.0812,-0.681415 -0.38934,-1.342586 -0.4908,-2.01227 -0.11025,-0.727872 -0.16367,-1.423988 -0.2454,-2.159509 -0.0531,-0.478877 -0.26858,-0.950953 -0.34356,-1.423313 -0.0787,-0.495603 -0.16236,-0.974166 -0.24539,-1.472392 -0.11811,-0.708649 -0.53889,-1.396598 -0.63804,-2.11043 -0.0795,-0.572073 -0.15533,-1.150366 -0.2454,-1.717791 -0.16604,-1.046161 0.1302,-2.162226 -0.0982,-3.190184 -0.18701,-0.841612 0.12549,-1.914001 -0.14716,-2.895706 -0.0879,-0.31667 0.0713,-0.709277 0,-1.030675 -0.11606,-0.522177 -0.38141,-0.996405 -0.4908,-1.521472 -0.0861,-0.413134 -0.0319,-0.858746 -0.0982,-1.276074 -0.15983,-1.0071 -0.2813,-2.032278 -0.44172,-3.042944 -0.0845,-0.532088 0.0773,-1.135384 0,-1.668712 -0.057,-0.393423 -0.0672,-0.794165 -0.14716,-1.177914 -0.0595,-0.285731 0.0481,-0.595334 0,-0.883436 -0.26653,-1.599277 -0.30112,-3.332162 0.049,-4.907975 0.0542,-0.243813 -0.0509,-0.491583 0,-0.736196 0.089,-0.427772 0.35216,-0.8461671 0.44171,-1.2760743 0.096,-0.4604545 0.2117,-0.9390645 0.34356,-1.3742331 0.18655,-0.6155936 -0.081,-1.5191009 0.0982,-2.1104295 0.0815,-0.2688314 0.0776,-0.5140574 0.14716,-0.785276 0.0482,-0.1881836 -0.0613,-0.4541566 0,-0.6380369 0.11371,-0.341438 0.15959,-0.7193443 0.2454,-1.0797546 0.11496,-0.4831646 -0.0587,-1.0997634 0.0982,-1.5705521 0.11182,-0.33536 0.17556,-0.6254253 0.2454,-0.9815951 0.0911,-0.46522896 0.49998,-0.81280785 0.63804,-1.22699386 0.0243,-0.0727166 -0.0223,-0.17202258 0,-0.24539878 0.14464,-0.47702376 0.69734,-0.92717546 0.98159,-1.32515336 0.10491,-0.1465325 0.74554,-0.9352638 0.78528,-1.0306749 0.0682,-0.1633845 0.1192,-0.2901909 0.2454,-0.4417177 0.0963,-0.1155927 0.26616,-0.1783677 0.34355,-0.2944786 0.10979,-0.1648608 0.0682,-0.4294361 0.2454,-0.588957 0.53625,-0.4826621 1.0112,-1.0248952 1.57055,-1.4723927 0.56935,-0.4554915 1.67916,-1.2203033 2.35583,-1.4233129 1.22217,-0.3666768 2.54749,-0.453277 3.77914,-0.6380368 0.26521,-0.039735 0.48011,-0.183943 0.7362,-0.2453987 0.72737,-0.1745826 1.46773,-0.3988889 2.20859,-0.5889571 -0.0281,-0.2069359 -0.0311,-0.4036319 -0.0982,-0.588957 -0.0503,-0.1389939 -0.15501,-0.2507858 -0.19632,-0.3926381 -0.0887,-0.3052369 -2.5e-4,-0.6487479 -0.19632,-0.9325149 -0.0215,-0.155014 -0.0141,-0.338329 -0.049,-0.490798 -0.076,-0.325402 -0.26195,-0.594469 -0.29448,-0.932515 -0.0356,-0.154385 -0.0542,-0.338611 -0.0982,-0.490798 -0.0956,-0.331386 -0.12391,-0.433629 -0.14716,-0.490797 -0.0126,-0.06518 -0.0203,-0.09266 0,-0.049 0.0214,0.106326 0.0415,0.267355 -0.0982,-0.343559 -0.3963,-0.812148 -0.0616,-0.04696 -0.34356,-0.883435 -0.20544,-0.609139 -0.5168,-1.228737 -0.63803,-1.865031 -0.26155,-0.631582 -0.16334,-0.276574 -0.39264,-0.932515 -0.20034,-0.50041 -0.44247,-0.99405 -0.68712,-1.472393 -0.0832,-0.162788 -0.1181,-0.325497 -0.19632,-0.490797 -0.52142,-0.950876 -1.26194,-1.767814 -1.81595,-2.699387 -0.44663,-0.867353 0.009,-0.02576 -0.53987,-0.883436 -0.093,-0.145119 -0.14952,-0.298483 -0.2454,-0.441717 -0.18948,-0.282951 -0.29866,-0.349637 -0.34356,-0.392638 0.0396,0.04507 0.0234,0.0016 0,-0.049 -0.0449,-0.05434 -0.1335,-0.133025 -0.34356,-0.441717 -0.11716,-0.17218 -0.23744,-0.360678 -0.34356,-0.539878 -0.33569,-0.558064 -0.73276,-1.088864 -1.03067,-1.668711 -0.18115,-0.352605 -0.21164,-0.618814 -0.44172,-0.932516 -0.0672,-0.09172 -0.16615,-0.163683 -0.2454,-0.245398 -0.063,-0.07492 -0.13334,-0.121247 -0.19632,-0.19632 -0.0531,-0.07381 -0.0898,-0.174755 -0.14716,-0.245398 -0.4331,-0.533218 -1.01081,-0.928668 -1.37423,-1.521473 -0.0746,-0.128314 -0.74393,-1.340136 -0.78528,-1.423313 -0.51572,-1.037805 -0.78914,-2.181575 -0.83435,-3.337423 -0.33623,-1.551156 2.65764,-2.189193 2.99386,-0.638037 0.12345,0.183299 0.29936,0.339522 0.39264,0.539878 0.10837,0.232755 0.10491,0.496278 0.19632,0.736196 0.10004,0.262628 0.23145,0.527548 0.34356,0.785276 0.27619,0.635006 0.56698,1.27532 0.83435,1.91411 0.17281,0.257775 0.31903,0.559227 0.53988,0.785277 0.0644,0.06596 0.12816,0.134282 0.19632,0.196319 0.12721,0.116063 0.48553,0.479332 0.58895,0.588957 0.18831,0.327004 0.47934,0.570628 0.68712,0.883435 0.11387,0.171426 0.18354,0.366536 0.29448,0.539877 0.35081,0.548107 0.74804,1.058097 1.07975,1.619632 0.31264,0.492384 0.64858,1.011719 0.93252,1.521473 0.0872,0.15627 0.15454,0.336648 0.2454,0.490797 0.0592,0.100359 0.47594,0.695409 0.53988,0.785276 0.17442,0.501321 0.58192,0.863521 0.88343,1.276074 0.11073,0.151558 0.19411,0.332219 0.29448,0.490798 0.57226,0.904135 0.14685,0.100672 0.68712,1.079754 0.79022,1.008059 0.93234,2.293022 1.42331,3.435583 0.16965,0.606956 0.31036,1.226962 0.53988,1.815951 0.0559,0.143705 0.13255,0.301405 0.19632,0.441718 0.0542,0.149202 0.093,0.292437 0.14716,0.441717 0.0454,0.174096 0.10193,0.316702 0.14716,0.490798 0.0718,0.168756 0.14527,0.363724 0.19632,0.539877 0.0187,-0.24843 0.21428,-0.560812 0.049,-0.785276 -0.057,-0.66059 -0.44508,-1.221685 -0.58896,-1.86503 -0.0462,-0.162882 -0.0913,-0.330979 -0.14716,-0.490798 -0.0548,-0.156898 -0.1547,-0.280752 -0.19632,-0.441718 -0.0437,-0.168457 -0.0141,-0.369315 -0.049,-0.539877 -0.0873,-0.432059 -0.28611,-0.848444 -0.39264,-1.276074 -0.0454,-0.340228 -0.0952,-0.669997 -0.2454,-0.981595 -0.0474,-0.09816 -0.10617,-0.144334 -0.14716,-0.245399 -0.11465,-0.282463 -0.15187,-0.42975 -0.14716,-0.441717 -0.006,-0.01099 0.0741,0.156898 -0.0982,-0.196319 -0.43655,-0.675448 -0.71518,-1.45295 -0.98159,-2.208589 -0.35514,-0.708822 -0.4473,-1.555208 -0.93252,-2.208589 -0.4374,-1.113836 -0.91838,-2.156745 -1.42331,-3.239264 -0.47563,-1.097612 -0.91376,-2.214447 -1.32516,-3.337423 -0.22586,-0.488835 -0.45341,-0.988349 -0.68711,-1.472393 -0.70209,-1.454127 0.20819,0.39735 -0.53988,-1.177914 -0.11025,-0.232159 -0.22352,-0.459858 -0.34356,-0.687117 -0.0446,-0.116535 -0.60461,-1.632542 -0.63803,-1.717791 -0.40378,-1.030282 -0.80174,-2.013401 -0.78528,-3.141104 -0.42358,-1.628867 2.76661,-2.463223 3.19018,-0.834356 0.44309,0.626116 0.65918,1.404011 0.93252,2.110429 0.11214,0.289877 0.24317,0.540192 0.34356,0.834356 0.18176,0.532574 0.31624,1.084655 0.4908,1.619632 0.25345,0.586743 0.41925,1.21633 0.63803,1.815951 0.0584,0.160086 0.0721,0.337904 0.14716,0.490797 0.18892,0.383828 0.30833,0.500425 0.34356,0.539878 -0.0193,-0.02529 -0.009,0.0256 0,0.049 0.0237,0.03801 0.0799,0.10664 0.19632,0.392638 0.0663,0.186786 0.12046,0.356829 0.19632,0.539877 0.0776,0.187053 0.16569,0.353751 0.2454,0.539878 0.22883,0.534333 0.24292,0.641052 0.44172,1.177914 0.20081,0.542343 0.18981,0.514497 0.44171,1.030675 0.55364,1.063656 0.92713,2.197642 1.42332,3.288343 0.17731,0.40748 0.28838,0.597014 0.39263,1.030675 0.0385,0.160275 0.062,0.329957 0.0982,0.490797 0.0845,0.37552 0.23376,0.759504 0.34356,1.128835 0.006,0.08701 -0.0198,0.160353 0,0.245399 0.0496,0.213736 0.1357,0.252906 0.2454,0.441717 0.17227,0.296254 0.35718,0.616866 0.4908,0.932516 0.46787,0.77045 0.67681,1.663293 0.98159,2.503067 0.14292,0.847863 0.39899,1.646614 0.68712,2.453988 0.1357,-0.74207 0.17857,-1.506882 0.2454,-2.257669 0.10303,-0.690917 0.0781,-1.367338 0.14716,-2.061349 0.0157,-0.158595 0.0379,-0.331795 0.049,-0.490798 0.011,-0.164971 0.0488,-0.325403 0.049,-0.490798 0.0259,-1.149597 -0.0418,0.178902 0.049,-0.932515 0.0639,-0.78124 -0.016,-0.07099 0,-0.834356 0.0265,-1.30059 0.0408,0.455806 0,-0.834356 -0.0416,-1.03647 -0.42843,-2.012536 -0.53987,-3.042944 -0.0581,-0.225469 -0.10319,-0.458476 -0.14716,-0.687117 -0.0225,-0.116692 -0.18429,-1.369019 -0.19632,-1.472393 -0.0297,-0.255261 -0.0876,-0.528506 -0.0982,-0.785276 -0.0196,-0.481421 0.0953,-0.990531 0.049,-1.472392 -0.0344,-0.705084 0.003,-0.300808 0,-0.343559 0.0126,-0.03188 0.005,-0.241378 0,-0.932515 -0.002,-0.214632 -0.0482,-0.423405 -0.049,-0.638037 -0.003,-0.675274 0.19807,-1.382478 0.14716,-2.061349 0.13648,-0.822043 0.24816,-1.633249 0.39264,-2.453988 0.0485,-0.276323 0.0782,-0.562383 0.14716,-0.834356 0.10601,-0.41783 0.30977,-0.801437 0.39263,-1.226994 0.0712,-0.534663 0.52736,-0.814347 1.03068,-0.883435 z m 48.29448,0.687116 c 0.71562,-0.08795 1.47982,0.193712 1.57055,0.932516 0.56014,1.410371 0.68022,2.914222 0.68712,4.417178 0.002,0.393658 -0.011,0.786108 -0.049,1.177914 -0.0339,0.348552 -0.13303,0.686221 -0.19632,1.030675 -0.0641,0.290269 -0.2367,1.306228 -0.34356,1.619631 -0.0702,0.205947 -0.21746,0.385461 -0.29448,0.588957 -0.0666,0.175698 -0.0793,0.364714 -0.14716,0.539878 -0.0945,0.243797 -0.16582,0.347814 -0.19632,0.392638 -0.008,-0.03989 -0.0229,-0.06455 -0.14716,0.441718 -0.005,0.159552 0.025,0.333114 0,0.490797 -0.0273,0.17353 -0.11606,0.317911 -0.14716,0.490798 -0.0369,0.204391 -0.0242,0.431839 -0.049,0.638037 -0.0799,0.661516 -0.18176,1.317159 -0.34356,1.96319 -0.23023,0.533909 -0.22247,1.111134 -0.34356,1.668711 -0.0349,0.161092 -0.069,0.279464 -0.0982,0.441718 -0.0247,0.137266 -0.0401,0.302536 -0.049,0.441718 -0.0308,0.135696 -0.0675,0.256879 -0.0982,0.392638 0.0578,0.421489 -0.1068,0.819608 -0.14716,1.226994 -0.0141,0.134596 0.016,0.258434 0,0.392638 -0.0157,0.122974 -0.0639,0.273559 -0.0982,0.392638 -0.009,0.135224 -0.0405,0.257366 -0.049,0.392638 -0.009,0.415851 -0.0832,0.859359 -0.049,1.276074 0.0126,0.158939 0.0859,0.282715 0.0982,0.441717 0.0223,0.289516 -0.0253,0.697011 -0.049,0.981595 -0.0451,0.789124 -0.12549,1.564726 -0.0982,2.355829 -0.0429,0.562053 -0.0141,0.488646 0,0.392638 0.009,0.05371 0.0448,0.128 0.049,0.392638 0.005,0.284568 -0.0971,0.59882 -0.0982,0.883435 -3.5e-4,0.08151 -0.003,0.163935 0,0.245399 0.0578,-0.152815 0.14779,-0.285039 0.19632,-0.441718 0.39352,-0.727715 0.51404,-1.614936 0.88343,-2.355828 0.67077,-1.638557 -0.27335,0.722344 0.29448,-1.030675 0.0605,-0.186424 0.17303,-0.357772 0.2454,-0.539877 0.24879,-0.626132 0.44847,-1.253693 0.7362,-1.865031 0.55605,-1.206953 1.22138,-2.371204 1.76687,-3.582822 0.20177,-0.456873 0.33844,-0.94888 0.4908,-1.423313 0.0564,-0.175415 0.10522,-0.311424 0.14716,-0.490797 0.0463,-0.197529 0.0537,-0.440116 0.0982,-0.638037 0.052,-0.231845 0.12862,-0.41026 0.19632,-0.638037 0.21961,-0.529087 0.44765,-1.099229 0.68711,-1.619632 0.48037,-1.043867 1.03404,-2.009506 1.76687,-2.895705 0.59926,-1.207205 2.95509,-0.07837 2.35583,1.128834 -0.0649,0.186299 -0.13569,0.401245 -0.19632,0.588957 -0.0806,0.249121 -0.1525,0.491379 -0.2454,0.736196 -0.38742,1.021299 -0.94533,1.979289 -1.37423,2.993865 -0.46063,0.980669 -0.65575,2.049885 -0.93251,3.092025 -0.45722,1.328797 -1.09956,2.595416 -1.66872,3.877301 -0.29647,0.778601 -0.72594,1.48348 -1.03067,2.257668 -0.40392,1.026168 0.0748,0.03251 -0.39264,0.981595 -0.0371,0.106327 -0.0611,0.188215 -0.0982,0.294479 0.10099,-0.06251 0.19279,-0.134753 0.29448,-0.196319 0.16766,-0.13067 0.55018,-0.381707 0.68712,-0.539877 0.11606,-0.133968 0.18699,-0.300855 0.29447,-0.441718 0.13099,-0.171756 0.26282,-0.3181 0.39264,-0.490798 0.90653,-1.205728 -0.0743,-0.08999 1.03068,-1.325153 0.6742,-0.785653 1.3733,-1.483339 2.15951,-2.159509 0.24849,-0.213705 0.51547,-0.451989 0.78527,-0.638037 0.53964,-0.372127 0.79445,-0.467224 1.37424,-0.687117 1.09407,-0.815964 2.66463,1.343545 1.57055,2.15951 -1.15484,0.992793 -2.21668,2.013102 -3.23927,3.141104 -0.18824,0.20213 -0.39865,0.437854 -0.58895,0.638037 -0.17389,0.182922 -0.32035,0.353751 -0.4908,0.539877 -0.22613,0.246954 -0.67831,0.747174 -0.93252,0.981595 -0.16217,0.149517 -0.79371,0.647177 -0.98159,0.785276 -0.71751,0.68853 -1.6062,1.120589 -2.35583,1.766871 -0.42771,0.379147 -0.13585,0.09989 -0.44172,0.539878 -0.0635,0.09109 -0.14386,0.147474 -0.19632,0.245398 -0.0493,0.09188 -0.0526,0.24975 -0.0982,0.343559 -0.10585,0.218322 -0.26424,0.383152 -0.39263,0.588957 -0.0765,0.281443 -0.21311,0.528679 -0.34356,0.7852758 0.26951,0.042876 0.56455,0.1066405 0.83435,0.1471607 0.22343,0.033296 0.41469,0.015706 0.63804,0.049001 1.03782,0.1556418 2.03928,0.2873168 3.09203,0.3926381 0.21095,0.021045 0.36023,0.1866601 0.49079,0.2453987 0.12298,0.055283 0.22921,0.029683 0.34356,0.09816 0.41348,0.2481001 0.8197,0.6223469 1.227,0.785276 0.73688,0.2947613 1.57083,0.4517065 2.20858,0.8343559 0.096,0.057639 0.23373,0.331889 0.34356,0.4417177 0.31272,0.3127284 1.06765,0.8518047 1.27608,1.2269939 0.20249,0.3645409 1.00044,1.2681895 1.32515,1.5214724 0.75123,0.585973 1.81809,1.1718989 2.25767,1.9631902 0.1236,0.2224059 -0.0441,0.4845624 0.049,0.7361963 0.12203,0.32972173 0.18184,0.69283338 0.29448,1.03067486 0.0485,0.14590429 -0.0658,0.35276171 0,0.49079754 0.15564,0.32700466 0.25802,0.8143627 0.39264,1.1779141 0.0779,0.2102184 0.13224,0.3060221 0.24539,0.4417178 0.003,0.00314 0.1795,0.6808972 0.19632,0.7361963 0.14324,0.472642 0.63821,0.7859514 0.78528,1.2269939 0.13664,0.4097099 0.14355,0.8685624 0.29448,1.2760736 0.0501,0.1352245 -0.0457,0.3046243 0,0.4417178 0.28945,0.868374 0.64286,1.7881993 0.98159,2.601227 0.15078,0.3619966 0,1.0755769 0,1.4723926 0,0.5290558 0.11355,2.6229948 0,2.8957058 -0.12627,0.303085 -0.2521,0.65236 -0.34355,0.981595 -0.0295,0.10664 0.0257,0.235755 0,0.343558 -0.0836,0.35094 -0.21627,0.678855 -0.29448,1.030675 -0.0278,0.124702 0.0317,0.268784 0,0.392638 -0.12015,0.468464 -0.25305,0.934683 -0.34356,1.423313 -0.0426,0.229237 0.0182,0.514308 -0.049,0.736196 -0.20025,0.66081 -0.32347,1.352245 -0.44172,2.06135 -0.0655,0.393046 -0.0887,0.313089 -0.0982,0.245398 -0.0126,0.0311 -0.0209,0.09313 -0.049,0.245399 -0.13413,0.724512 -0.36991,1.396567 -0.53988,2.11043 -0.23765,0.99796 -0.0232,2.288624 -0.2454,3.288343 -0.26388,1.187526 -0.3384,2.42922 -0.58895,3.631902 -0.12848,0.616976 -0.008,1.287806 -0.0982,1.914111 -0.13162,0.908234 -0.35479,1.801344 -0.4908,2.699386 -0.1525,1.006111 0.0611,2.039425 -0.0982,3.042945 -0.12329,0.776748 -0.20865,1.586682 -0.34356,2.355828 -0.0872,0.496295 0.079,1.023639 0,1.521472 -0.0754,0.474511 -0.081,0.946242 -0.14716,1.423313 -0.0371,0.267073 0.0404,0.567818 0,0.834356 -0.12313,0.8124 -0.22578,1.591865 -0.34356,2.404908 -0.13664,0.942488 0.0715,2.077825 -0.0982,2.993865 -0.26938,1.454724 -0.78612,2.810393 -1.17791,4.220859 -0.0821,0.293159 -0.0389,0.630168 -0.0982,0.932515 -0.0916,0.467397 -0.42287,0.9178 -0.53988,1.374234 -0.0232,0.09078 0.0295,0.156427 0,0.245398 -0.0306,0.09204 -0.0364,0.136167 -0.049,0.147161 -0.0126,-0.0278 -0.0404,-0.06109 -0.0982,0.147161 -0.10224,0.368106 -0.17513,0.749797 -0.2454,1.128834 -0.0394,0.212873 0.047,0.475925 0,0.687117 -0.11104,0.499702 -0.22578,0.977763 -0.34356,1.472392 -0.0806,0.340889 -0.0221,0.737626 -0.0982,1.079755 -0.0653,0.294023 -0.17934,0.586099 -0.24539,0.883435 -0.0341,0.153129 0.0389,0.338894 0,0.490798 -0.19475,0.759566 -0.31631,1.516996 -0.44172,2.306749 -0.0565,0.356593 -0.1915,0.674395 -0.2454,1.030674 -0.16687,1.101366 -0.17716,2.239152 -0.34356,3.337424 -0.0727,0.475013 -0.0157,0.950608 -0.0982,1.423313 -0.0548,0.312429 -0.18199,0.579078 -0.2454,0.883435 -0.0613,0.293882 0.0471,0.635713 0,0.932515 -0.0598,0.376399 -0.085,0.754588 -0.14716,1.128835 -0.0342,0.20524 0.0424,0.43432 0,0.638037 -0.13444,0.64479 -0.17436,1.314772 -0.29448,1.96319 -0.0264,0.142449 0.0314,0.300258 0,0.441718 -0.14056,0.632759 -0.37036,1.536534 -0.58895,2.159509 -0.14654,0.41772 -0.40637,0.894272 -0.4908,1.325153 -0.0889,0.453638 -0.1816,0.986009 -0.34356,1.423313 -0.1692,0.456795 -0.49003,0.899157 -0.58896,1.374233 -0.12941,0.621499 -0.1192,1.30833 -0.34356,1.914107 -0.17594,0.475077 -0.35153,1.29957 -0.68711,1.668712 -0.30125,0.331387 -0.43844,0.706717 -0.68712,1.079755 -0.11967,0.179608 -0.24058,0.245964 -0.34356,0.441718 -0.0836,0.158939 -0.0636,0.331857 -0.14716,0.490797 -0.4322,0.821242 -0.86173,1.787037 -1.03067,2.699387 -0.18146,0.979946 -0.75164,1.974828 -1.03068,2.895705 -0.10067,0.332046 -0.14543,0.678871 -0.19632,1.030675 -0.0729,0.503001 -0.19866,0.983401 -0.29447,1.472393 -0.0466,0.237938 0.038,0.496577 0,0.736196 -0.0635,0.399643 -0.14057,0.825058 -0.19632,1.226994 -0.0914,0.65302 0.0157,1.363537 -0.0982,2.01227 -0.0801,0.456057 -0.0743,0.915258 -0.14716,1.374228 -0.0664,0.4182 -0.24058,0.82549 -0.34356,1.227 -0.0768,0.29966 -0.38154,0.5495 -0.58896,0.7362 -0.1536,0.13836 -0.26779,0.36039 -0.44172,0.49079 -0.55011,0.41252 -1.3134,0.34356 -1.96319,0.34356 -0.22167,0 -0.52217,0.0642 -0.73619,0 -0.43776,-0.1313 -0.9644,-0.22063 -1.37424,-0.34356 -0.28841,-0.0865 -1.4546,-1.27307 -1.61963,-1.61963 -0.096,-0.20153 -1.00994,-0.80795 -1.22699,-0.98159 -0.4464,-0.35715 -0.81121,-1.152067 -1.17792,-1.619636 -0.25975,-0.331198 -0.58079,-0.639278 -0.83435,-0.981595 -0.20488,-0.27659 -0.3603,-0.596072 -0.53988,-0.883436 -0.20826,-0.333224 -0.39091,-0.635948 -0.63804,-0.932515 -0.20883,-0.250629 -1.01214,-2.265428 -1.12883,-2.650307 -0.13742,-0.453858 -0.13852,-0.991364 -0.2454,-1.472393 -0.0353,-0.15905 0.0473,-0.335156 0,-0.490797 -0.18537,-0.611793 -0.31833,-1.247945 -0.44172,-1.914111 -0.0696,-0.380419 0.005,-0.806808 -0.0982,-1.177914 -0.22777,-0.820048 -0.71903,-1.642342 -1.07975,-2.453988 -0.2233,-0.502466 -0.34124,-0.989306 -0.58896,-1.472392 -0.13805,-0.269366 -0.20084,-0.5534 -0.29448,-0.834356 -0.0477,-0.143391 -0.20162,-0.297306 -0.2454,-0.441718 -0.13695,-0.451986 -0.23481,-0.899012 -0.39263,-1.32515 -0.0325,-0.08795 0.0251,-0.155014 0,-0.245399 -0.12973,-0.467176 -0.27427,-0.971182 -0.44172,-1.423313 -0.0688,-0.186094 0.0495,-0.445361 0,-0.638036 -0.26751,-1.043318 -0.26316,-2.167912 -0.44172,-3.239264 -0.0697,-0.418207 -0.14905,-0.822074 -0.2454,-1.226994 -0.0324,-0.13601 -0.16594,-0.256157 -0.19632,-0.392638 -0.21446,-0.965167 -0.37428,-1.978629 -0.58895,-2.944785 -0.0953,-0.429091 -0.30648,-0.836712 -0.39264,-1.276074 -0.13853,-0.706387 -0.2931,-1.397289 -0.44172,-2.11043 -0.0556,-0.266742 -0.1689,-0.532589 -0.2454,-0.785276 -0.0345,-0.114179 0.0229,-0.226552 0,-0.343558 -0.17389,-0.886859 -0.28524,-1.807407 -0.44172,-2.699386 -0.11323,-0.645544 -0.46339,-1.224638 -0.58895,-1.865031 -0.0923,-0.470804 -0.23405,-0.963047 -0.34356,-1.423313 -0.027,-0.112923 0.0268,-0.230761 0,-0.343558 -0.0828,-0.347469 -0.2655,-0.679154 -0.34356,-1.030675 -0.052,-0.234201 -0.0426,-0.502765 -0.0982,-0.736196 -0.0462,-0.193869 -0.19929,-0.346009 -0.2454,-0.539878 -0.1236,-0.519428 -0.0594,-1.092209 -0.14716,-1.619632 -0.11905,-0.713925 -0.31007,-1.399424 -0.44172,-2.110429 -0.14543,-0.785559 0.0553,-1.67102 -0.0982,-2.453988 -0.18512,-0.944153 -0.31511,-1.897934 -0.49079,-2.846626 -0.0532,-0.287976 0.0564,-0.596087 0,-0.883435 -0.0806,-0.41004 -0.038,-0.812195 -0.0982,-1.226994 -0.0702,-0.484264 -0.0771,-0.988568 -0.14716,-1.472393 -0.0305,-0.21003 -0.16454,-0.379147 -0.19632,-0.588957 -0.0256,-0.168473 0.0295,-0.372048 0,-0.539877 -0.22605,-1.28812 -0.0982,-2.704978 -0.0982,-4.02454 0,-0.32578 0.0509,-0.709497 0,-1.030675 -0.12895,-0.812384 -0.14716,-1.675606 -0.14716,-2.503067 0,-0.836492 0.15234,-1.827322 0,-2.650307 -0.10162,-0.549096 -0.11261,-1.116191 -0.19632,-1.668712 -0.0859,-0.56678 -0.261,-1.098475 -0.34356,-1.668711 -0.027,-0.185482 0.027,-0.403459 0,-0.588957 -0.14496,-0.999767 -0.46427,-1.954238 -0.63804,-2.944786 -0.13114,-0.747488 0,-1.644179 0,-2.404908 l 0,-5.791411 c 0,-0.390407 0.0969,-0.897963 0,-1.276073 -0.19143,-0.746625 -0.37115,-1.547434 -0.53988,-2.306749 -0.0416,-0.18688 0.0369,-0.400977 0,-0.588957 -0.10805,-0.55084 -0.24665,-1.044715 -0.39263,-1.570552 -0.0806,-0.291212 -0.0363,-0.635665 -0.0982,-0.932515 -0.0495,-0.237703 -0.18231,-0.459826 -0.2454,-0.687117 -0.0851,-0.306069 0,-0.761639 0,-1.079754 l 0,-2.650307 c 0,-0.2130768 0.0617,-0.5326527 0,-0.7361963 -0.11528,-0.3801364 -0.1024,-0.7834542 -0.19632,-1.1779141 -0.20763,-0.8719862 -0.14716,-1.7823882 -0.14716,-2.6993865 0,-0.2907249 -0.0716,-0.7019269 0,-0.9815951 0.0978,-0.3814714 0.23949,-0.7541163 0.34356,-1.1288343 0.10727,-0.3864187 0.4852,-0.67536887 0.58895,-1.07975463 0.11324,-0.44137227 0.35203,-1.03238675 0.58896,-1.42331289 0.1079,-0.17806918 0.37208,-0.35167808 0.44172,-0.53987728 0.0306,-0.082768 0.006,-0.1347534 0,-0.1471608 -0.008,0.00628 -0.047,0.031411 0.049,-0.098159 0.40552,-0.547463 0.92275,-1.0405379 1.27607,-1.5705521 0.1145,-0.1716928 0.34061,-0.1615156 0.44172,-0.3435583 0.32869,-0.5916741 1.21481,-1.4417669 1.76687,-1.7177914 0.17187,-0.085909 0.20787,-0.3247117 0.34356,-0.392638 0.27775,-0.1388369 0.58469,-0.1557988 0.88344,-0.2453988 0.3531,-0.1060123 1.14546,-0.5481855 1.52147,-0.7361963 0.8104,-0.4052182 1.56479,-0.8767765 2.40491,-1.1288344 0.28921,-0.086695 0.58666,-0.3421762 0.83435,-0.4907975 0.29833,-0.1789959 0.62339,-0.2689414 0.93252,-0.3926381 0.60488,-0.2419592 1.31202,-0.834827 1.96319,-0.9325153 -0.0408,-0.083867 -0.0548,-0.1630076 -0.0982,-0.2453988 -0.1684,-0.3202351 -0.37803,-0.6580141 -0.53988,-0.9815951 -0.15564,-0.311299 -0.28647,-0.620996 -0.44172,-0.932515 -0.34054,-0.906114 -0.8796,-1.69684 -1.47239,-2.453988 -0.31899,-0.360332 -0.72938,-0.538511 -1.12883,-0.785276 -0.0901,-0.05136 -0.21162,-0.08481 -0.29448,-0.147161 -0.0922,-0.06958 -0.15985,-0.167562 -0.2454,-0.245398 -0.42105,-0.383042 -0.84312,-0.755279 -1.22699,-1.177914 -0.67507,-0.646958 -1.23614,-1.383201 -1.81596,-2.11043 -0.20593,-0.0256 -0.4469,-0.0413 -0.63803,-0.09816 -0.12408,-0.03691 -0.22037,-0.107583 -0.34356,-0.147161 -0.85129,-0.273794 0.0272,0.07177 -0.78528,-0.294479 -0.51922,-0.181446 -0.4528,-0.166274 -0.39263,-0.14716 -0.0308,-0.02623 -0.11465,-0.07727 -0.34356,-0.196319 -0.3367,-0.175258 -0.35011,-0.06486 -0.63804,-0.294479 -0.18653,-0.148731 -0.33132,-0.362405 -0.4908,-0.539877 -0.4194,-0.232253 -0.22195,-1.021849 -0.58895,-1.226994 -0.33475,-0.250802 -0.76348,-0.32344 -1.07976,-0.588957 -0.073,-0.01257 -0.128,-0.01979 -0.19632,-0.049 -0.0625,-0.02686 -0.0889,-0.06314 -0.14716,-0.09816 -0.011,-0.0063 -0.31786,-0.176216 -0.34356,-0.196319 -0.0606,-0.04743 -0.0944,-0.09125 -0.14716,-0.147161 -0.0658,-0.04931 -0.13067,-0.09784 -0.19632,-0.14716 -0.1404,-0.206182 -0.35362,-0.482945 -0.39263,-0.736197 -0.0199,-0.12957 -0.005,-0.261481 0,-0.392638 0.003,-1.134724 1.96779,-1.293098 2.45398,-0.441718 -0.0192,-0.04822 -0.0188,-0.107111 -0.049,-0.14716 0.011,0.01099 0.0456,-0.0016 0.049,0 0.0426,0.01618 0.1035,-0.01257 0.14716,0 0.085,0.02387 0.35462,0.22173 0.39264,0.245399 0.78679,0.345442 1.40186,0.938373 1.91411,1.619631 0.0126,0.03235 0.17447,0.511419 0.2454,0.785276 0.29575,0.06015 1.08236,0.444859 1.27607,0.490798 0.30937,0.09879 0.58942,0.209669 0.88344,0.343558 0.36135,0.02639 0.75118,0.147475 0.9816,0.294479 0.22407,0.14292 0.37517,0.445613 0.63803,0.539877 0.66299,0.757807 -0.25944,-0.240169 0.53988,0.588957 0.46581,0.483196 0.87607,1.023875 1.32515,1.521473 0.51224,0.769696 -0.051,0.03974 0.4908,0.638036 0.17438,0.192597 0.33076,0.390204 0.58896,0.490798 0.3393,0.148103 0.72858,0.328811 1.03067,0.539877 0.0298,0.02073 0.0697,0.02654 0.0982,0.049 -0.43404,-0.665678 -0.75165,-1.41915 -1.03067,-2.159509 -0.20116,-0.429185 -0.40513,-0.839146 -0.58896,-1.276073 -0.0589,-0.139937 -0.0694,-0.311504 -0.14716,-0.441718 -0.18456,-0.308519 -0.51932,-0.527266 -0.63804,-0.883436 -0.57504,-0.672856 -0.47273,-0.527799 -0.39264,-0.441718 0.0463,0.02686 -0.0292,-0.09172 -0.53987,-0.785276 -0.17771,-0.241315 -0.40739,-0.448675 -0.58896,-0.687116 -0.47695,-0.626336 -0.78945,-1.357727 -1.12883,-2.06135 -0.77311,-1.33354 1.8281,-2.805917 2.60122,-1.472392 0.80931,0.719344 1.46792,1.588283 2.11043,2.453987 0.17151,0.231076 0.33511,0.44511 0.4908,0.687117 0.14261,0.22162 0.26658,0.45568 0.39264,0.687116 0.29627,0.46614 0.52389,0.964963 0.73619,1.472393 -0.009,-0.246781 -0.0141,-0.492101 -0.049,-0.736196 -0.0276,-0.19244 -0.10538,-0.399125 -0.14716,-0.588957 -0.14103,-1.407498 0.0707,0.303415 -0.14716,-1.079755 -0.11653,-0.74028 -0.10931,-1.526969 -0.29448,-2.257669 -0.10381,-0.567346 -0.21681,-1.098177 -0.29448,-1.668711 -0.13365,-0.981438 -0.0336,-0.12109 -0.19631,-1.079755 -0.0292,-0.171222 -0.028,-0.318429 -0.049,-0.490797 -0.0666,-0.53036 -0.11857,-1.090827 -0.19632,-1.619632 -0.0653,-0.444938 -0.19521,-0.878253 -0.24539,-1.325154 -0.0291,-0.257476 -0.0393,-0.526386 -0.049,-0.785276 -0.0986,-1.484015 -0.25865,-3.090564 0,-4.564417 0.035,-0.199931 0.092,-0.393627 0.14717,-0.588957 0,-1.596168 3.09202,-1.596168 3.09202,0 0.2118,0.745211 0.25198,1.492103 0.29448,2.257669 0.0506,0.911611 0.0843,1.835206 0.0982,2.748466 0.003,0.665286 0.0477,1.346968 0.049,2.01227 3.6e-4,0.180393 -0.009,0.359703 0,0.539877 0.003,0.05984 0.0886,0.861825 0.0982,0.932515 0.0157,0.155171 0.0223,0.337245 0.049,0.490798 0.0284,0.162803 0.0584,0.281286 0.0982,0.441718 0.0369,0.173373 0.11669,0.365232 0.14716,0.539877 0.0999,0.572655 0.16792,1.149236 0.29448,1.717792 0.1057,1.139985 0.33409,2.261359 0.53988,3.386503 0.17315,1.278853 0.38637,2.553984 0.58895,3.82822 0.39553,1.368517 0.39669,2.785296 0.68712,4.17178 0.003,0.190853 -0.0157,0.3987 0,0.588957 0.008,0.102714 0.0312,0.192816 0.049,0.294478 -0.006,-0.606531 -0.009,-1.207393 0,-1.815951 0.0378,-0.375723 0.0875,-0.751022 0.049,-1.128834 -0.0126,-0.129414 -0.10098,-0.262581 -0.0982,-0.392638 0.0324,-1.52353 0.17421,0.749467 0.049,-0.834356 0.0391,-1.123887 0.0512,0.284506 0,-0.981595 -0.0275,-0.678777 0.0591,-1.342272 0.14716,-2.01227 0.019,-0.274831 0.008,-0.561975 0.049,-0.834356 0.0196,-0.129727 0.0813,-0.262549 0.0982,-0.392638 0.0182,-0.139936 -0.0126,-0.252136 0,-0.392638 0.0237,-0.272883 0.10161,-0.558048 0.0982,-0.834356 0.0792,-1.03859 0.3816,-2.048942 0.44172,-3.092024 0.20677,-1.334828 0.42333,-2.674352 0.78528,-3.97546 0.14151,-0.326298 0.31898,-0.647806 0.44172,-0.981595 0.13082,-0.355668 0.0718,-0.460015 0.14716,-0.834356 0.18702,-0.928699 0.0985,-0.04853 0.19632,-1.177914 0.0199,-0.63777 0.0333,-1.276215 0.049,-1.914111 0.0335,-1.353612 -0.0485,-2.73452 0.19632,-4.073619 -0.0908,-0.738804 0.60953,-1.188186 1.32515,-1.276074 z"
       style="color:#000000;fill:url(#linearGradient3854);fill-opacity:1;fill-rule:nonzero;stroke:none;stroke-width:15;marker:none;visibility:visible;display:inline;overflow:visible;enable-background:accumulate"
       inkscape:connector-curvature="0" />
  </g>
</svg>
