<?xml version="1.0" encoding="UTF-8" standalone="no"?>
<!-- Created with Inkscape (http://www.inkscape.org/) -->

<svg
   xmlns:osb="http://www.openswatchbook.org/uri/2009/osb"
   xmlns:dc="http://purl.org/dc/elements/1.1/"
   xmlns:cc="http://creativecommons.org/ns#"
   xmlns:rdf="http://www.w3.org/1999/02/22-rdf-syntax-ns#"
   xmlns:svg="http://www.w3.org/2000/svg"
   xmlns="http://www.w3.org/2000/svg"
   xmlns:sodipodi="http://sodipodi.sourceforge.net/DTD/sodipodi-0.dtd"
   xmlns:inkscape="http://www.inkscape.org/namespaces/inkscape"
   width="167.92485"
   height="6.8137193"
   id="svg3124"
   version="1.1"
   inkscape:version="0.48.4 r9939"
   sodipodi:docname="New document 2"
   viewbox="0 0 167.92 6.81">
  <defs
     id="defs3126">
    <linearGradient
       gradientTransform="matrix(-2.1432928,0.47309872,-0.47309872,-2.1432928,1352.8053,-141.32121)"
       osb:paint="solid"
       id="linearGradient3836">
      <stop
         id="stop3838"
         offset="0"
         style="stop-color:#77a669;stop-opacity:1;" />
    </linearGradient>
  </defs>
  <sodipodi:namedview
     id="base"
     pagecolor="#ffffff"
     bordercolor="#666666"
     borderopacity="1.0"
     inkscape:pageopacity="0.0"
     inkscape:pageshadow="2"
     inkscape:zoom="0.35"
     inkscape:cx="83.962431"
     inkscape:cy="-22.307429"
     inkscape:document-units="px"
     inkscape:current-layer="layer1"
     showgrid="false"
     fit-margin-top="0"
     fit-margin-left="0"
     fit-margin-right="0"
     fit-margin-bottom="0"
     inkscape:window-width="463"
     inkscape:window-height="432"
     inkscape:window-x="125"
     inkscape:window-y="125"
     inkscape:window-maximized="0" />
  <metadata
     id="metadata3129">
    <rdf:RDF>
      <cc:Work
         rdf:about="">
        <dc:format>image/svg+xml</dc:format>
        <dc:type
           rdf:resource="http://purl.org/dc/dcmitype/StillImage" />
        <dc:title></dc:title>
      </cc:Work>
    </rdf:RDF>
  </metadata>
  <g
     inkscape:label="Layer 1"
     inkscape:groupmode="layer"
     id="layer1"
     transform="translate(-291.03757,-528.95532)">
    <path
       inkscape:connector-curvature="0"
       d="m 292.2816,528.97966 c 2.31183,0.57348 4.69138,0.45757 7.0412,0.6099 0.92411,0.0597 1.83892,0.22807 2.76276,0.29206 4.99108,0.34559 0.29476,-0.25513 4.74096,0.39345 0.99283,-0.10945 1.97034,0.13974 2.9573,0.14748 0.21478,0 1.28039,-0.13748 1.57114,-0.10562 1.38695,0.15177 0.0205,0.39123 1.6238,-0.0875 1.89767,0.50718 3.87576,0.465 5.81786,0.59611 3.52565,0.23799 0.6776,0.26335 4.44767,0.0845 2.42392,0.65513 4.92686,0.49294 7.39904,0.63014 2.25366,0.12499 4.48877,0.49649 6.70977,0.8756 1.83599,0.007 3.66345,0.26924 5.49423,0.34282 1.75533,0.0706 3.40236,-0.01 5.178,0.11803 3.30417,0.29031 0.25278,0.11037 3.61999,0.0456 0.61138,-0.012 1.22277,0.0576 1.83402,0.0401 2.08117,-0.0568 1.55634,-0.2645 3.61491,-0.14643 0.58169,0.0332 1.15709,0.13799 1.73563,0.20696 1.79093,-3.7e-4 3.53584,-0.70169 5.31696,-0.74844 0.60974,-0.0161 1.21203,0.1633 1.82194,0.16966 1.09166,0.012 2.78581,-0.24545 3.85392,-0.3828 2.6357,-0.0286 5.27123,-0.13194 7.90582,-0.16606 0.63015,-0.008 1.26243,0.0801 1.89041,0.0277 0.62888,-0.0527 1.24135,-0.2283 1.86202,-0.34241 0.60928,-0.0175 1.22023,-0.007 1.82784,-0.0521 4.61562,-0.36638 -0.92456,-0.13144 3.67716,-0.41737 1.84134,-0.11448 3.70283,-0.0743 5.5462,-0.0583 0.63934,-0.0843 1.27374,-0.22503 1.918,-0.25292 0.29281,-0.0125 3.55701,0.1816 3.83752,0.19539 2.04054,0.10032 4.06142,0.0534 6.10089,0.18667 0.7036,0.0443 1.40585,0.1426 2.11082,0.13388 0.71168,-0.009 1.41539,-0.19206 2.1271,-0.18602 5.1007,0.0429 -0.94313,0.36827 3.9522,0.47067 2.38919,-0.22282 1.21996,-0.19908 3.50714,-0.0941 0.52238,-0.0175 1.04564,-0.0875 1.56713,-0.0521 0.46987,0.0318 0.92387,0.18612 1.39021,0.25191 1.83288,0.25827 3.30197,0.37321 5.15031,0.17999 0.48011,-0.007 0.96174,-0.0555 1.44032,-0.0166 2.66661,0.21567 0.33112,0.36915 3.17565,0.35693 0.59971,0 1.19586,-0.10105 1.7954,-0.11654 1.24167,-0.0318 2.48442,0.008 3.72619,-0.0194 1.21329,0.007 2.42439,-0.12351 3.63759,-0.12171 0.55173,0 1.10226,0.074 1.65391,0.0652 0.49208,-0.008 0.97996,-0.10157 1.47189,-0.11522 2.43491,-0.0673 0.14959,0.21074 2.41791,-0.13577 0.34061,0.0383 0.6792,0.10599 1.02183,0.11424 0.34403,0.008 0.68689,-0.0429 1.03034,-0.0645 0.35554,0.007 0.71134,0 1.06662,0.012 1.16952,0.0452 2.34039,0.16146 3.50815,0.23905 0.85428,0 1.64673,0.37537 2.48444,0.46573 0.41813,0.0452 0.84358,-0.0429 1.26169,0 0.38636,0.0415 0.74979,0.22434 1.13693,0.258 1.39286,-0.0817 0.73118,-0.11674 1.98666,0.0666 0.43828,0.27759 0.9099,-0.0638 1.35181,0.0244 0.21502,0.0429 0.32328,0.34061 0.53928,0.37685 0.0378,0.007 0.0723,-0.13449 0.0597,-0.0983 -0.27545,0.79768 -0.56624,1.58997 -0.84935,2.38497 -0.60457,-0.16436 -0.55039,-0.65457 -0.58051,-1.18674 -0.20983,-0.23038 0.2364,-0.63688 0.44629,-0.4065 l 0,0 c 0.15236,-0.5141 0.0942,-0.76043 0.63307,-0.78048 -0.0386,0.71243 -0.0577,1.42625 -0.11564,2.13744 -0.0613,0.75306 -0.90774,0.17381 -1.19658,0.1024 -0.24893,-0.0618 -0.5116,-0.0346 -0.76741,-0.0521 -1.03466,-0.17294 -2.09363,-0.46685 -3.14785,-0.47537 -0.4302,-0.007 -0.85695,0.11069 -1.28699,0.0975 -0.82186,-0.0249 -1.61972,-0.32664 -2.44264,-0.3443 -2.21856,-0.57292 -0.0608,-0.15278 -2.24495,-0.18948 -0.33498,-0.007 -0.66072,-0.15528 -0.99537,-0.13923 -0.33536,0.0161 -0.64509,0.20691 -0.97978,0.23351 -0.67759,0.0534 -1.3557,-0.25288 -2.0377,-0.077 -1.61317,0.0948 -0.77871,-0.0258 -2.49679,0.40433 -0.52817,0.059 -2.6533,-0.10032 -3.12462,-0.0856 -0.61147,0.0194 -1.21621,0.14136 -1.8272,0.17215 -0.62485,0.0313 -1.25126,0.01 -1.87689,0.0148 -1.86938,-0.0235 -3.73392,-0.16049 -5.60229,-0.18133 -1.44237,-0.0161 -1.85926,0.10899 -3.27524,-0.0485 -0.46985,-0.052 -0.93038,-0.16828 -1.39556,-0.25247 -0.4427,0 -0.8854,-0.007 -1.32811,-0.007 -0.41011,-0.0702 -0.81435,-0.2011 -1.2303,-0.21056 -0.42675,-0.01 -0.84445,0.15768 -1.27127,0.15381 -0.43751,-0.007 -0.86343,-0.15851 -1.30055,-0.17746 -4.37294,-0.18925 1.68034,0.39889 -2.8923,-0.10267 -3.47769,0.30857 0.12909,0.0639 -3.50411,0.0712 -0.64614,0 -1.29069,0.10858 -1.93647,0.0871 -0.67978,-0.0231 -1.34948,-0.18312 -2.02868,-0.21899 -1.43214,-0.0757 -2.8282,0.0397 -4.25635,0.11733 -0.70379,-0.0369 -1.40869,-0.0555 -2.11137,-0.10926 -0.67842,-0.0521 -1.35028,-0.19451 -2.03056,-0.20812 -0.66672,-0.0134 -1.33128,0.17418 -1.9965,0.12743 -0.64103,-0.0452 -1.2486,-0.31709 -1.88578,-0.40063 -1.51598,-0.19876 -2.19268,-0.0617 -3.70275,0.0631 -0.60582,0.0355 -1.21164,0.0704 -1.81746,0.10553 -0.60137,-0.008 -1.20355,-0.0576 -1.80413,-0.0258 -0.60965,0.0327 -1.20819,0.19802 -1.81832,0.22029 -0.59704,0.0217 -1.19461,-0.1367 -1.79012,-0.0887 -1.25455,0.10115 -2.43818,0.69482 -3.71268,0.68772 -2.52861,0.11162 -1.26182,0.1284 -3.80032,-0.0527 -1.9924,0.0687 -2.00077,0.49049 -4.0031,0.49616 -0.65727,0 -1.30296,-0.21032 -1.96023,-0.21369 -0.66403,0 -1.32179,0.129 -1.98268,0.19354 -1.89189,-0.0383 -3.7337,0.10807 -5.62199,0.187 -0.60149,0.0249 -1.2069,-0.0147 -1.80537,0.0507 -0.60205,0.0659 -1.18042,0.29806 -1.78449,0.34172 -0.59018,0.0424 -1.18208,-0.0562 -1.77313,-0.0849 -1.41749,0.0569 -2.16049,0.11766 -3.57696,0.0527 -0.60113,-0.0277 -1.19804,-0.16477 -1.79947,-0.14476 -0.63426,0.0207 -1.25297,0.20981 -1.885,0.26684 -1.88434,0.17017 -1.8126,0.0776 -3.66212,-0.16302 -1.18002,0 -2.35992,-0.0304 -3.53993,-0.03 -0.58417,2.4e-4 -1.16971,0.0713 -1.75229,0.0286 -0.58219,-0.0429 -1.14602,-0.23863 -1.72787,-0.28616 -1.25631,-0.10282 -2.52908,0.13784 -3.77885,-0.14173 -3.85255,-0.71105 -0.27164,-0.20871 -4.40328,-0.29077 -3.28617,-0.0652 -6.54819,-0.76463 -9.83953,-0.79215 -0.75034,-0.14103 -1.49224,-0.33849 -2.25101,-0.42304 -0.70545,-0.0787 -1.4212,-0.007 -2.12848,-0.0652 -0.61882,-0.0521 -1.22793,-0.18732 -1.84328,-0.27123 -0.94577,-0.129 -1.90784,-0.13683 -2.84707,-0.30705 -0.31568,-0.0569 -0.61301,-0.18967 -0.91951,-0.28441 -0.23591,0 -0.47182,0.007 -0.70772,0.008 -0.22163,0.0424 -0.43955,0.1153 -0.66489,0.12738 -0.25784,0.0138 -0.51538,-0.068 -0.773,-0.0507 -0.32732,0.0221 -0.64389,0.12983 -0.9697,0.16796 -0.67134,0.0786 -2.6005,0.17164 -3.14459,0.20147 -4.92831,-0.1993 -9.86697,-0.62359 -14.68636,-1.72007 -1.24534,-0.27644 -0.70983,-2.68898 0.5355,-2.41254 z"
       id="path3973"
       style="fill:url(#linearGradient3836);fill-opacity:1;stroke:none" />
  </g>
</svg>
