<?xml version="1.0" encoding="UTF-8" standalone="no"?>
<!-- Created with Inkscape (http://www.inkscape.org/) -->

<svg
   xmlns:osb="http://www.openswatchbook.org/uri/2009/osb"
   xmlns:dc="http://purl.org/dc/elements/1.1/"
   xmlns:cc="http://creativecommons.org/ns#"
   xmlns:rdf="http://www.w3.org/1999/02/22-rdf-syntax-ns#"
   xmlns:svg="http://www.w3.org/2000/svg"
   xmlns="http://www.w3.org/2000/svg"
   xmlns:sodipodi="http://sodipodi.sourceforge.net/DTD/sodipodi-0.dtd"
   xmlns:inkscape="http://www.inkscape.org/namespaces/inkscape"
   width="59.999878"
   height="2.6291113"
   id="svg3090"
   version="1.1"
   inkscape:version="0.48.4 r9939"
   sodipodi:docname="line-small.svg"
   viewbox="0 0 60 2.63">
&gt;
  <defs
   id="defs3092">
  <linearGradient
     gradientTransform="matrix(-4.9343928,1.0891909,-1.0891909,-4.9343928,2985.2185,2745.6217)"
     osb:paint="solid"
     id="linearGradient3836">
    <stop
       id="stop3838"
       offset="0"
       style="stop-color:#77a669;stop-opacity:1;" />
  </linearGradient>
</defs>
<sodipodi:namedview
   id="base"
   pagecolor="#ffffff"
   bordercolor="#666666"
   borderopacity="1.0"
   inkscape:pageopacity="0.0"
   inkscape:pageshadow="2"
   inkscape:zoom="31.653248"
   inkscape:cx="14.216254"
   inkscape:cy="0.87149115"
   inkscape:document-units="px"
   inkscape:current-layer="layer1"
   showgrid="false"
   fit-margin-top="0"
   fit-margin-left="0"
   fit-margin-right="0"
   fit-margin-bottom="0"
   inkscape:window-width="1920"
   inkscape:window-height="1018"
   inkscape:window-x="1912"
   inkscape:window-y="-8"
   inkscape:window-maximized="1" />
<metadata
   id="metadata3095">
  <rdf:RDF>
    <cc:Work
       rdf:about="">
      <dc:format>image/svg+xml</dc:format>
      <dc:type
         rdf:resource="http://purl.org/dc/dcmitype/StillImage" />
      <dc:title />
    </cc:Work>
  </rdf:RDF>
</metadata>
<g
   inkscape:label="Layer 1"
   inkscape:groupmode="layer"
   id="layer1"
   transform="translate(-328.70022,-667.74715)">
  <path
     style="fill:url(#linearGradient3836);fill-opacity:1;stroke:none"
     id="path3915"
     d="m 329.5186,667.9239 c 0.41944,0.0121 0.83883,0.0486 1.25832,0.038 1.82578,-0.046 3.63986,-0.25962 5.47124,-0.20625 5.72178,0.16671 -1.87491,0.13059 3.39182,0.12862 1.14526,0.26969 2.31137,0.0853 3.4667,0.13301 0.29753,0.0121 0.59224,0.12303 0.88852,0.093 2.4776,-0.25119 -0.60266,-0.43534 1.94024,-0.17922 1.238,0.10643 2.46996,-0.14237 3.70492,-0.14297 1.22554,-6.4e-4 2.47474,0.15212 3.68719,0.31474 1.50836,0.18933 3.02733,0.12712 4.53976,0.15731 1.3126,-0.17909 2.62885,-0.18086 3.95071,-0.2431 0.5146,0.0925 1.02416,-0.0898 1.53593,-0.0642 0.50892,0.0255 1.00197,0.19438 1.50919,0.24319 0.47269,0.0456 0.94855,0.0477 1.42276,0.0734 0.98464,-0.0623 2.00071,-0.14281 2.96666,0.0867 0.80502,-0.27789 0.24503,-0.18525 1.09308,-0.0634 0.20186,0.029 0.40704,0.0274 0.60965,0.0505 0.20773,0.0237 0.41181,0.098 0.62074,0.09 1.3666,-0.0528 0.008,-0.30575 1.24089,0.005 1.84108,0.16566 -0.76729,-0.0325 0.98447,-0.0151 0.12818,10e-4 0.25035,0.0613 0.37835,0.069 0.11821,0.008 0.23701,-0.0395 0.35454,-0.0246 0.20264,0.0258 0.39057,0.1238 0.59172,0.15928 0.16685,-0.26119 0.39983,-0.0106 0.58726,-0.0714 0.11383,-0.0373 0.17335,-0.18432 0.28966,-0.21276 0.0909,-0.0222 0.17656,0.0823 0.26988,0.0764 0.87399,-0.0551 -0.22238,-0.24692 0.69888,-0.0285 0.13617,-0.0376 0.27247,-0.075 0.40869,-0.11262 0.13618,0.0121 0.27415,0.0598 0.40842,0.0346 0.1404,-0.0264 0.24643,-0.15857 0.38698,-0.18375 0.15318,-0.0275 0.58185,0.0838 0.85841,0.0448 0.0568,0.0592 0.0898,0.16799 0.17156,0.17647 0.077,0.008 0.11278,-0.11473 0.18627,-0.13904 0.0445,-0.0151 0.0943,0.0526 0.13693,0.0328 0.035,-0.016 -0.004,-0.0952 0.0304,-0.11126 0.0465,-0.0212 0.0995,0.0266 0.15051,0.0293 0.079,0.005 0.15793,-0.006 0.23687,-0.009 0.17146,-0.0463 0.35069,0.0456 0.52163,0.0136 0.0886,-0.0166 0.15757,-0.10658 0.24788,-0.10885 0.0861,-10e-4 0.15403,0.0891 0.23994,0.0959 0.0968,0.008 0.18918,-0.0617 0.28593,-0.0544 0.13421,0.20883 0.23885,-0.18322 0.36773,-0.0984 0.31808,0.20899 -0.13678,0.23315 0.22694,0.1754 0.0945,-0.1916 0.0714,-0.0236 0.2175,-0.0538 0.0469,-0.009 0.0614,-0.0888 0.10945,-0.0931 0.34675,-0.0347 0.0559,0.21965 0.30635,-0.0729 0.0521,0.082 0.0625,0.22028 0.15618,0.24586 0.0712,0.0195 0.0809,-0.13889 0.15114,-0.1621 0.0423,-0.0136 0.0667,0.0832 0.1105,0.0755 0.0563,-0.0106 0.0703,-0.1019 0.12546,-0.11745 0.0394,-0.0106 0.0716,0.0501 0.11262,0.0498 0.0778,-7e-4 0.15149,-0.0359 0.2271,-0.0539 0.33771,0.42444 0.30251,0.0776 0.61501,0.0301 0.0583,-0.009 0.0942,0.0765 0.15117,0.0922 0.10885,0.0299 0.22676,0.0106 0.33681,0.0349 0.23411,-0.26461 0.56043,0.0394 0.82164,0.0853 0.0972,0.0172 0.19698,-0.0136 0.29546,-0.0199 0.33093,-0.0106 0.68792,0.0362 1.00706,0.13028 0.17148,0.0506 0.3129,0.20116 0.49109,0.21577 0.0482,0.005 0.0855,-0.0447 0.12817,-0.0672 0.0121,0.28466 0.0823,1.53804 -0.92378,0.30521 -0.33716,-0.41318 0.98233,-0.55066 1.12841,-0.55611 0.41541,-0.0155 0.32553,-0.003 0.64762,0.22766 0.35891,0.19972 0.4347,-0.11489 0.45826,0.28241 0.58958,0.47318 -0.32702,1.61539 -0.91663,1.14223 l 0,0 c -0.0239,0.101 -0.10296,0.0598 -0.0895,0.1395 -0.003,-10e-4 -0.10597,-0.0395 -0.0744,-0.0604 0.11444,-0.0759 0.48674,-0.24665 0.35425,-0.21042 -1.88144,0.51467 -0.66579,0.37626 -1.27204,0.43991 -0.0747,0.0217 -0.14689,0.0744 -0.22422,0.0652 -0.0514,-0.006 -0.0666,-0.0853 -0.11413,-0.10553 -0.0713,-0.0304 -0.15632,-0.0136 -0.22877,-0.0404 -0.29727,-0.11112 -0.42014,-0.34927 -0.76531,-0.13679 -0.21576,-0.05 -0.45882,-0.0421 -0.6663,-0.11971 -0.0249,-0.009 -0.0314,-0.0569 -0.0581,-0.0539 -0.11565,0.0121 -0.10946,0.31064 -0.29633,0.18437 -0.10492,-0.0445 -0.18675,-0.14025 -0.29697,-0.16908 -0.0736,-0.0194 -0.15325,0.0177 -0.22834,0.005 -0.25511,-0.0427 -0.32037,-0.17701 -0.51799,0.0971 -0.19688,-0.17673 -0.54929,-0.0412 -0.78183,-0.12893 -0.042,0.009 -0.0838,0.0172 -0.12561,0.0258 -0.0121,-0.0314 -0.006,-0.0966 -0.0389,-0.0935 -0.0572,0.006 -0.0817,0.0838 -0.13256,0.11036 -0.18192,0.0933 -0.31881,-0.18755 -0.46497,0.0764 -0.0519,0.003 -0.10266,0.0358 -0.15412,0.0269 -0.0192,-0.003 -0.0136,-0.0374 -0.0295,-0.0476 -0.21146,-0.14176 -0.16784,0.0106 -0.3629,0.0292 -0.31742,0.0441 -0.43454,-0.16565 -0.47056,-0.16307 -0.0971,0.008 -0.14991,0.13467 -0.24315,0.16191 -0.75242,0.21517 0.36984,-0.35466 -0.41084,0.0799 -0.14629,-0.008 -0.5427,-0.0998 -0.65895,-0.0642 -0.0785,0.024 -0.0848,0.18543 -0.16676,0.18108 -0.66452,-0.0349 0.40113,-0.4007 -0.27635,-0.12636 -0.61234,0.3623 0.21344,-0.0368 -0.45701,-0.0416 -0.12244,-6.9e-4 -0.207,0.14373 -0.32729,0.16612 -0.37068,0.0693 -0.72659,-0.22453 -1.07428,0.09 -0.12093,-0.0392 -0.23598,-0.12561 -0.36297,-0.11791 -0.12832,0.008 -0.22763,0.12365 -0.35059,0.16137 -0.4594,0.14055 -0.23902,-0.002 -0.68128,0.0353 -0.63115,0.0523 -0.0277,0.12998 -0.60331,0.0186 -1.27946,-0.13089 0.65924,0.0258 -0.69017,0.0647 -0.11882,0.003 -0.22886,-0.077 -0.34769,-0.079 -0.14266,-0.002 -0.2801,0.0696 -0.42275,0.0666 -0.15585,-0.003 -0.30659,-0.0566 -0.45989,-0.085 -0.19407,0.008 -0.38809,0.0151 -0.58214,0.0216 -0.18454,-0.0504 -0.36356,-0.12909 -0.55354,-0.15149 -0.20497,-0.024 -0.41257,0.0151 -0.61893,0.0136 -0.7487,-0.005 -1.49623,0.088 -2.23916,-0.005 -0.006,-0.001 -0.86718,-0.23874 -0.89626,-0.23467 -0.17745,0.0247 -0.30886,0.19207 -0.48224,0.23679 -0.53568,0.13799 -1.13821,-0.16724 -1.67432,0.0136 -0.22573,-0.0506 -0.44615,-0.13934 -0.67713,-0.15166 -1.21967,-0.0651 -0.34506,0.21775 -1.54368,0.11126 -0.24892,-0.0221 -0.48085,-0.15344 -0.73023,-0.16984 -2.90237,-0.19067 1.36343,0.3867 -1.44171,-0.0317 -0.67414,0.11398 -1.31811,0.13451 -2.00189,0.13059 -0.21291,-10e-4 -0.4265,-0.0459 -0.63818,-0.0234 -0.22381,0.0238 -0.43095,0.14915 -0.65571,0.16132 -0.2055,0.0106 -0.40704,-0.0616 -0.61056,-0.0922 -0.20451,0.009 -0.40887,0.0325 -0.61357,0.0285 -0.20293,-0.005 -1.16627,-0.11308 -1.35657,-0.0876 -0.28314,0.0379 -0.53806,0.22036 -0.82315,0.2385 -0.29322,0.0187 -0.58118,-0.0871 -0.87175,-0.13073 -0.35703,0.0406 -0.71407,0.0812 -1.07112,0.12183 -1.858,-0.72425 -0.26413,-0.29429 -2.35279,-0.27679 -0.84904,0.008 -1.68985,-0.21164 -2.53891,-0.20526 -0.41064,0.003 -0.817,0.0951 -1.22755,0.10342 -0.36387,0.008 -0.72693,-0.0376 -1.09041,-0.0565 -3.15153,0.35456 1.08077,-0.0611 -1.90257,0.0455 -0.32199,0.0121 -0.63546,0.12138 -0.95747,0.13225 -0.33961,0.0121 -0.67767,-0.0768 -1.01728,-0.0657 -3.14012,0.10432 0.89533,0.26116 -2.55312,0.0599 -3.0042,-0.34146 -0.0631,-0.10644 -3.37295,-0.0389 -0.62688,0.0121 -1.253,-0.0681 -1.88002,-0.0632 -0.62616,0.005 -1.25007,0.0937 -1.87625,0.0927 -0.76546,-10e-4 -2.02753,-0.13844 -2.83313,-0.2166 -0.96168,-0.0942 -0.77918,-1.95726 0.18249,-1.86305 z"
     inkscape:connector-curvature="0" />
</g>
</svg>
