<?xml version="1.0" encoding="UTF-8"?>
<!-- Created with Inkscape (http://www.inkscape.org/) -->
<svg width="27.69mm" height="9.593mm" version="1.1" viewBox="0 0 27.69 9.593" xmlns="http://www.w3.org/2000/svg" xmlns:cc="http://creativecommons.org/ns#" xmlns:dc="http://purl.org/dc/elements/1.1/" xmlns:osb="http://www.openswatchbook.org/uri/2009/osb" xmlns:rdf="http://www.w3.org/1999/02/22-rdf-syntax-ns#">
 <defs>
  <linearGradient id="linearGradient3854" gradientTransform="matrix(0 0 0 0 -63.8 51.54)" osb:paint="solid">
   <stop stop-color="#fff" offset="0"/>
  </linearGradient>
 </defs>
 <metadata>
  <rdf:RDF>
   <cc:Work rdf:about="">
    <dc:format>image/svg+xml</dc:format>
    <dc:type rdf:resource="http://purl.org/dc/dcmitype/StillImage"/>
    <dc:title/>
   </cc:Work>
  </rdf:RDF>
 </metadata>
 <g transform="translate(36.52 72.17)" fill="url(#linearGradient3854)">
  <g stroke-width=".121px" aria-label="EARTH">
   <path d="m-26.74-64.91v0.3002h-1.204v0.71h1.075v0.3002h-1.075v0.7197h1.249v0.3034h-1.562v-2.333z"/>
   <path d="m-24.69-63.19h-0.8972l-0.2485 0.6132h-0.3098l1.02-2.43h0.01937l1.02 2.43h-0.3615zm-0.1065-0.2711-0.3324-0.852-0.3453 0.852z"/>
   <path d="m-22.12-62.57-0.5487-0.8617q-0.02582 0.0032-0.07746 0.0032h-0.3453v0.8585h-0.3131v-2.333h0.6229q0.2388 0 0.426 0.08391t0.2937 0.2485q0.1065 0.1614 0.1065 0.3905 0 0.2162-0.09682 0.397-0.0936 0.1807-0.2905 0.2743l0.5874 0.9392zm-0.6326-1.162q0.2517 0 0.3615-0.1323 0.113-0.1323 0.113-0.3034 0-0.1033-0.04841-0.2033-0.04518-0.1-0.1485-0.1646-0.1-0.06778-0.255-0.06778h-0.3615v0.8714z"/>
   <path d="m-19.69-64.91v0.3002h-0.6261v2.033h-0.3131v-2.033h-0.61v-0.3002z"/>
   <path d="m-17.1-62.57h-0.3131v-1.023h-1.223v1.023h-0.3131v-2.333h0.3131v1.01h1.223v-1.01h0.3131z"/>
  </g>
  <g stroke-width=".1766" aria-label="Heirloom">
   <path d="m-32.48-66.69h-0.6851v-2.239h-2.677v2.239h-0.6851v-5.106h0.6851v2.211h2.677v-2.211h0.6851z"/>
   <path d="m-29.8-67.19q0.3673 0 0.7134-0.2543l0.3037 0.4873q-0.2331 0.1554-0.5085 0.2472-0.2684 0.08476-0.5227 0.08476-0.4873 0-0.8546-0.1978-0.3602-0.2048-0.558-0.558-0.1978-0.3531-0.1978-0.7981 0-0.4308 0.2119-0.784 0.219-0.3602 0.5933-0.565 0.3743-0.2119 0.8193-0.2119 0.5721 0 0.9535 0.339 0.3885 0.332 0.5297 0.9323l-2.317 0.8122q0.1271 0.219 0.339 0.3461 0.219 0.1201 0.4944 0.1201zm-0.04944-2.027q-0.4026 0-0.6639 0.2825t-0.2613 0.7204q0 0.1059 0.0071 0.1624l1.702-0.6286q-0.1059-0.2401-0.3037-0.3885-0.1907-0.1483-0.4803-0.1483z"/>
   <path d="m-26.84-69.62v2.924h-0.6569v-2.924zm-0.7063-1.052q0-0.1554 0.1201-0.2613 0.1201-0.1059 0.2755-0.1059 0.1554 0 0.2684 0.1059 0.1201 0.1059 0.1201 0.2613 0 0.1554-0.1201 0.2613-0.113 0.1059-0.2684 0.1059-0.1554 0-0.2755-0.1059-0.1201-0.1059-0.1201-0.2613z"/>
   <path d="m-25.06-68.92q0.113-0.2401 0.3178-0.4238 0.2119-0.1836 0.445-0.2825 0.2331-0.09888 0.4096-0.1059l-0.02825 0.6569q-0.3178-0.01413-0.5792 0.1271-0.2543 0.1413-0.4026 0.3955-0.1413 0.2472-0.1413 0.5297v1.335h-0.6569v-2.924h0.5862z"/>
   <path d="m-22.37-72.17v5.474h-0.6569v-5.474z"/>
   <path d="m-21.48-68.18q0-0.4308 0.2048-0.784 0.2119-0.3602 0.5792-0.565 0.3743-0.2048 0.8405-0.2048t0.8264 0.2048q0.3673 0.2048 0.565 0.558 0.2048 0.3531 0.2048 0.791 0 0.4379-0.2048 0.7981-0.1978 0.3531-0.565 0.558-0.3673 0.2048-0.8405 0.2048-0.4591 0-0.8264-0.1907-0.3673-0.1978-0.5792-0.5509-0.2048-0.3531-0.2048-0.8193zm0.6639 0.0071q0 0.2755 0.1201 0.5085 0.1271 0.2331 0.339 0.3673 0.219 0.1342 0.4803 0.1342 0.4096 0 0.678-0.2896t0.2684-0.7204q0-0.4308-0.2684-0.7204-0.2684-0.2966-0.678-0.2966-0.2684 0-0.4803 0.1413-0.2119 0.1342-0.339 0.3673-0.1201 0.2331-0.1201 0.5085z"/>
   <path d="m-17.63-68.18q0-0.4308 0.2048-0.784 0.2119-0.3602 0.5792-0.565 0.3743-0.2048 0.8405-0.2048 0.4662 0 0.8264 0.2048 0.3673 0.2048 0.565 0.558 0.2048 0.3531 0.2048 0.791 0 0.4379-0.2048 0.7981-0.1978 0.3531-0.565 0.558-0.3673 0.2048-0.8405 0.2048-0.4591 0-0.8264-0.1907-0.3673-0.1978-0.5792-0.5509-0.2048-0.3531-0.2048-0.8193zm0.6639 0.0071q0 0.2755 0.1201 0.5085 0.1271 0.2331 0.339 0.3673 0.219 0.1342 0.4803 0.1342 0.4096 0 0.678-0.2896 0.2684-0.2896 0.2684-0.7204 0-0.4308-0.2684-0.7204-0.2684-0.2966-0.678-0.2966-0.2684 0-0.4803 0.1413-0.2119 0.1342-0.339 0.3673-0.1201 0.2331-0.1201 0.5085z"/>
   <path d="m-9.774-69.74q0.4238 0 0.671 0.2401 0.2543 0.2401 0.2684 0.6357v2.168h-0.6569v-1.928q-0.02119-0.5156-0.4662-0.5438-0.2543 0-0.4591 0.1554-0.1978 0.1483-0.3108 0.3955-0.113 0.2472-0.1201 0.5297v1.391h-0.6639v-1.928q-0.02119-0.5156-0.4803-0.5438-0.2472 0-0.452 0.1554-0.1978 0.1483-0.3108 0.4026-0.113 0.2472-0.113 0.5297v1.384h-0.6569v-2.924h0.5933l0.04944 0.5509q0.1695-0.3178 0.4591-0.4944 0.2966-0.1766 0.671-0.1766 0.3531 0 0.5933 0.1695 0.2401 0.1624 0.3108 0.452 0.1836-0.2896 0.4662-0.452 0.2825-0.1695 0.6074-0.1695z"/>
  </g>
 </g>
</svg>
