<?xml version="1.0" encoding="UTF-8"?>
<svg width="27.69mm" height="9.98mm" version="1.1" viewBox="0 0 27.688776 9.9801245" xmlns="http://www.w3.org/2000/svg"><g transform="translate(2.197e-7 -287)"><g transform="translate(-58.92 280.6)" fill="#fff"><g stroke-width=".1683" aria-label="Heirloom"><path d="m62.04 10.98c0.0202 0.03367 0.08753 0.1885 0.101 0.2087 0.04713 0.0606 0.1953 0.2626 0.2155 0.2963 0.02693 0.01347 0.202 0.1279 0.2626 0.1549 0.01347 0.0202 0.101 0.04713 0.1279 0.0606 0.05387 0.0067 0.202 0.04713 0.2155 0.04713 0.0404 0 0.3771-0.04713 0.4848-0.07406 0.01347 0 0.1077-0.03367 0.1212-0.03367 0.0067 0 0.0202-0.0067 0.03367-0.0067 0.0404-0.01347 0.1751-0.03367 0.1751-0.03367 0.04713-0.01347 0.1616-0.0808 0.2491-0.1414 0.02693-0.02693 0.3905-0.2424 0.4107-0.2693 0.0067-0.0067 0.0808-0.1212 0.09426-0.1279 0.1414-0.1077 0.5589-0.7003 0.6262-0.6868l0.0404-0.1279c0.02693-0.07407 0.1549-0.0606 0.1414-0.1616-0.0067-0.07407-0.09426-0.09426-0.1549-0.0808h-0.04713c0 0.0067-0.02693 0.06733-0.03367 0.06733-0.0067 0.0067-0.07407 0.01347-0.07407 0.03367-0.1481 0.2828-0.5185 0.6599-0.7743 0.8686-0.0067 0.03367-0.1077 0.1212-0.1145 0.1347-0.01347 0.0202-0.1279 0.101-0.1414 0.1077-0.01347 0.0067-0.2222 0.08753-0.2289 0.09427-0.0067 0.0067-0.04713 0.03367-0.05387 0.03367 0 0.01347-0.07407 0.09427-0.0808 0.1077h-0.05387c-0.0067 0-0.04713 0.03367-0.05387 0.03367h-0.0404c-0.0067 0-0.03367 0.0067-0.03367 0.0067l-0.1481-0.07406c0-0.01347-0.0606-0.1145-0.08753-0.1616-0.0067-0.01347-0.02693-0.0404-0.02693-0.04713-0.01347-0.0202-0.0404-0.1077-0.04713-0.1212-0.0067-0.04713-0.03367-0.2626-0.03367-0.3097-0.01347-0.07406-0.03367-0.2828-0.02693-0.303-0.01347-0.05387 0.01347-0.3636 0.01347-0.4646 0.0067-0.02693 0.0606-0.2222 0.05387-0.2491v-0.1549c0.0067 0 0.02693-0.0606 0.03367-0.0606 0-0.01347 0.0202-0.1347 0.02693-0.1549 0.0067-0.0202 0.0808-0.09426 0.08753-0.09426 0.01347-0.00673 0.05387-0.0606 0.04713-0.07406 0.0202-0.01347 0.1885-0.1212 0.1953-0.1347 0.0202-0.00673 0.1145-0.1481 0.1414-0.1549 0.0067-0.01347 0.101-0.101 0.1145-0.1077 0.08753-0.09426 0.0808-0.2087 0.1347-0.3232 0.0067-0.00673 0.0808-0.09426 0.07407-0.101 0 0 0.0202-0.0808 0.02693-0.08753 0-0.03367 0.02693-0.1145 0.03367-0.1212 0-0.00673 0.0404-0.03367 0.0404-0.0404 0.01347-0.0202 0.0606-0.1279 0.06733-0.1481 0-0.01347 0.0067-0.1145 0.01347-0.1347 0-0.01347 0.03367-0.0606 0.0404-0.06733 0.03367-0.05387 0.01347-0.1145 0.02693-0.1751 0-0.01347 0.03367-0.1481 0.0404-0.1616 0-0.0202 0.0067-0.1145 0.0067-0.1212 0-0.01347 0.0067-0.08753 0.01347-0.101v-0.0202c-0.01347-0.06733-0.04713-0.2087-0.05387-0.2222 0-0.00673-0.04713-0.0404-0.05387-0.0404-0.0067-0.0202-0.0606-0.1145-0.07406-0.1347-0.01347-0.01347-0.05387-0.06733-0.07407-0.07406-0.02693-0.0202-0.1077-0.05387-0.1212-0.05387 0 0-0.0808-0.00673-0.1212 0-0.02693 0-0.1279 0.0202-0.1279 0.0202-0.02693 0-0.1347 0.03367-0.1616 0.03367-0.01347 0-0.1751 0.0404-0.1953 0.05387-0.0067 0-0.04713 0.01347-0.05387 0.0202l-0.01347 0.04713c-0.0202 0.01347-0.1481 0.1616-0.1549 0.1885-0.0067 0.01347-0.06733 0.08753-0.0808 0.09426-0.01347 0.02693-0.1549 0.202-0.1818 0.2357-0.02693 0.04713-0.1549 0.2222-0.1683 0.2559-0.0202 0.01347-0.05387 0.1212-0.0606 0.1279-0.0067 0.00673 0 0.05387 0 0.0606 0.0067 0.00673-0.0202 0.05387-0.01347 0.0606-0.09427 0.2289-0.202 0.4444-0.2963 0.6666-0.0067 0.01347-0.02693 0.08753-0.02693 0.1077-0.0202 0.01347-0.05387 0.2155-0.0606 0.2424 0 0-0.02693 0.0202-0.02693 0.02693 0 0.00673-0.0067 0.09426-0.0067 0.101-0.0067 0.0202-0.03367 0.0808-0.04713 0.08753 0 0.01347-0.02693 0-0.02693 0 0.0067 0.01347-0.01347 0.02693-0.0202 0.04713 0.0067 0.01347-0.02693 0.1279-0.03367 0.1481 0 0.00673-0.0202 0.0606-0.0202 0.06733 0 0-0.0067 0.0808-0.0067 0.08753-0.0202 0.01347-0.04713 0.06733-0.04713 0.06733l-0.8753 0.2357-0.04713-0.03367c-0.0067-0.00673 0.02693-0.2559 0.0404-0.3636 0.0067-0.00673 0.05387-0.1481 0.06733-0.1885-0.0067-0.01347 0.02693-0.0808 0.03367-0.101 0-0.00673 0.03367-0.1077 0.0404-0.1212 0-0.01347 0.04713-0.1347 0.0606-0.1549 0-0.02693 0.04713-0.2155 0.06733-0.2828 0-0.0404 0.03367-0.1481 0.03367-0.1616 0-0.00673 0.01347-0.1077 0.01347-0.1212l0.07406-0.2491c0.0067-0.0202 0.0404-0.1414 0.03367-0.1549 0.01347-0.04713 0.1279-0.3905 0.1347-0.4444v-0.1481c0-0.00673 0.02693-0.03367 0.03367-0.0404 0 0 0.02693-0.04713 0.0202-0.05387l-0.04713-0.3434s-0.0606-0.0808-0.09427-0.1077c-0.0067-0.01347-0.0202-0.02693-0.02693-0.02693 0 0-0.0404-0.03367-0.04713-0.03367-0.0067-0.01347-0.06733-0.05387-0.06733-0.05387-0.0067 0-0.101-0.0404-0.1279-0.05387-0.02693-0.00673-0.07406-0.03367-0.07406-0.03367-0.0067 0.00673-0.03367 0.00673-0.04713 0.00673h-0.03367c-0.01347 0.01347-0.1212 0.04713-0.1347 0.04713-0.01347 0-0.1077 0.00673-0.1279 0.00673-0.0202 0.0202-0.1145 0.03367-0.1212 0.04713l-0.04713 0.06733c-0.01347 0.01347-0.06733 0.1616-0.0808 0.1885h-0.05387c-0.0067 0-0.1481-0.1481-0.202-0.1953 0-0.01347-0.0606-0.08753-0.0606-0.101-0.0067-0.00673-0.0202-0.01347-0.02693-0.01347-0.01347 0-0.05387-0.02693-0.05387-0.02693-0.01347-0.00673-0.08753-0.0808-0.09427-0.08753l-0.04713-0.03367c-0.0202-0.00673-0.08753-0.0202-0.09427-0.0202 0 0-0.2222-0.00673-0.303-0.00673h-0.02693c-0.06733 0.0202-0.2491 0.0808-0.2559 0.0808 0 0.00673-0.06733 0.0606-0.09427 0.07406-0.04713 0.02693-0.1616 0.1145-0.1683 0.1212-0.0202 0.02693-0.1145 0.1481-0.1279 0.2087-0.05387 0.0606-0.0808 0.1549-0.07407 0.2424l0.0067 0.02693c0 0.01347 0.0202 0.05387 0.02693 0.0606l0.08753 0.1212c0.0202 0.0202 0.101 0.101 0.1279 0.1212 0.04713 0.04713 0.1279 0.04713 0.202 0.04713 0.0067 0 0.06733-0.00673 0.07407-0.00673 0.1751 0.05387 0.303 0.0202 0.3501-0.1414 0 0 0.0202-0.03367 0.02693-0.04713v-0.01347l-0.0067-0.0202c-0.0404-0.0606-0.08753-0.1885-0.1481-0.1953-0.01347-0.01347-0.08753 0.00673-0.101 0.00673-0.08753-0.0404-0.2895 0.09426-0.303 0.1145l-0.0606-0.0606s0.0202-0.1347 0.03367-0.1818c0.0067-0.04713 0.04713-0.1347 0.0808-0.1616 0-0.00673 0.0404-0.0404 0.05387-0.0404 0.03367-0.0202 0.1077-0.06733 0.1145-0.06733 0 0 0.101-0.01347 0.1347-0.01347 0.0404 0 0.1414-0.00673 0.1481-0.00673 0.02693 0.00673 0.1279 0.0202 0.1347 0.0202l0.2087 0.1953c0.01347 0.0202 0.1279 0.1818 0.1549 0.202 0.0404 0.0808 0.1481 0.1616 0.1549 0.2491 0.0067 0.0202 0 0.04713 0 0.05387 0.0067 0.0202-0.04713 0.1683-0.05387 0.1818-0.0067 0.00673-0.03367 0.1481-0.03367 0.1549 0 0.02693-0.05387 0.1683-0.05387 0.1953-0.03367 0.1347-0.05387 0.2693-0.08753 0.404-0.03367 0.1683-0.1481 0.4646-0.101 0.6531l-0.0808 0.8619c0 0.00673-0.03367 0.03367-0.05387 0.0404-0.01347 0-0.1751 0.03367-0.2087 0.03367-0.0404 0.02693-0.2491 0.1077-0.2895 0.1212-0.01347 0-0.0808 0.05387-0.101 0.07406l-0.06733 0.06733c-0.02693 0.02693-0.1077 0.1212-0.1212 0.1279-0.0067 0.01347-0.02693 0.07406-0.0404 0.08753 0 0.0404-0.1077 0.1683-0.1212 0.202-0.0202 0.0606-0.0808 0.1953-0.08753 0.2357-0.01347 0.0202-0.02693 0.1953-0.02693 0.2222-0.04713 0.3569 0.0808 0.6531 0.3973 0.8686 0.0067 0.01347 0.06733 0.02693 0.07406 0.02693 0.0067 0 0.04713 0.02693 0.04713 0.02693 0.02693 0.0067 0.101 0.0202 0.1077 0.0202 0.0067 0 0.1481 0 0.1953-0.01347 0.04713 0 0.1616-0.01347 0.1683-0.01347 0.01347 0 0.1212-0.05387 0.1549-0.06733l0.01347-0.0404c0.0067-0.0067 0.08753-0.08753 0.09427-0.101 0.0202-0.0067 0.1616-0.202 0.1818-0.2155 0.07406-0.101 0.1885-0.1953 0.2289-0.3299 0-0.01347 0.0067-0.08753 0.01347-0.08753 0-0.0202 0.02693-0.08753 0.0404-0.1077 0.0067 0 0.06733-0.08753 0.06733-0.09427 0.01347-0.0067 0.03367-0.101 0.0404-0.1212 0 0 0.01347-0.02693 0.0202-0.03367 0.01347-0.02693 0.0606-0.1549 0.0808-0.1818l0.0808-0.2289c0.0067-0.01347 0.02693-0.101 0.0404-0.1279 0.0067-0.0202 0.02693-0.1414 0.02693-0.1549 0.0067 0 0.01347-0.0202 0.0202-0.02693 0.02693 0 0.1347-0.01347 0.1481-0.01347 0.04713-0.0067 0.5454-0.2155 0.5521-0.2155 0.0404 0.00673 0.202 0.00673 0.2289 0.00673 0 0.00673 0.01347 0.0202 0.01347 0.0202v0.01347c0.0067 0.02693 0 0.2222 0 0.2424-0.0202 0.3165 0 0.6262 0.07407 0.8888zm-2.895 0.2895c-0.02693-0.1818 0.0202-0.3569 0.08753-0.5387 0.01347-0.1885 0.1549-0.3569 0.3165-0.4309 0 0 0.0202-0.01347 0.0202-0.0202 0.0067-0.01347 0.0404-0.03367 0.04713-0.0404 0.01347 0 0.08753-0.03367 0.101-0.03367 0.0067 0 0.0404-0.02693 0.04713-0.02693 0 0 0.0808-0.01347 0.1145-0.01347 0.0202 0 0.08753-0.0067 0.1145-0.0067 0.0067 0 0.0202 0.02693 0.0202 0.02693 0.0067 0.01347 0 0.07406-0.0067 0.0808-0.03367 0.1885-0.03367 0.3838-0.09427 0.5723 0 0-0.02693 0.07407-0.03367 0.07407-0.0067 0.0202-0.03367 0.1145-0.0404 0.1212-0.07407 0.1616-0.1481 0.3367-0.2828 0.4444 0 0.0067-0.2155 0.0404-0.2491 0.0606h-0.01347c-0.101 0.0067-0.1414-0.1885-0.1481-0.2693zm4.707-4.235s0.02693 0 0.03367-0.00673c0.01347 0 0.0808 0.03367 0.0808 0.03367 0.01347 0.01347 0.0404 0.08753 0.06733 0.1145 0.0067 0.00673 0.03367 0.1549 0.03367 0.2155 0 0 0.0067 0.01347 0.0067 0.0202v0.00673c0.0067 0.02693 0 0.1145-0.0067 0.1212 0 0.01347-0.01347 0.0606-0.02693 0.07406 0.0067 0.01347-0.0202 0.1616-0.0202 0.1818-0.0067 0.04713-0.0606 0.2222-0.0808 0.2491-0.0067 0.0202-0.06733 0.1414-0.07407 0.1683-0.0067 0.00673-0.02693 0.04713-0.02693 0.0606-0.0404 0.09426-0.101 0.1885-0.1481 0.2828 0 0.00673-0.05387 0.1212-0.06733 0.1212-0.0067 0.0202-0.1279 0.1212-0.1347 0.1414-0.01347 0.00673-0.08753 0.08753-0.09426 0.09426-0.01347 0.0202-0.07407 0.0606-0.08753 0.06733l-0.02693-0.02693c0-0.06733 0.03367-0.07406 0.05387-0.1212 0.0606-0.1818 0.0808-0.3771 0.1077-0.5723 0.01347-0.03367 0.09427-0.3434 0.1145-0.4309 0.02693-0.1347 0.0606-0.2761 0.1077-0.404 0.0067-0.00673 0.01347-0.0404 0.01347-0.0404 0.0067-0.0202 0.03367-0.1414 0.04713-0.1481 0.0067-0.01347 0.0202-0.0606 0.02693-0.0606 0-0.03367 0.06733-0.1279 0.07406-0.1414z"/><path d="m64.59 10.34v0.3367c0 0.0067 0.02693 0.1347 0.02693 0.1481v0.05387c0.0067 0 0.0202 0.0404 0.0202 0.04713l0.0606 0.1279s0.01347 0.0202 0.0202 0.02693c0 0.0067 0.04713 0.08753 0.05387 0.101 0.0067 0.01347 0.0808 0.08753 0.09426 0.101 0.0404 0.02693 0.1818 0.1414 0.2087 0.1481 0.02693 0.0202 0.1347 0.07406 0.1549 0.0808 0.01347 0.0067 0.1751 0.02693 0.2222 0.02693h0.09426c0.08753 0 0.1953-0.01347 0.2693-0.04713 0.08753-0.05387 0.1347-0.1212 0.2357-0.1347h0.09427c0.0067 0 0.05386-0.04713 0.05386-0.04713 0.0067-0.0067 0.1145-0.04713 0.1279-0.04713l0.04713-0.03367c0.0067 0 0.3367-0.1683 0.3501-0.1751l0.1818-0.101c0-0.0067 0.0404-0.02693 0.04713-0.02693 0.0067-0.0067 0.06733-0.07407 0.07407-0.07407l0.1077-0.02693 0.09427-0.07407 0.0606-0.03367c0.1481-0.09427 0.4175-0.2693 0.5185-0.3703 0.01347-0.03367 0.0606-0.1212 0.07407-0.1279 0.1616-0.1077 0.3973-0.4242 0-0.4107l-0.101 0.02693c-0.0067 0.00673-0.05387 0.06733-0.05387 0.07406l-0.2963 0.3838-0.0606 0.0808-0.07407 0.07407-0.07406 0.101c-0.03367 0.0404-0.303 0.1818-0.3165 0.202l-0.1077 0.04713-0.02693 0.02693c-0.1953 0.1077-0.6599 0.2963-0.8753 0.3569-0.0067 0.0067-0.06733 0.0202-0.0808 0.0202 0 0-0.0606 0.0067-0.07406 0.0067-0.01347 0-0.06733-0.0067-0.07407-0.0067-0.02693-0.03367-0.0606-0.08753-0.0606-0.1347v-0.01347c0.01347-0.1145 0.02693-0.3973 0.02693-0.4107l0.03367-0.07407c0.02693-0.02693 0.1885-0.1347 0.2289-0.1549l0.202-0.07407c0.0067-0.0067 0.0404-0.02693 0.04713-0.02693l0.1818-0.1549 0.1279-0.101c0.0067-0.0067 0.04713-0.06733 0.04713-0.07406 0.0067-0.01347 0.07406-0.09426 0.07406-0.1077l0.0606-0.07406c0.01347-0.0202 0.04713-0.09426 0.04713-0.101v-0.2289c-0.0067-0.0202-0.0202-0.09426-0.02693-0.101-0.0067-0.00673-0.05387-0.0606-0.0808-0.0808-0.0202-0.0202-0.1077-0.09426-0.1212-0.101-0.03367-0.01347-0.1347-0.07406-0.1549-0.0808-0.0202 0-0.1818-0.01347-0.202-0.0202-0.01347 0-0.09427-0.0202-0.1077-0.02693h-0.09427c-0.0067 0.00673-0.06733 0.04713-0.0808 0.04713l-0.1279 0.0606-0.1751 0.09426-0.1077 0.0808c-0.01347 0.01347-0.1077 0.1212-0.1212 0.1279-0.0202 0.00673-0.1616 0.06733-0.1818 0.0808-0.01347 0-0.06733 0.03367-0.0808 0.04713l-0.1549 0.1279-0.07407 0.07406-0.07407 0.1279c-0.0202 0.03367-0.07407 0.1481-0.0808 0.1481-0.0067 0.04713-0.04713 0.2222-0.04713 0.2626zm1.609-0.8686h0.1751c0.0067 0.00673 0.02693 0.0202 0.02693 0.0202l0.05387 0.0808c0.0067 0.01347 0.02693 0.06733 0.02693 0.07406 0 0.0202-0.0202 0.1077-0.02693 0.1347l-0.02693 0.0202-0.02693 0.05387s-0.0202 0.0202-0.02693 0.0202l-0.1212 0.1077c-0.01347 0.00673-0.101 0.05387-0.1279 0.07406-0.1347 0.07407-0.2491 0.1414-0.3838 0.202v-0.2289c0-0.0067 0.03367-0.1077 0.04713-0.1549 0.0067-0.00673 0.02693-0.0404 0.02693-0.04713 0.0067 0 0.0202-0.02693 0.0202-0.02693l0.03367-0.04713c0.02693-0.03367 0.1683-0.1751 0.202-0.202 0-0.00673 0.05387-0.04713 0.07407-0.0606 0.01347-0.00673 0.05386-0.0202 0.05386-0.0202z"/><path d="m67.36 10.28c-0.0067 0.07406-0.01347 0.2693-0.01347 0.2761 0 0.03367 0.0067 0.1549 0.01347 0.1885l0.03367 0.1885c0 0.0202 0.04713 0.1279 0.0606 0.1549 0.01347 0.0202 0.0606 0.1077 0.07407 0.1212 0.0067 0.0202 0.0404 0.0606 0.05387 0.07407 0.0067 0 0.0606 0.05387 0.0808 0.0606 0 0 0.08753 0.0404 0.1212 0.0606 0.01347 0.0067 0.06733 0.02693 0.0808 0.02693 0.03367 0 0.1683 0.01347 0.202 0.01347 0.05387 0 0.1885-0.01347 0.202-0.01347 0.0067 0 0.1414-0.0404 0.1953-0.0606 0.02693 0 0.08753-0.02693 0.09427-0.02693 0.02693-0.01347 0.1818-0.1077 0.2155-0.1347 0.0067-0.0067 0.1279-0.07406 0.1481-0.09427 0.0202-0.0067 0.1481-0.07406 0.1683-0.09426 0 0 0.101-0.0808 0.1077-0.08753l0.09427-0.0606 0.1347-0.09427 0.2626-0.1885c0.04713-0.03367 0.2963-0.2289 0.3434-0.303 0.01347-0.0202 0.1279-0.101 0.1414-0.1279-0.0067-0.0067 0.0202-0.06733 0.02693-0.0808 0.0067 0 0.04713-0.04713 0.04713-0.05387 0.02693-0.02693-0.04713-0.1751-0.09426-0.1683-0.0202-0.01347-0.1279 0.0404-0.1414 0.06733 0 0.00673-0.04713 0.0606-0.0606 0.06733-0.01347 0.0202-0.08753 0.202-0.1077 0.2222-0.01347 0.01347-0.1549 0.1481-0.1751 0.1616 0 0-0.02693 0.0202-0.02693 0.03367-0.0067 0.0067-0.101 0.05387-0.101 0.0606-0.0202 0-0.1212 0.06733-0.1481 0.08753-0.01347 0.0067-0.07407 0.0606-0.0808 0.06733-0.0202 0.0067-0.1885 0.0808-0.202 0.09427-0.0202 0.01347-0.2087 0.1481-0.2289 0.1549-0.0067 0.0067-0.08753 0.03367-0.08753 0.03367-0.0067 0-0.04713 0.02693-0.05387 0.02693-0.0067 0-0.06733 0.03367-0.0808 0.03367-0.01347 0.0067-0.1077 0.05387-0.1145 0.05387-0.02693 0.0202-0.1414 0.0606-0.1683 0.06733-0.0202 0.0067-0.1145 0.02693-0.1279 0.02693-0.0067 0-0.06733 0.0067-0.0808 0.0067s-0.0606-0.0067-0.0606-0.0067c-0.01347 0-0.04713-0.0404-0.04713-0.05387v-0.08753c0-0.0202 0.01347-0.09427 0.01347-0.101 0-0.0067 0.0404-0.1885 0.06733-0.2491 0-0.0067 0.02693-0.08753 0.02693-0.09427 0.0067-0.01347 0.0404-0.1481 0.04713-0.1549 0-0.0202 0.0202-0.1077 0.0202-0.1279 0.0067-0.0067 0.03367-0.0808 0.03367-0.09427 0.01347-0.0067 0.0404-0.1414 0.04713-0.1481 0-0.01347 0.02693-0.09426 0.02693-0.101 0.01347-0.0202 0.0404-0.1077 0.0404-0.1212l0.0808-0.3838c0-0.00673 0.0067-0.03367 0.0067-0.04713v-0.04713l-0.0808-0.08753c0-0.00673-0.101-0.05387-0.1347-0.0606-0.0067-0.00673-0.0808-0.03367-0.101-0.03367-0.03367-0.00673-0.1616-0.02693-0.1818-0.02693-0.0067 0-0.0606-0.00673-0.0808-0.00673s-0.0808 0.00673-0.0808 0.00673c-0.02693 0-0.1347 0.0202-0.1683 0.02693-0.0067 0.0202-0.0067 0.1077-0.0067 0.1279l-0.0404 0.1212c-0.01347 0.01347-0.05387 0.1077-0.0606 0.1279l-0.03367 0.09426c0 0.01347-0.06733 0.1414-0.06733 0.1481-0.0067 0.06733-0.05387 0.2626-0.05387 0.2828 0 0.0067-0.0202 0.1818-0.0202 0.2559zm1.757-2.626c0-0.00673-0.1279-0.0202-0.1818-0.0202-0.01347 0-0.1347 0.01347-0.1751 0.0202-0.0202 0.0202-0.09426 0.04713-0.09426 0.04713-0.02693 0.00673-0.06733 0.05387-0.0808 0.07406-0.0202 0.03367-0.1145 0.1953-0.1279 0.2491-0.03367 0-0.1953 0.01347-0.2289 0.03367-0.0202 0.00673-0.101 0.05387-0.101 0.07406-0.0202 0.00673-0.04713 0.0808-0.06733 0.1077 0 0-0.0067 0.02693-0.0067 0.03367v0.02693c0.0067 0.02693 0.02693 0.06733 0.03367 0.06733 0.01347 0.03367 0.1145 0.1347 0.1212 0.1549 0.0202 0.00673 0.1212 0.03367 0.1347 0.03367 0.0067 0 0.04713 0.00673 0.0808 0.00673 0.0202 0 0.0808-0.00673 0.08753-0.00673 0.03367 0 0.1414-0.02693 0.1549-0.03367 0 0 0.03367-0.03367 0.0404-0.04713 0.0067 0 0.06733-0.0202 0.07407-0.02693 0.03367-0.01347 0.101-0.06733 0.1145-0.0808 0.01347 0 0.06733-0.04713 0.0808-0.06733 0-0.00673 0.02693-0.0606 0.02693-0.0606 0.1347-0.1953 0.1549-0.3905 0.1145-0.5858z"/><path d="m70.28 10.1c0.09426-0.1145 0.1414-0.2222 0.1616-0.3501 0.0067-0.04713-0.0202-0.1212-0.02693-0.1616-0.01347-0.1212-0.09427-0.1818-0.202-0.202-0.0606-0.01347-0.1751-0.0404-0.2424-0.02693-0.1145 0.0202-0.1818 0.101-0.2626 0.1683-0.07406 0.0606-0.1212 0.1279-0.1279 0.202l-0.02693 0.02693c0 0.01347-0.0202 0.0606-0.0202 0.07406v0.2491c0 0.03367 0.03367 0.1751 0.04713 0.202 0.0067 0.0067 0.03367 0.04713 0.05387 0.0606l0.06733 0.04713 0.1481 0.04713c0.0067 0.0067 0.0404 0.02693 0.04713 0.02693 0 0 0.04713 0.0067 0.0606 0.0067s0.05387-0.0067 0.0606-0.0067c0.01347 0 0.2155-0.07406 0.2895-0.101 0.09426-0.03367 0.303-0.1414 0.3905-0.1885 0.0067-0.0067 0.06733-0.04713 0.07407-0.04713 0.01347-0.0067 0.08753-0.02693 0.101-0.02693 0-0.0067 0.0404-0.02693 0.04713-0.02693 0 0.01347 0.02693 0.0606 0.0202 0.07407 0 0.0067-0.06733 0.09427-0.101 0.1279 0 0-0.0404 0.04713-0.04713 0.05387l-0.06733 0.09427-0.07407 0.1549c0 0.0067-0.0404 0.06733-0.04713 0.0808l-0.1279 0.2491c0 0.02693-0.05387 0.1818-0.06733 0.2289-0.0067 0.0202-0.0202 0.1077-0.0202 0.1279v0.3232c0 0.06733 0.0404 0.1481 0.06733 0.2087 0.0067 0 0.0202 0.0202 0.0202 0.02693 0.1549 0.1279 0.2559 0.1818 0.4444 0.2222 0.02693 0.0067 0.1145 0.02693 0.1212 0.02693h0.1751c0.0067 0 0.06733-0.02693 0.07407-0.02693 0.1279-0.03367 0.1818-0.1414 0.2963-0.2155 0 0 0.0404-0.04713 0.04713-0.05387 0.02693-0.01347 0.1953-0.1414 0.2155-0.1481 0.01347-0.0067 0.2693-0.2155 0.5454-0.505l0.1077-0.08753 0.1953-0.2087 0.1683-0.1145c0.1751-0.1212 0.2491-0.2424 0.2559-0.2559 0-0.0067 0.02693-0.0404 0.02693-0.04713l0.01347-0.02693c0.0067-0.01347 0.06733-0.0606 0.07407-0.07406 0.01347-0.0067 0.0606-0.1145 0.07407-0.1212 0.1885-0.09427-0.1145-0.2828-0.1953-0.2222-0.1212 0.101-0.1751 0.2626-0.2289 0.3501l-0.4511 0.4511-0.2222 0.2424-0.3636 0.3636-0.06733 0.05387c-0.01347 0-0.08753 0.0404-0.101 0.04713-0.0067 0.0067-0.08753 0.06733-0.09427 0.0808-0.01347 0-0.0404 0.01347-0.05387 0.0202-0.1414 0.0606-0.2087 0.1751-0.3636 0.1751-0.0808 0-0.03367-0.02693-0.1077-0.07406 0-0.03367 0.0404-0.1549 0.04713-0.1818 0.0067-0.0202 0.0808-0.1616 0.09427-0.202 0.0067-0.0067 0.02693-0.02693 0.03367-0.02693l0.1885-0.2289c0-0.01347 0.0404-0.07407 0.04713-0.0808 0.01347-0.0067 0.08753-0.1077 0.09426-0.1212 0.01347-0.0202 0.07407-0.1145 0.07407-0.1279 0.0067-0.0067 0.04713-0.06733 0.04713-0.0808 0.0067-0.0067 0.0202-0.07407 0.02693-0.09427 0.0067-0.0202 0.0202-0.1212 0.0202-0.1549v-0.02693c0-0.0404-0.01347-0.1414-0.0202-0.1481-0.0067-0.0202-0.1145-0.1414-0.1481-0.1818-0.08753-0.08753-0.2087-0.1481-0.3299-0.1751-0.02693 0-0.1145-0.0202-0.1279-0.02693h-0.0202c-0.0202 0.00673-0.1347 0.02693-0.1481 0.02693h-0.0202c-0.0067 0.00673-0.04713 0.0202-0.04713 0.0202l-0.101 0.03367c-0.05387 0.02693-0.3838 0.1751-0.4848 0.2424z"/><path d="m75.48 10.27c-0.0067 0.0067-0.05387 0.02693-0.06733 0.02693 0 0.0067-0.02693 0.02693-0.02693 0.03367-0.03367 0.0404-0.3165 0.2828-0.3299 0.2895l-0.2289 0.1616c-0.0404 0.0067-0.4444 0.3434-0.5454 0.3232 0 0.01347-0.02693 0.03367-0.02693 0.0404-0.01347 0-0.09426 0.0404-0.1077 0.0404-0.0202 0-0.1751 0.09427-0.202 0.09427h-0.1145c-0.0067 0-0.04713-0.05387-0.05387-0.06733 0-0.01347-0.0202-0.0606-0.0202-0.06733-0.0067 0-0.0202-0.02693-0.0202-0.02693-0.0067-0.01347-0.01347-0.0606-0.02693-0.07406 0-0.0202-0.01347-0.08753-0.01347-0.09427 0-0.0067-0.0202-0.0606-0.01347-0.06733-0.0067-0.02693-0.01347-0.1818-0.01347-0.2155 0.0067-0.02693 0.01347-0.3165 0.01347-0.4242l0.0067-0.02693c0-0.04713 0.0202-0.4646 0.02693-0.5185 0.0067-0.1347 0.02693-0.5387 0.03367-0.5656 0-0.01347 0.0067-0.1145 0.01347-0.1481 0.0067-0.03367 0.01347-0.101 0.01347-0.101 0.0067-0.0202 0.07406-0.1751 0.07406-0.202 0.0067-0.01347 0.05387-0.1751 0.05387-0.1885 0.0067-0.0202 0.03367-0.08753 0.04713-0.101 0-0.0202 0.0404-0.202 0.04713-0.2222l0.08753-0.1953s0.0202-0.04713 0.03367-0.0606c0 0 0.02693-0.08753 0.02693-0.09426l0.09427-0.08753c0.01347-0.03367 0.08753-0.1953 0.09426-0.2424h0.1212c0.0067 0 0.04713 0.02693 0.05387 0.0404l0.05387 0.06733c0 0.0202-0.01347 0.1279-0.01347 0.1481-0.0067 0.03367-0.0202 0.1414-0.0202 0.1414-0.0067 0.0404-0.06733 0.2087-0.08753 0.2491-0.01347 0.0404-0.1212 0.2155-0.1414 0.2559-0.01347 0.01347-0.0404 0.05387-0.0606 0.0606l-0.202 0.1077s-0.0067 0.00673-0.0067 0.01347l0.0067 0.01347c0 0.01347 0.05387 0.0606 0.05387 0.06733h0.1549c0.0067 0 0.06733-0.03367 0.08753-0.03367l0.0606-0.03367c0.01347-0.01347 0.08753-0.0808 0.09427-0.09426 0.01347-0.0202 0.1145-0.1616 0.1347-0.202 0.0067-0.00673 0.06733-0.101 0.07407-0.1212 0.01347-0.02693 0.03367-0.0808 0.03367-0.09426 0.0202-0.0808 0.0808-0.3434 0.07407-0.3771 0.0067-0.03367-0.02693-0.1818-0.03367-0.2087 0-0.00673-0.0202-0.1077-0.0202-0.1145-0.0067-0.0202-0.09427-0.1145-0.1212-0.1279l-0.1683-0.1077c-0.0067-0.00673-0.06733-0.0202-0.0808-0.0202 0 0-0.0808-0.00673-0.1077-0.00673-0.02693 0-0.1212 0.00673-0.1279 0.00673-0.0202 0-0.1145 0.0202-0.1279 0.0202 0 0.00673-0.02693 0.06733-0.02693 0.0808-0.0067 0-0.02693 0.0202-0.03367 0.02693-0.01347 0.01347-0.06733 0.07406-0.06733 0.08753-0.03367 0.06733-0.2222 0.404-0.2895 0.4848l-0.202 0.3905c0 0.00673-0.0404 0.07406-0.0404 0.0808l-0.07407 0.1347c-0.0067 0.0202-0.1212 0.2289-0.1279 0.2559-0.0202 0.03367-0.1347 0.2626-0.1414 0.2963-0.0067 0.00673-0.07407 0.1683-0.08753 0.2087l-0.0808 0.2761-0.0606 0.303c0 0.0202-0.0202 0.1616-0.02693 0.2222 0 0.0404-0.01347 0.1885-0.01347 0.1953 0 0.01347 0.0067 0.1347 0.0067 0.1683 0 0.01347 0.02693 0.2424 0.0404 0.3165 0.0067 0.01347 0.01347 0.08753 0.01347 0.101 0.01347 0.02693 0.0404 0.1414 0.04713 0.1481l0.0606 0.1683c0.01347 0.01347 0.05386 0.07406 0.0606 0.08753 0.01347 0.0404 0.06733 0.1347 0.06733 0.1347 0.0067 0.0067 0.09427 0.1077 0.1279 0.1279l0.08753 0.0606c0.02693 0.01347 0.1077 0.04713 0.1077 0.07407 0 0 0.08753 0.0202 0.1077 0.02693 0.04713 0.0067 0.1549 0.02693 0.1683 0.02693 0.0202 0 0.1279 0.0067 0.1683 0.0067 0.0404 0 0.1414-0.0067 0.1481-0.0067 0.04713 0 0.2289-0.1145 0.2828-0.1212 0.01347-0.0067 0.1212-0.0808 0.1481-0.1077 0.0202-0.0067 0.1145-0.08753 0.1347-0.101 0.0067 0 0.1347-0.07407 0.1481-0.0808 0.2693-0.1885 0.3367-0.2963 0.4377-0.3636l0.2222-0.202c0.01347 0 0.07407-0.05387 0.0808-0.05387-0.0067-0.05387 0.2289-0.2559 0.2491-0.2761 0.1347-0.0808 0.0808-0.202-0.05387-0.1481z"/><path d="m78.37 9.597-0.01347-0.1481c-0.04713-0.0808-0.0808-0.05387-0.1347-0.02693-0.06733 0.0404-0.1549 0.0808-0.1751 0.08753-0.01347 0-0.1347 0.05387-0.1481 0.05387-0.02693 0.01347-0.5117 0.04713-0.5185 0.04713h-0.1212c-0.0067 0-0.101-0.3232-0.1549-0.3434 0 0 0.0067-0.0202 0.0067-0.02693 0-0.00673 0.0067-0.02693 0.0067-0.02693-0.0067 0-0.0202-0.01347-0.02693-0.0202-0.01347-0.01347-0.09426-0.02693-0.1077-0.02693h-0.2693c-0.01347 0.00673-0.0606 0.0404-0.0606 0.04713-0.0067 0.00673-0.04713 0.101-0.05387 0.1347 0 0.00673-0.01347 0.05387-0.01347 0.0606-0.0067 0.0202-0.0067 0.0606-0.0067 0.06733 0 0.00673 0.03367 0.08753 0.03367 0.09426 0 0.01347 0.01347 0.06733 0.01347 0.0808 0.01347 0.0202 0.1077 0.1347 0.1077 0.1549 0.0067 0.01347 0.0202 0.0404 0.0202 0.05387v0.1751c0 0.01347 0.03367 0.09427 0.03367 0.101 0 0.0067 0.0067 0.08753 0.0067 0.09427 0 0.0067 0.0202 0.04713 0.01347 0.0606 0 0-0.0067 0.0808-0.01347 0.1145 0 0.0202-0.0202 0.1077-0.02693 0.1145 0 0.0067-0.03367 0.06733-0.0404 0.07407 0 0.01347-0.07407 0.1549-0.0808 0.1751-0.0202 0.0404-0.1481 0.1818-0.1751 0.202-0.0067 0.0202-0.1077 0.07407-0.1212 0.08753-0.0067 0-0.02693 0.01347-0.02693 0.0202-0.0067-0.0067-0.02693-0.0202-0.02693-0.0202-0.0067-0.0067-0.02693-0.04713-0.0202-0.05387 0-0.0067-0.0404-0.04713-0.04713-0.05387l-0.0404-0.07407c-0.0067-0.0202-0.03367-0.09427-0.03367-0.1077-0.0067-0.0067-0.0067-0.09427-0.0067-0.1279l0.0067-0.04713c0.0067-0.0067 0-0.07407-0.0067-0.09427 0-0.02693-0.02693-0.1683-0.0202-0.1818 0.0067-0.03367 0.01347-0.2289 0.0202-0.2828 0-0.0067 0.01347-0.0808 0.0202-0.1077 0.0067-0.02693 0.01347-0.09426 0.0202-0.101 0-0.00673 0.0404-0.09426 0.0404-0.101l0.04713-0.1279 0.04713-0.101c0.0067 0 0.0404-0.04713 0.0404-0.04713 0-0.00673 0.02693-0.07406 0.0404-0.0808 0.0067-0.00673 0.08753-0.09426 0.101-0.101 0-0.00673 0.0606-0.0606 0.0606-0.07406 0.03367-0.01347 0.1145-0.08753 0.1347-0.1077 0.0067-0.00673 0.0808-0.04713 0.08753-0.04713 0.0067 0 0.03367-0.0606 0.03367-0.0808l0.0202-0.0404c0-0.01347-0.0067-0.03367-0.0067-0.03367s-0.02693-0.0202-0.0404-0.0202c-0.03367-0.00673-0.1347-0.04713-0.1616-0.05387-0.01347 0-0.1212-0.0202-0.1549-0.02693h-0.0606s-0.01347 0.0202-0.02693 0.02693c0 0.00673-0.05387 0.06733-0.06733 0.07406l-0.06733 0.05387c0 0.00673-0.06733 0.01347-0.08753 0.0202-0.01347 0.0202-0.1683 0.1212-0.1818 0.1279l-0.1212 0.0808-0.06733 0.07406-0.1616 0.1279c-0.0202 0.01347-0.1145 0.1279-0.1347 0.1549l-0.1818 0.2491c-0.0067 0.0202-0.07406 0.1414-0.0808 0.1549-0.01347 0.0202-0.07406 0.1212-0.07406 0.1279-0.03367 0.05387-0.1279 0.2963-0.1414 0.3299 0 0.0067-0.0067 0.04713-0.01347 0.06733 0 0.01347-0.0067 0.0606-0.01347 0.06733 0 0.0067 0.0067 0.1145 0.0067 0.1549v0.1212c0.01347 0.0606 0.0202 0.202 0.0202 0.2087 0 0.03367 0.05386 0.1751 0.06733 0.202 0.0202 0.0202 0.101 0.1279 0.1077 0.1549l0.1549 0.101c0 0.0067 0.03367 0.0202 0.04713 0.02693 0.07406 0.02693 0.2963 0.09427 0.303 0.09427 0.0067 0 0.07406 0.0067 0.09426 0.0067 0.03367 0 0.1212-0.0067 0.1212-0.0067 0.04713 0 0.2424-0.0202 0.2895-0.0202 0.01347 0 0.1077-0.0202 0.1347-0.0202 0.0202-0.0067 0.0808-0.02693 0.08753-0.02693l0.1279-0.05387 0.09427-0.0808s0.04713-0.01347 0.05387-0.0202c0.0067 0 0.02693-0.0404 0.0404-0.05387 0.0067-0.0202 0.1077-0.2087 0.1212-0.2289 0.0067-0.0202 0.05387-0.0808 0.07407-0.1077 0.0067 0 0.05387-0.06733 0.0606-0.07406 0.01347-0.0067 0.0404-0.09427 0.0606-0.1279 0.01347-0.0404 0.05387-0.1818 0.05387-0.2087l0.02694-0.1077c0.0067-0.03367 0.01347-0.1077 0.01347-0.1145 0.0067-0.01347 0-0.1145 0-0.1212 0-0.04713 0-0.1885 0.0067-0.2087 0-0.0067 0.0067-0.08753 0.01347-0.1145 0-0.01347 0.02693-0.101 0.02693-0.1212 0.0067 0 0.02693-0.0202 0.0404-0.0202 0.0067-0.00673 0.07407 0 0.0808 0 0.0067 0 0.5454-0.01347 0.5858-0.02693 0.01347 0 0.1279-0.0202 0.1414-0.0202l0.08753 0.01347 0.1077-0.02693z"/><path d="m77.91 10.34-0.1481 0.8417v0.1145c0.01347 0.1077 0.0606 0.4713 0.07407 0.5252l0.03367 0.1145 0.0404 0.09427c0 0.0067 0.02693 0.0404 0.0404 0.04713 0.01347 0.01347 0.0606 0.05387 0.0808 0.0606 0.01347 0.0202 0.1212 0.0808 0.1347 0.09426 0.01347 0 0.07407 0.0202 0.08753 0.02693 0.0606 0.01347 0.2626 0.05387 0.2828 0.05387 0.0067 0 0.101 0.0067 0.1414 0.0067 0.03367 0 0.1279-0.0067 0.1347-0.0067 0.0067 0 0.06733-0.0202 0.09427-0.02693 0.0067-0.0067 0.09426-0.05387 0.1145-0.05387l0.09427-0.0606c0.08753-0.07407 0.3367-0.2963 0.3501-0.3232 0.02693-0.01347 0.1549-0.2222 0.1953-0.2895 0.0067-0.0067 0.0404-0.101 0.04713-0.1212 0-0.0067 0.03367-0.04713 0.0404-0.05387 0.0067-0.0202 0.0404-0.0808 0.0404-0.08753l0.1347-0.7541-0.0202-0.0606-0.0404-0.0808c-0.01347-0.02693-0.02693-0.1145-0.02693-0.1212v-0.101c0.0202-0.0067 0.1212 0.04713 0.1414 0.03367 0.01347 0 0.4713 0.0202 0.4848 0.01347 0.1414 0.01347 0.6599-0.0808 0.7743-0.1212-0.0067 0 0.0606 0.0404 0.07407 0.02693 0.05387-0.01347 0.1481-0.04713 0.1683-0.05387 0.01347-0.0067 0.0202-0.04713 0.0202-0.0606 0.0067 0 0.0404-0.04713 0.04713-0.05386 0-0.00673 0.0067-0.02693 0.0067-0.02693v-0.03367c0-0.00673-0.03367-0.02693-0.05387-0.02693-0.01347-0.00673-0.03367-0.02693-0.0808-0.03367h-0.07407c-0.03367 0.00673-0.3434 0.101-0.3703 0.101-0.03367 0-0.202 0.09426-0.5454 0.09426-0.03367 0-0.3636 0.0202-0.4444 0.0067-0.0067 0-0.1347-0.05386-0.1481-0.05386-0.01347 0-0.07406-0.05387-0.07406-0.05387-0.01347-0.00673-0.02693-0.1145-0.03367-0.1212-0.02693-0.0202-0.1279-0.0808-0.1549-0.0808-0.0067 0-0.0808-0.00673-0.1145-0.00673-0.02693 0-0.1279 0.00673-0.1347 0.00673-0.01347 0-0.07406 0.0202-0.08753 0.02693 0 0-0.0202 0.0202-0.02693 0.0202l-0.09426 0.0606c-0.0202 0.01347-0.08753 0.07406-0.101 0.09426 0.0067 0.00673-0.01347 0.07406 0 0.0808 0.01347 0.01347 0.1616 0.1616 0.1751 0.1683 0.0202 0.01347 0.1481 0.03367 0.1549 0.0404h0.0606s0.01347 0.04713 0.0202 0.05387c0 0.0067 0.03367 0.05386 0.0404 0.0606 0 0.0067 0.0202 0.04713 0.01347 0.0606 0 0.0067 0.0067 0.08753 0.0067 0.1077-0.0067 0.0067-0.0067 0.03367-0.0067 0.03367 0 0.0404-0.0067 0.1616 0 0.1751 0 0.0067 0.01347 0.07406 0.01347 0.08753 0 0 0 0.0404-0.0067 0.0606 0 0.01347-0.0067 0-0.0067 0-0.03367 0.06733 0.03367 0.1818-0.03367 0.3165-0.0067 0.0067-0.02693 0.04713-0.0404 0.05387l-0.06733 0.1751-0.0808 0.09426c0 0.0067-0.1414 0.1414-0.1481 0.1481-0.05387 0.06733-0.1953 0.1683-0.2559 0.1481-0.07407-0.0067-0.2222-0.1414-0.2222-0.1414-0.0606-0.05387-0.06733-0.2357-0.06733-0.2491-0.0067-0.02693 0-0.2895 0-0.3165 0-0.03367 0-0.1279-0.0067-0.1481v-0.1145s0.01347-0.0606 0.01347-0.0808c0.0067-0.02693 0.01347-0.08753 0.0202-0.09427 0.0067-0.05387 0.06733-0.2963 0.0808-0.3501 0.0067-0.01347 0.0606-0.1549 0.0606-0.1683 0.01347-0.02693 0.02693-0.1885 0.0404-0.2087 0-0.01347 0.1279-0.2828 0.1818-0.3838 0.01347-0.0404 0.07407-0.1683 0.07407-0.1683 0.0202-0.01347 0.09427-0.07406 0.101-0.08753 0 0 0.0067-0.03367 0.01347-0.0404v-0.04713s-0.01347-0.0202-0.01347-0.02693c-0.01347-0.00673-0.04713-0.02693-0.0606-0.02693-0.02693-0.0202-0.1549-0.05387-0.1751-0.06733-0.0202-0.00673-0.1481-0.02693-0.1818-0.02693h-0.08753c-0.0202 0-0.101 0.0202-0.1145 0.02693 0 0.00673-0.02693 0.02693-0.03367 0.03367l-0.03367 0.0606c-0.02693 0.07406-0.1347 0.1279-0.1818 0.2357l-0.07407 0.1616-0.01347 0.0808c0 0.00673-0.0202 0.06733-0.0202 0.06733-0.0067 0.0202-0.07407 0.1347-0.0808 0.1549-0.0067 0-0.04713 0.1077-0.0606 0.1414 0 0.0202-0.05387 0.1616-0.05387 0.1751z"/><path d="m83.84 10.8c0 0.1953 0.05387 0.3771 0.1414 0.5521 0.0067 0.01347 0.0404 0.06733 0.05387 0.0808 0.04713 0.0606 0.1212 0.1279 0.1953 0.1683 0.02693 0.01347 0.1279 0.05387 0.1414 0.05387 0.0067 0 0.1414 0.0067 0.1885 0.0067 0.03367 0 0.1683-0.0067 0.1953-0.0067l0.1145-0.05387c0.0202-0.0202 0.2155-0.1212 0.2761-0.1683 0.02693-0.0202 0.202-0.1145 0.2222-0.1279 0.1751-0.1347 0.1818-0.1347 0.4107-0.303 0.0067 0 0.2222-0.2087 0.2491-0.2222 0.02693-0.0202 0.3501-0.3367 0.3771-0.3569l0.1683-0.1145c0.0067 0 0.02693-0.0202 0.02693-0.02693v-0.0808c0-0.0067-0.0202-0.02693-0.02693-0.02693-0.0067 0-0.0606-0.0067-0.0808-0.0067s-0.0808 0.0067-0.08753 0.0067c-0.02693 0-0.1279 0.0202-0.1414 0.02693-0.0202 0.01347-0.3097 0.3299-0.3232 0.3434-0.1145 0.101-0.2491 0.2424-0.303 0.2693-0.0067 0.0067-0.05387 0.02693-0.05387 0.02693-0.03367 0.0202-0.1279 0.07407-0.1414 0.08753-0.1347 0.09427-0.4175 0.3367-0.4915 0.3636-0.03367 0.01347-0.1549 0.05387-0.1616 0.0606-0.01347 0-0.06733-0.01347-0.0808-0.01347 0-0.0202-0.0067-0.1077-0.0067-0.1279 0.0067-0.0202 0.0202-0.1414 0.02693-0.1683 0.0067-0.0067 0.02693-0.07407 0.02693-0.0808 0.0067-0.01347 0.02693-0.1279 0.03367-0.1414l0.0808-0.303 0.1077-0.5589v-0.0808c0-0.05387-0.0202-0.2087-0.02693-0.2289 0-0.00673-0.0404-0.0808-0.05387-0.1077-0.0202-0.0404-0.101-0.1549-0.1077-0.1683-0.0067 0-0.06733-0.0404-0.08753-0.05387-0.0067-0.00673-0.04713-0.02693-0.05387-0.02693-0.0202-0.00673-0.0808-0.02693-0.08753-0.02693 0 0-0.0808-0.00673-0.1077-0.00673-0.0202 0-0.0808 0.00673-0.0808 0.00673-0.0202 0-0.09427 0.0808-0.1145 0.1077-0.0067 0.00673-0.0202 0.0808-0.02693 0.08753l-0.1414 0.1077c-0.02693 0.03367-0.202 0.2289-0.2491 0.2761-0.0067 0.01347-0.04713 0.06733-0.05387 0.08753l-0.0606 0.1077c0 0.0067-0.0202 0.02693-0.02693 0.02693 0 0.0067-0.0202 0.05387-0.02693 0.0606l-0.02693 0.02693-0.05387 0.0808c-0.0067 0.01347-0.07407 0.1279-0.08753 0.1414-0.01347 0.02693-0.04713 0.08753-0.0808 0.1077v-0.05387l0.05387-0.1683 0.0606-0.2491v-0.1347l-0.03367-0.1683c0-0.00673-0.0202-0.04713-0.02693-0.0606l-0.1078-0.1077-0.1953-0.1145-0.1953-0.0808-0.1145 0.05387c0 0.00673-0.0202 0.02693-0.02693 0.02693-0.05387 0.0404-0.09427 0.0404-0.1683 0.0606-0.1279 0.03367-0.2559 0.0808-0.3569 0.1616l-0.1414 0.1145-0.02693 0.02693c-0.0067 0.00673-0.0202-0.00673-0.0202-0.00673 0-0.01347-0.01347-0.06733-0.0067-0.07406 0.01347-0.1212 0.05387-0.2155 0.05387-0.3434v-0.07406c0-0.0202-0.0404-0.09426-0.05387-0.1145-0.0067-0.00673-0.05387-0.0202-0.05387-0.02693-0.01347-0.01347-0.05387-0.09426-0.0606-0.1077-0.0404-0.01347-0.2559-0.05387-0.303-0.0606-0.01347 0-0.101 0.02693-0.1145 0.02693l-0.1347 0.03367h-0.02693c-0.0067 0-0.02693 0.0202-0.03367 0.02693l-0.0539 0.08079c-0.0067 0.0202-0.02693 0.1481-0.02693 0.1683 0 0.01347-0.0202 0.09426-0.02693 0.1077-0.0067 0.0202-0.02693 0.0808-0.02693 0.08753-0.1077 0.2491-0.2424 0.4915-0.3367 0.7474-0.0067 0.02693-0.02693 0.101-0.02693 0.1145v0.5252c0.0067 0.0202 0.0404 0.101 0.05387 0.1145l0.1145 0.0808c0.0067 0.0067 0.04713 0.02693 0.05387 0.02693 0.0202 0.01347 0.101 0.03367 0.1145 0.03367h0.2761c0.01347-0.0067 0.04713-0.04713 0.05387-0.0606 0.0067-0.0067 0.05387-0.101 0.05387-0.1077 0.0067-0.0067 0.05387-0.05387 0.0606-0.05387l0.05387-0.08753 0.02693-0.02693 0.05387-0.1077c0.0067-0.01347 0.1077-0.1279 0.1414-0.1683 0-0.0067 0.02693-0.02693 0.02693-0.02693l0.1683-0.1953 0.05387-0.08753c0.0067-0.0067 0.07407-0.101 0.08753-0.1077 0.0067-0.0202 0.06733-0.1549 0.0808-0.1683l0.1145-0.05387c0.0067-0.01347 0.09426-0.101 0.1077-0.1145l0.1145-0.0808c0-0.00673 0.01347 0.00673 0.01347 0.00673 0 0.00673 0.01347 0.0404 0.01347 0.04713l-0.1145 0.3367c-0.01347 0.0404-0.05387 0.1953-0.05387 0.2222-0.0067 0.03367-0.02693 0.2693-0.02693 0.3299 0 0.0067-0.0067 0.1347-0.0067 0.1818 0 0.02693 0.0067 0.1549 0.0067 0.1818 0.06733 0.101 0.1549 0.2155 0.2761 0.2491 0.0202 0.0067 0.1549 0.02693 0.1953 0.02693 0 0 0.04713 0.0067 0.0606 0.0067 0.05387 0 0.101-0.01347 0.1347-0.0606l0.1145-0.1683 0.0808-0.1683c0.01347-0.01347 0.101-0.1481 0.1077-0.1616 0.05387-0.0808 0.09427-0.1751 0.1414-0.2559 0.01347-0.01347 0.05387-0.07407 0.05387-0.0808 0.01347-0.01347 0.1077-0.09427 0.1145-0.1077l0.05387-0.1414c0.01347-0.0202 0.05387-0.101 0.05387-0.1145l0.08753-0.1077v0.05387l-0.08753 0.2222c-0.05387 0.1953-0.0808 0.3905-0.0808 0.5925z"/></g><g stroke-width=".121px" aria-label="EARTH"><path d="m67.73 14.05h1.328v0.2285h-1.097v0.7249h1.087v0.2269h-1.087v0.9093h1.087v0.2285h-1.319z"/><path d="m70.65 14.05 1.081 2.318h-0.249l-0.364-0.7627h-0.9991l-0.3625 0.7627h-0.2584l1.095-2.318zm-0.02837 0.4917-0.3987 0.84h0.7927z"/><path d="m72.35 14.05h0.4617q0.3861 0 0.5232 0.03152 0.2064 0.04728 0.3357 0.2033 0.1292 0.1544 0.1292 0.3814 0 0.1891-0.08983 0.3325-0.08825 0.1434-0.2537 0.2175-0.1655 0.07249-0.457 0.07407l0.8336 1.078h-0.2868l-0.8321-1.078h-0.1324v1.078h-0.2317zm0.2317 0.2269v0.7879l0.3987 0.0032q0.2317 0 0.342-0.04412 0.1119-0.04412 0.1733-0.1403 0.06304-0.09771 0.06304-0.2175 0-0.1166-0.06304-0.2112-0.06304-0.09613-0.1655-0.1371-0.1024-0.04097-0.3404-0.04097z"/><path d="m74.31 14.28v-0.2254h1.272v0.2254h-0.5169v2.093h-0.2364v-2.093z"/><path d="m76.14 14.05h0.2332v0.9723h1.179v-0.9723h0.2332v2.318h-0.2332v-1.119h-1.179v1.119h-0.2332z"/></g></g></g></svg>
