<?xml version="1.0" encoding="UTF-8"?>
<svg width="3.495mm" height="3.486mm" version="1.1" viewBox="0 0 3.494941 3.4858899" xmlns="http://www.w3.org/2000/svg"><path d="m0.6798 0.3231c-0.1965 0-0.3559 0.159-0.3559 0.3551v2.13c0 0.1957 0.1593 0.3547 0.3559 0.3547h1.182v-1.148h-0.2588v-0.3989h0.251c0-0.118 0.00114-0.2228 0-0.3322 0-0.3142 0.2412-0.4053 0.4584-0.4053h0.3661v0.3943h-0.2123c-0.00758 0-0.137-0.00733-0.137 0.1169 9.775e-4 0.05059 0 0.2253 0 0.2253h0.3505l-0.02835 0.3923h-0.3138v1.156h0.4779c0.1964 0 0.3559-0.1588 0.3559-0.3547v-2.13c0-0.1961-0.1595-0.3551-0.3559-0.3551z" fill="#96d571"/></svg>
