<?xml version="1.0" encoding="UTF-8"?>
<svg width="3.495mm" height="3.486mm" version="1.1" viewBox="0 0 3.494941 3.4858899" xmlns="http://www.w3.org/2000/svg"><path d="m1.747 0.5791c0.3801 0 0.4252 0.00163 0.5753 0.00831 0.3858 0.01752 0.566 0.2001 0.5835 0.582 0.00684 0.1497 0.00819 0.1946 0.00819 0.5738 0 0.3792-0.00147 0.4241-0.00819 0.5738-0.01768 0.3816-0.1974 0.5645-0.5835 0.582-0.1502 0.00652-0.195 0.00831-0.5753 0.00831-0.3801 0-0.4252-0.00164-0.5752-0.00831-0.3867-0.0176-0.566-0.201-0.5835-0.5822-0.006843-0.1497-0.008301-0.1945-0.008301-0.5738 0-0.3791 0.001548-0.4239 0.008301-0.5738 0.01768-0.3818 0.1974-0.5645 0.5835-0.582 0.1502-0.00652 0.1951-0.00823 0.5752-0.00823zm0-0.2559c-0.3866 0-0.435 0.00163-0.5868 0.00847-0.517 0.02362-0.8043 0.3098-0.828 0.8259-0.007006 0.1516-0.008659 0.1998-0.008659 0.5855 0 0.3856 0.001629 0.434 0.008545 0.5855 0.02373 0.5157 0.3106 0.8022 0.828 0.8259 0.152 0.00652 0.2004 0.00847 0.587 0.00847 0.3866 0 0.4351-0.00164 0.587-0.00847 0.5165-0.02362 0.8045-0.3098 0.8279-0.8259 0.00701-0.1515 0.00866-0.1998 0.00866-0.5855 0-0.3856-0.00164-0.4339-0.00855-0.5854-0.02325-0.5152-0.3104-0.8022-0.8279-0.8259-0.152-0.00733-0.2005-0.00864-0.5871-0.00864zm0 0.6908c-0.4037 0-0.731 0.3265-0.731 0.7291s0.3273 0.7292 0.731 0.7292 0.731-0.3264 0.731-0.7292c0-0.4027-0.3273-0.7291-0.731-0.7291zm0 1.202c-0.262 0-0.4745-0.2118-0.4745-0.4733 0-0.2614 0.2125-0.4733 0.4745-0.4733 0.262 0 0.4745 0.2119 0.4745 0.4733 0 0.2615-0.2125 0.4733-0.4745 0.4733zm0.7599-1.402c-0.09443 0-0.1709 0.07633-0.1709 0.1704 0 0.09406 0.07652 0.1704 0.1709 0.1704 0.09431 0 0.1707-0.07633 0.1707-0.1704 0-0.09406-0.0764-0.1704-0.1707-0.1704z" fill="#96d571"/></svg>
