<?xml version="1.0" encoding="UTF-8"?>
<svg width="7.975mm" height="7.658mm" version="1.1" viewBox="0 0 7.9745278 7.6581016" xmlns="http://www.w3.org/2000/svg" xmlns:osb="http://www.openswatchbook.org/uri/2009/osb"><defs><linearGradient id="a" gradientTransform="matrix(-.0002278 -.005567 .002751 -.0004609 -27.87 240.4)" osb:paint="solid"><stop stop-color="#77a669" offset="0"/></linearGradient><linearGradient id="b" gradientTransform="matrix(.7771 0 0 1 -115.9 11.46)" osb:paint="solid"><stop stop-color="#c6b953" offset="0"/></linearGradient></defs><g transform="translate(3.752e-8 -289.3)"><g transform="matrix(.08164 0 0 .08164 -9.682 274.6)" stroke-width="9.97"><g transform="translate(-4.806e-5)"><g fill="url(#a)" stroke-width="9.97"><path d="m126 182.1c0.2844 0.4019 0.4229 0.8776 0.5983 1.331 0.072 0.1861 0.1585 0.3667 0.2229 0.5555 0.1167 0.3418 0.2013 0.694 0.3133 1.037 0.1627 0.3766 0.2798 0.7689 0.4202 1.154 0.0375 0.1028 0.0627 0.2107 0.111 0.3088 0.5172 1.051-0.1572-0.5467 0.3228 0.6325 0.0425 0.1199 0.0787 0.2422 0.1274 0.3597 0.0498 0.1201 0.1164 0.2326 0.1675 0.3521 0.1469 0.343 0.1416 0.394 0.2692 0.7386 0.1289 0.3481 0.1329 0.3355 0.2946 0.6668 0.3554 0.6827 0.6111 1.412 0.9296 2.112 0.1138 0.2616 0.183 0.3891 0.2499 0.6674 0.0247 0.1029 0.0269 0.2102 0.0501 0.3135 0.0542 0.241 0.1448 0.4805 0.2153 0.7176 4e-3 0.0559-3.3e-4 0.1131 0.0124 0.1677 0.0319 0.1372 0.0871 0.1564 0.1575 0.2776 0.1106 0.1902 0.2124 0.3867 0.2982 0.5894 0.3003 0.4945 0.4335 1.062 0.6292 1.601 0.0956 0.5671 0.2757 1.111 0.4696 1.651 0.1477 0.5316 0.2979 1.041 0.3139 1.596-3e-3 0.6574 0.0166-0.1772-0.0465 0.4426-0.0249 0.2448 0.0432 0.0159 0.046 0.2712 7e-3 0.6677-0.1013-0.4061-8e-3 0.3715 6e-3 0.0773 0.0122 0.1546 0.0183 0.232-5e-3 0.082-0.0178 0.1639-0.0137 0.2459 4e-3 0.0818 0.0348 0.161 0.038 0.2428 3e-3 0.0771-0.0165 0.1536-0.0194 0.2307-3e-3 0.0764 6e-3 0.3129 9e-3 0.3953-0.0121 0.0561-0.0356 0.1109-0.0364 0.1682-7.3e-4 0.0533 0.0296 0.1035 0.032 0.1568 5e-3 0.1108-0.0413 0.2075-0.0458 0.3171-5e-3 0.1253 0.0164 0.2503 0.0215 0.3756-0.0161 0.1498 0.0658 0.2894 0.0662 0.4366 2.1e-4 0.0753-0.0351 0.1472-0.0395 0.2223-4e-3 0.0695 0.0167 0.1387 0.0146 0.2082-2.4e-4 8e-3 -0.0415 0.2857-0.0463 0.3176-0.1776 0.5522-1.554 0.0387-1.62 0.0294-0.0679-0.01 0.1168-0.0719 0.1751-0.1078-7.2e-4 -0.4395 0.8507-0.4409 0.8515-1e-3 0.0734 0.0357 0.3008 0.0952 0.2201 0.1071-1.862 0.2759-1.346 0.5517-1.652-0.0215-0.0619-0.5134 0.0262 0.3281 0.0147-0.3194-1e-3 -0.0711-0.032-0.139-0.0382-0.2098-0.0198-0.2268 0.054-0.4425 0.0223-0.6688 0.0117-0.1279 0.0346-0.255 0.0377-0.3834 3e-3 -0.1051-0.0397-0.2089-0.0323-0.3138 0.0244-0.3443 0.0887 0.0549 7e-3 -0.3049-6e-3 -0.4485-0.038-0.8953-0.0361-1.344 0.0109-0.0763 0.0217-0.1527 0.0326-0.229-5e-3 -0.0698-0.0208-0.1397-0.0155-0.2095 0.012-0.1595 0.1405-0.3489 0.0345-0.493-0.0366-0.424-0.2809-0.784-0.3733-1.197-0.0296-0.1046-0.053-0.2111-0.0889-0.3137-0.0352-0.1008-0.0973-0.1919-0.124-0.2952-0.028-0.1081-0.0166-0.2234-0.0387-0.3328-0.056-0.2773-0.1664-0.5486-0.2348-0.823-0.0291-0.2184-0.0752-0.4149-0.1716-0.6149-0.0304-0.063-0.0751-0.1189-0.1014-0.1838-0.2944-0.7252 0.2458 0.4171-0.1534-0.4015-0.2802-0.4336-0.456-0.9357-0.627-1.421-0.228-0.455-0.2721-0.983-0.5836-1.402-0.2808-0.715-0.6196-1.401-0.9437-2.096-0.3053-0.7045-0.5712-1.425-0.8353-2.146-0.145-0.3138-0.3056-0.6177-0.4556-0.9284-0.4506-0.9334 0.1551 0.2468-0.3251-0.7644-0.0708-0.149-0.1541-0.2918-0.2312-0.4376-0.0286-0.0748-0.3939-1.032-0.4154-1.087-0.2592-0.6613-0.4976-1.299-0.487-2.023-0.2719-1.046 1.754-1.572 2.026-0.5267z"/><path d="m134.1 182.2c0.0606 0.8441 0.0168-0.1889-0.0601 0.8219-0.0138 0.1812 0.0217 0.3638 9e-3 0.545-0.0284 0.4116-0.1275 0.6754-0.1964 1.078-0.0278 0.1625-0.0418 0.3271-0.0626 0.4907-0.1416 0.6638-0.0531 0.1606-0.1186 0.7944-0.0117 0.1126-0.0354 0.224-0.0439 0.3369-0.0275 0.3663 0.016 0.72 0.0698 1.081 9e-3 0.1463 0.0183 0.2925 0.0275 0.4388 0.0153 0.15 0.0356 0.2997 0.0457 0.4501 0.0102 0.1522-4e-3 0.306 0.0152 0.4572 0.0196 0.1498 0.079 0.2923 0.1021 0.4416 0.0427 0.2765 0.0482 0.5575 0.0822 0.8352 0.01 0.127 9e-3 0.2553 0.0288 0.3812 0.0187 0.1186 0.0656 0.2315 0.0862 0.3498 0.0191 0.1102 0.0185 0.2231 0.0326 0.3341 0.0434 0.3408 0.0746 0.6709 0.0936 1.014 0.0761 0.6364-0.0474 1.274-0.0572 1.909 0.0336 0.6726-0.0307 1.348-0.0688 2.021-0.0954 0.9961 0.0405-0.3126-0.099 0.6962-0.0161 0.1167-0.0175 0.235-0.0312 0.352-0.0383 0.3275-0.1096 0.6402-0.1978 0.9572-0.0576 0.2806-0.1967 0.5356-0.3434 0.779-0.1201 0.1992-0.2322 0.2899-0.3336 0.5096-0.125 0.1416-0.2063 0.3029-0.299 0.4636-0.0329 0.0571-0.0809 0.1049-0.1108 0.1636-0.0613 0.1204-0.0952 0.2529-0.1455 0.3782-0.0903 0.2146-0.0896 0.4511-0.1443 0.6739-0.0201 0.082-0.0617 0.1583-0.0773 0.2413-0.1521 0.8109 0.137-0.3094-0.0736 0.4621-0.1051 0.1646-0.0727 0.3606-0.1222 0.5383-0.0396 0.1421-0.1174 0.2886-0.183 0.4208-0.0357 0.079-0.0293 0.1708-0.0614 0.2506-0.0119 0.0295-0.041 0.0495-0.0543 0.0784-0.0174 0.0377-0.0154 0.112-0.03-0.0108 0.2227-0.8738-2.152-0.087-1.086-0.3744 0.1115-0.3453 0.7804-0.1293 0.6689 0.216 0.0314 0.0786 0.1737 0.2064 0.0943 0.2359-1.387 0.5149-1.248 0.595-1.419-0.1149-0.0375-0.164-0.0443-0.2989 0.0267-0.4584 0.0195-0.0438 0.0594-0.0768 0.0771-0.1213 0.028-0.0708-7e-3 -0.1584 0.0498-0.2228 0.0901-0.219 0.1513-0.4398 0.1735-0.6785 5e-3 -0.1528-0.01-0.3069 0.01-0.4586 0.013-0.1006 0.0482-0.1972 0.0683-0.2967 0.0699-0.3462 0.1257-0.6954 0.2494-1.029 0.238-0.4451 0.4634-0.8906 0.7756-1.29 0.2007-0.1876 0.3199-0.4517 0.3822-0.7184 0.1681-0.5809 0.1594-1.194 0.2127-1.793 0.0661-0.4435 0.0598-0.8873 0.1042-1.333 0.0101-0.1018 0.0362-0.2018 0.0434-0.3038 7e-3 -0.1059 3.2e-4 -0.2123 4.8e-4 -0.3185 0.0166-0.7379-0.0134 0.1112 0.0449-0.6022 0.041-0.5015-0.0143-0.0631-4e-3 -0.5531 0.017-0.8348 0.0422 0.3028 0.016-0.5253-0.0267-0.6653-0.2708-1.299-0.3424-1.96-0.0373-0.1447-0.0837-0.2874-0.112-0.4342-0.0144-0.0749-0.114-0.8889-0.1218-0.9552-0.0191-0.1638-0.0473-0.3271-0.054-0.4919-0.0126-0.309 0.0436-0.6184 0.0139-0.9277-0.0888-1.82 0.0263 0.9269 0.0138-0.8476-9.7e-4 -0.1378-0.0401-0.2735-0.0407-0.4113-2e-3 -0.4334 0.1305-0.8637 0.0979-1.3 0.0876-0.5276 0.1614-1.056 0.2541-1.583 0.0312-0.1774 0.0478-0.3578 0.0921-0.5324 0.068-0.2682 0.2056-0.5155 0.2588-0.7886 0.1217-0.9152 1.895-0.6794 1.773 0.2358z"/><path d="m122.9 185.9c0.0792 0.1177 0.1778 0.2244 0.2377 0.353 0.0696 0.1494 0.0878 0.3182 0.1465 0.4722 0.0642 0.1686 0.1496 0.3283 0.2216 0.4938 0.1773 0.4076 0.3554 0.8153 0.5271 1.225 0.1109 0.1655 0.1999 0.3694 0.3416 0.5145 0.0413 0.0423 0.0954 0.0702 0.1391 0.11 0.0817 0.0745 0.308 0.3179 0.3744 0.3882 0.1209 0.2099 0.2924 0.3838 0.4257 0.5846 0.0731 0.11 0.1288 0.2309 0.2 0.3421 0.2252 0.3518 0.4762 0.6776 0.6891 1.038 0.2007 0.316 0.4016 0.6351 0.5838 0.9623 0.0559 0.1004 0.097 0.2086 0.1553 0.3076 0.038 0.0644 0.3279 0.4691 0.3689 0.5267 0.112 0.3218 0.3748 0.5367 0.5683 0.8015 0.0711 0.0973 0.1232 0.2071 0.1876 0.3089 0.3673 0.5804 0.075 0.0731 0.4218 0.7015 0.5072 0.647 0.6055 1.472 0.9206 2.206 0.1089 0.3896 0.2075 0.791 0.3549 1.169 0.0359 0.0922 0.082 0.1801 0.123 0.2702 0.0348 0.0958 0.0696 0.1916 0.1044 0.2874 0.0291 0.1118 0.0581 0.2235 0.0872 0.3352 0.0461 0.1083 0.1056 0.2119 0.1384 0.325 0.0339 0.1168 0.0335 0.2411 0.0603 0.3597 0.0755 0.3343 0.1795 0.6681 0.2655 1 0.0121 0.104 0.051 0.4691 0.0764 0.5752 0.0213 0.0888 0.0699 0.17 0.087 0.2597 0.0181 0.0949 3e-3 0.1938 0.0179 0.2892 0.1065 0.674 0.0385-0.2159 0.0777 0.4665 0.0175 0.0767 0.0265 0.1558 0.0525 0.23 0.1798 0.5127 0.0183-0.1339 0.1709 0.3978 0.051 0.1778 0.0883 0.3688 0.121 0.551 0.1254 0.2745-0.0109 2.8e-4 -0.101 0.0248-0.5652 0.154-1.842 0.7245-1.143 0.4144-0.0707-0.4327 0.7675-0.5697 0.8382-0.137 0.0763 0.0271 0.2962 0.036 0.229 0.0811-1.158 0.7785-1.225 0.9955-1.668 0.2233-0.2409-0.4514-0.3628-0.9359-0.4818-1.431-0.0459-0.2292-0.0521-0.4955-0.1317-0.7156-0.0323-0.0892-0.0991-0.1642-0.1256-0.2553-0.057-0.1959 4e-3 -0.4178-0.1218-0.5999-0.0138-0.0995-0.0186-0.2008-0.0415-0.2986-0.0488-0.2089-0.1588-0.4009-0.1797-0.6179-0.0229-0.0991-0.0329-0.2012-0.0611-0.2989-0.2684-0.9295 0.0289 0.3142-0.1741-0.5746-0.2544-0.5213-0.0387-0.0368-0.2197-0.5737-0.1319-0.391-0.3215-0.765-0.3993-1.173-0.1679-0.4054-0.089-0.1988-0.2362-0.6199-0.1286-0.3212-0.289-0.6233-0.4461-0.9303-0.0534-0.1045-0.1004-0.2122-0.1505-0.3183-0.3347-0.6104-0.7938-1.131-1.149-1.729-0.2867-0.5567 8e-3 -0.0167-0.3448-0.5673-0.0597-0.0932-0.105-0.1952-0.1665-0.2871-0.5616-0.8386 0.1288 0.2672-0.4495-0.5822-0.0752-0.1105-0.1362-0.2301-0.2044-0.3451-0.2155-0.3582-0.4616-0.7011-0.6529-1.073-0.1163-0.2263-0.1462-0.3741-0.2939-0.5754-0.0432-0.0589-0.1017-0.1049-0.1526-0.1574-0.0404-0.0481-0.0809-0.0962-0.1213-0.1444-0.0341-0.0474-0.0655-0.097-0.1024-0.1423-0.278-0.3423-0.6381-0.6142-0.8714-0.9947-0.0479-0.0824-0.4893-0.8391-0.5159-0.8925-0.331-0.6662-0.5077-1.401-0.5367-2.143-0.2158-0.9957 1.713-1.414 1.929-0.4181z"/><path d="m139.4 188.7c-0.0485 0.1066-0.089 0.2172-0.1456 0.3197-0.075 0.1356-0.1676 0.2606-0.2484 0.3928-0.336 0.5499-0.6839 1.091-1.046 1.625-0.0978 0.2019-0.2273 0.3873-0.3259 0.5889-0.0419 0.0856-0.0675 0.1787-0.1114 0.2632-0.1294 0.249-0.2831 0.4692-0.3962 0.7285-0.1719 0.2729-0.3583 0.5463-0.5669 0.7938-0.2461 0.2921-0.0666 0.0111-0.2503 0.3326-0.036 0.0675-0.067 0.1379-0.108 0.2026-0.0408 0.0644-0.0966 0.1186-0.1368 0.1835-0.1421 0.2293-0.2288 0.5442-0.3529 0.7968-0.1788 0.4089-0.3588 0.8252-0.6318 1.181-0.0825 0.1532-0.1982 0.29-0.286 0.4383-0.0458 0.0774-0.0634 0.1938-0.082 0.2763-0.0448 0.2001-0.1537 0.373-0.2016 0.5731-0.0203 0.0847-0.0181 0.174-0.0404 0.2581-0.055 0.2075-0.146 0.4037-0.2187 0.6056-0.1978 0.8489 0.0659-0.213-0.1953 0.6259-0.0316 0.1015-0.0279 0.2139-0.0715 0.3109-0.0389 0.0866-0.1191 0.1482-0.1705 0.228-0.1645 0.3034-0.0748 0.1577-0.2685 0.4375-0.034 0.045-0.2147 0.2888-0.2649 0.3386-0.0389 0.0386-0.093 0.06-0.1303 0.1-0.0692 0.0742-0.0973 0.2264-0.1472 0.3194-0.1818 0.2668-0.2368 0.5905-0.3264 0.8934-0.0559 0.1892-0.1343 0.3711-0.1996 0.5573-0.1543 0.3082-0.3179 0.6598-0.596 0.8805-0.1073 0.0851-0.2137 0.1197-0.3369 0.1702-0.3479 0.1033-0.4979-0.0771-0.7616-0.2938-0.1609-0.0567-0.0511-0.3684 0.1098-0.3118-0.156-0.157-0.2888-0.2998-0.4763-0.4136-6e-3 -0.0222-0.0221-0.044-0.0181-0.0666 5e-3 -0.0266 0.3264-0.4992 0.278-0.5313 0.0723-0.2639 0.1782-0.5122 0.2576-0.7739 0.0905-0.2982 0.158-0.5944 0.3561-0.8469 0.1961-0.4013 0.0468-0.1456 0.3123-0.494 0.1062-0.1394 0.1914-0.3061 0.3599-0.3802 0.0407-0.1325 0.1038-0.2543 0.1484-0.3852 0.0975-0.2863 0.1271-0.593 0.2595-0.8684 0.0238-0.0783 0.1701-0.5649 0.2008-0.6437 0.1247-0.3204 0.3316-0.6058 0.4204-0.9403 0.1798-0.2939 0.3078-0.6164 0.4703-0.9197 0.4148-0.5439-0.244 0.335 0.1712-0.2739 0.0281-0.0411 0.0745-0.068 0.1007-0.1103 0.0269-0.0434 0.0337-0.0967 0.0559-0.1427 0.1559-0.3234 0.044 4e-3 0.1547-0.3808 0.2526-0.4961 0.4477-1.019 0.7816-1.472 0.0558-0.0693 0.1116-0.1386 0.1675-0.2078 0.0389-0.0729 0.0664-0.1531 0.1167-0.2186 0.0444-0.0579 0.1141-0.0919 0.1632-0.146 0.1235-0.136 0.2324-0.3011 0.3221-0.4604 0.1584-0.2014 0.1925-0.308 0.2782-0.549 0.1261-0.3543 0.2583-0.7075 0.4037-1.054 0.4317-0.9033 1.004-1.75 1.75-2.425 0.4591-0.7607 1.933 0.1288 1.474 0.8895z"/><path d="m138.9 195.9c-0.2348 0.4237-0.5374 0.8216-0.86 1.183-0.1255 0.1405-0.2694 0.2635-0.399 0.4003-0.5711 0.603-0.0989 0.1767-0.6873 0.6739-0.2686 0.2869-0.6262 0.4392-0.965 0.6192-0.2044 0.1086-0.0179 0.0373-0.183 0.0945-0.345 0.5178-0.6214 1.074-0.9018 1.629-0.0653 0.1351-0.1223 0.2745-0.1959 0.4052-0.0704 0.125-0.1604 0.238-0.2353 0.3604-0.2117 0.3461-0.4077 0.6957-0.6346 1.033-0.2734 0.3298-0.6488 0.5813-0.8796 0.9423-0.2748 0.3114-0.5659 0.6076-0.8378 0.9214-0.1988 0.0748-0.2557 0.0859-0.4772 0.0437-0.3324 0.4662-1.236-0.1778-0.9031-0.644-0.2353-0.1153-0.3414-0.057-0.228-0.3269 0.1782-0.4502 0.5591-0.7604 0.818-1.161 0.0785-0.059 0.1569-0.118 0.2354-0.1771 0.0591-0.0699 0.1082-0.1498 0.1775-0.2098 0.1256-0.1088 0.3082-0.1542 0.429-0.2697 0.0538-0.221 0.1648-0.4159 0.2553-0.6242 0.1707-0.393 0.3563-0.7771 0.5444-1.162 0.2656-0.426 0.5235-0.8691 0.8518-1.252 0.254-0.296 0.5644-0.5325 0.8551-0.7894 0.3227-0.1519 0.6263-0.2301 0.8446-0.5314 0.3105-0.3697 0.6249-0.7347 0.9495-1.092 0.286-0.3149 0.4639-0.5277 0.7962-0.7895 0.1109-0.0874 0.2352-0.1562 0.3528-0.2344 0.4945-0.6597 1.773 0.2983 1.278 0.9581z"/></g><path d="m131.7 202.2c1.058-0.1066 2.09-0.387 3.172-0.2789 0.3504 0.035 0.6957 0.2102 1.039 0.2789 0.2362 0.0472 0.4753 0.0513 0.7109 0.0984 0.3462 0.0692 0.6324 0.2436 0.9296 0.3773 0.1511 0.068 0.2874 0.0248 0.4375 0.1148 0.1159 0.0695 0.2669 0.193 0.3828 0.2625 0.4307 0.2584 1.012 0.3946 1.367 0.8203 0.0691 0.0829 0.2096 0.1039 0.2734 0.1805 0.1897 0.2277 0.6077 0.2516 0.8202 0.443 0.3566 0.3209 0.8791 0.7269 1.203 1.116 0.1796 0.2156 0.2123 0.4806 0.3281 0.689 0.0325 0.0585 0.1304 0.1034 0.164 0.1641 0.08 0.1441 0.1368 0.3365 0.2187 0.4594 0.1361 0.2042 0.4491 0.4052 0.5468 0.6398 0.0713 0.1712 0.1902 0.3096 0.2734 0.4594 0.1115 0.2007 0.1797 0.4961 0.3281 0.689 0.0299 0.0389 0.0855 0.0556 0.1094 0.0984 0.0475 0.0855 0.0731 0.2631 0.1094 0.3609 0.0484 0.1307 0.1058 0.256 0.164 0.3609 0.0615 0.1107 0.0201 0.3021 0.0547 0.4266 0.1706 0.6141 0.2345 1.264 0.3828 1.887 0.0877 0.3682 0 1.168 0 1.575 0 0.4795 0.093 1.824 0 2.215-0.1126 0.4731-0.2174 0.9296-0.3281 1.394-0.0215 0.0904 0.0169 0.1875 0 0.2789-0.0965 0.5213-0.0534 1.079-0.2187 1.575-0.0279 0.0837 0.0279 0.1952 0 0.2789-0.094 0.2821-0.1633 0.57-0.2187 0.8695-0.036 0.1943-0.1812 0.3662-0.2187 0.5578-0.1052 0.5364-0.2815 1.06-0.4375 1.575-0.0476 0.157-0.0165 0.3317-0.0547 0.4922-0.1011 0.4245-0.1933 0.8308-0.2734 1.263-0.0596 0.3216 0.0257 0.6543-0.0547 0.968-0.134 0.5226 0.1434 1.272 0 1.788-0.1709 0.6153-0.1794 1.278-0.3281 1.903-0.019 0.0798 0.0178 0.166 0 0.2461-0.1135 0.5108-0.2694 1.015-0.3828 1.526-0.019 0.0854 0.0178 0.1768 0 0.2625-0.219 1.051-0.1788 3.094 0 4.167 0.0771 0.4627-0.0307 0.95 0.0547 1.411 0.0312 0.1687-0.035 0.3571 0 0.525 0.1046 0.502-0.0384 1.039 0.0547 1.542 0.0559 0.302 0.146 1.093 0.0547 1.394-0.0506 0.1669-0.1982 0.3177-0.2734 0.4758-0.0977 0.2053-0.1609 0.4152-0.2187 0.6234-0.0437 0.1573-0.176 0.2768-0.2734 0.3937-0.191 0.2292-0.2932 0.6097-0.4375 0.8695-0.1224 0.2203-0.0109 0.0688-0.0547 0.2789-0.0578 0.2774-0.2727 0.5213-0.3281 0.8039-0.0662 0.3377-0.2188 0.6731-0.2734 1.017-0.0433 0.2729-0.0697 0.5467-0.1094 0.8203-0.0195 0.1348-0.0914 0.2587-0.1094 0.3937-0.0902 0.6763-0.0407 1.371-0.1094 2.051-0.0409 0.4052 0.0499 0.8264 0 1.23-0.0485 0.3925-0.0482 0.8123-0.1094 1.198-0.0421 0.2652-0.1238 0.5219-0.164 0.7875-0.1135 0.7494 0.0554 1.523-0.1094 2.264-0.0711 0.3199-0.1242 0.6724-0.2187 0.9844-0.0543 0.1794-0.2214 0.3213-0.2734 0.5086-0.1111 0.4-0.1436 0.7918-0.2187 1.198-0.0382 0.2062-0.1276 0.3992-0.164 0.607-0.0189 0.1077 0.018 0.2202 0 0.3281-0.0386 0.2313-0.1739 0.444-0.2187 0.6726-0.0318 0.1622-0.0142 0.3177-0.0547 0.4758-0.0318 0.1242-0.1393 0.2107-0.164 0.3445-0.0777 0.4195-0.1312 0.843-0.2187 1.263-0.098 0.4703-0.419 0.8622-0.4922 1.345-0.0507 0.3346-0.2094 0.6248-0.2734 0.9515-0.1293 0.6593-0.3552 1.311-0.4922 1.969-0.0549 0.2636-0.2884 0.4649-0.3828 0.7054-0.1922 0.4901-0.3658 0.9999-0.4922 1.493-0.0721 0.2813-0.3952 0.7758-0.5468 1.034-0.2628 0.4468-0.4179 0.9626-0.6562 1.427-0.1173 0.2287-0.2094 0.5639-0.3828 0.7547-0.2066 0.2273-0.4903 0.5365-0.6015 0.8367-0.0871 0.2352-0.2148 0.458-0.2734 0.7218-0.0591 0.2659-0.051 0.541-0.1094 0.8039-0.0609 0.274-0.2091 0.5174-0.2734 0.7875-0.0177 0.0745 0.0222 0.1564 0 0.2297-0.0313 0.1034-0.1243 0.1998-0.164 0.2953-0.0677 0.1625-0.0861 0.5368-0.2187 0.6562-0.1024 0.0922-0.1886 0.1936-0.2734 0.2953-0.0332 0.0398-0.1313 0.0492-0.164 0.0656-0.0797 0.0398-0.1586 0.1592-0.2187 0.2133-0.2466 0.2219-1.209 0.5059-1.531 0.3609-1.55-0.6975-2.051-2.585-2.515-4.118-0.1338-0.4414-0.4448-0.853-0.5468-1.312-0.1283-0.5772-0.3778-1.153-0.6015-1.69-0.0406-0.0975-0.0315-0.2566-0.0547-0.3609-0.0519-0.2336-0.1747-0.4514-0.2187-0.689-0.1315-0.7104-0.2348-1.454-0.3281-2.182-0.0491-0.3834-0.1771-0.7564-0.2734-1.132-0.1241-0.4839-0.2047-0.9644-0.3828-1.427-0.0931-0.2419-0.1062-0.5183-0.2187-0.7547-0.2632-0.5526-0.5749-1.424-0.6562-2.034-0.0873-0.655-0.2155-1.278-0.3281-1.919-0.0581-0.3312 6.5e-4 -0.6851-0.0547-1.017-0.0931-0.5587-0.0749-1.128-0.164-1.69-0.0338-0.2127 0.0392-0.4446 0-0.6562-0.1067-0.5762-0.1407-1.17-0.2187-1.755-0.1144-0.8577 4e-3 0.3567-0.1094-0.3937-0.0422-0.2786-0.0673-0.5589-0.1094-0.8367-0.0405-0.267-0.1831-0.5199-0.2187-0.7875-0.056-0.42-0.0948-0.8315-0.164-1.247-0.0171-0.1025 0.0189-0.2096 0-0.3117-0.0191-0.1032-0.0903-0.1921-0.1094-0.2953-0.0606-0.3273-0.1114-0.6526-0.164-0.9844-0.0615-0.3873-0.2229-0.7861-0.3281-1.165-0.2599-0.9356-0.5175-1.881-0.6562-2.838-0.0343-0.2365-0.1815-0.4546-0.2187-0.689-0.0685-0.4317-0.1082-0.8608-0.164-1.296-0.0458-0.3571-0.2199-0.6968-0.2734-1.05-0.0461-0.3042-0.0652-0.6136-0.1094-0.9187-0.0298-0.2059-0.1364-0.4-0.164-0.607-0.0769-0.5769-0.2047-1.145-0.2734-1.723-0.0521-0.4374-0.263-0.8334-0.3281-1.263-0.0708-0.4672-0.1116-0.9388-0.1641-1.411-0.0341-0.3074-0.1706-0.5991-0.2187-0.9023-0.0505-0.3181-0.1108-0.6317-0.164-0.9515-0.0758-0.4549-0.3192-0.8871-0.3828-1.345-0.051-0.3672-0.1062-0.735-0.164-1.099-0.1066-0.6715 0.0919-1.391-0.0547-2.051-0.12-0.5402 0.0657-1.24-0.1094-1.87-0.0565-0.2033 0.0458-0.4499 0-0.6562-0.0745-0.3352-0.2579-0.6473-0.3281-0.9844-0.0552-0.2652-0.0122-0.5524-0.0547-0.8203-0.1026-0.6464-0.1704-1.304-0.2734-1.952-0.0542-0.3415 0.0496-0.7076 0-1.05-0.0366-0.2525-0.058-0.5083-0.1094-0.7547-0.0382-0.1834 0.0308-0.3893 0-0.5742-0.1711-1.027-0.1701-2.138 0.0547-3.15 0.0348-0.1565-0.0327-0.3352 0-0.4922 0.0572-0.2746 0.2159-0.5279 0.2734-0.8039 0.0616-0.2956 0.1341-0.5902 0.2187-0.8695 0.1197-0.3951-0.0603-0.9821 0.0547-1.362 0.0523-0.1726 0.0647-0.3509 0.1094-0.525 0.031-0.1208-0.0393-0.2757 0-0.3937 0.073-0.2192 0.109-0.4741 0.164-0.7054 0.0738-0.3101-0.046-0.6986 0.0547-1.001 0.0718-0.2153 0.1192-0.4112 0.164-0.6398 0.0585-0.2986 0.2942-0.5052 0.3828-0.7711 0.0156-0.0467-0.0143-0.1006 0-0.1476 0.0928-0.3062 0.4738-0.6141 0.6562-0.8695 0.0673-0.0941 0.4666-0.595 0.4922-0.6562 0.0437-0.1049 0.083-0.198 0.164-0.2953 0.0618-0.0742 0.1691-0.1059 0.2187-0.1805 0.0705-0.1058 0.0503-0.2585 0.164-0.3609 0.3442-0.3098 0.6253-0.6643 0.9843-0.9515 0.3654-0.2924 1.097-0.8048 1.531-0.9351 0.7845-0.2354 1.616-0.2752 2.406-0.3937 0.1702-0.0255 0.3278-0.1082 0.4922-0.1476 0.7546-0.1811 1.525-0.4806 2.297-0.5578 0.3847-0.0385 1.153 0.105 1.476 0 0.2023-0.0658 0.401-0.1422 0.6015-0.2133z" fill="#5d4b6b"/></g><g transform="translate(4.962)"><g fill="url(#a)" stroke-width="9.97"><path d="m159.5 183.7c0.136 0.4783 0.1391 0.9724 0.1664 1.464 0.0325 0.5852 0.0548 1.165 0.0637 1.751 2e-3 0.427 0.0376 0.8536 0.0385 1.281 2.3e-4 0.1158-0.0138 0.2316-8e-3 0.3473 2e-3 0.0384 0.0754 0.5685 0.0816 0.6139 0.01 0.0996 0.0127 0.2001 0.0299 0.2987 0.0183 0.1045 0.0511 0.206 0.0766 0.3089 0.0237 0.1113 0.0517 0.2218 0.0713 0.3339 0.0641 0.3676 0.1229 0.7295 0.2042 1.094 0.0678 0.7317 0.1974 1.454 0.3294 2.176 0.1111 0.8209 0.2589 1.634 0.3889 2.452 0.2539 0.8784 0.249 1.8 0.4355 2.69 2e-3 0.1225-4e-3 0.2454 6e-3 0.3675 0.01 0.1212 0.0407 0.24 0.0534 0.361 0.0586 0.555-0.0146 0.1816 0.0541 0.7484 0.0716 0.5917 0.0633 0.093 0.0487 0.6742-8e-3 0.1778 0.0325 0.3522 0.0405 0.5288 3e-3 0.0716-0.0134 0.144-4e-3 0.2151 8e-3 0.0563 0.0406 0.1063 0.0545 0.1614 0.1773 0.7031-0.1389-0.3835 0.115 0.4622 8e-3 0.0212 0.2019 0.5659 0.2064 0.5866 0.023 0.1055 0.0161 0.2155 0.032 0.3222 0.0485 0.3263 0.0881 0.4753 0.0693 0.8135 0.028 0.3287-0.0702 0.6485-0.0954 0.9749-0.0375 0.1236 0.0194 0.1738 0.0374 0.2985-0.0848 0.0529 0.0713 0.1565 0.0246 0.2087-0.0191 0.0214-0.0203-0.0542-0.0363-0.0781-0.0608-0.0905-0.1289-0.1758-0.1933-0.2637 0.5645 0.7378-0.8648 1.831-1.429 1.094-0.1808-0.1982-0.3211-0.3315-0.3695-0.5892 0.0133-0.2926-0.0812-0.5926-0.0544-0.8897 0.0187-0.0906 0.0376-0.1651 0.0437-0.2574 4e-3 -0.0638-0.0139-0.129-2e-3 -0.1918 5e-3 -0.0259 0.03-0.0464 0.0312-0.0727 2e-3 -0.032-0.0156-0.0622-0.0234-0.0933-0.018-0.1103-0.0232-0.2231-0.0513-0.3312-0.0216-0.0831-0.0647-0.1598-0.0847-0.2433-0.021-0.0878-0.0201-0.1797-0.0378-0.2683-0.0405-0.2033-0.1115-0.3997-0.1492-0.6037-7e-3 -0.0984-8e-3 -0.1975-0.0219-0.2952-0.0528-0.3663-0.0707-0.1964-0.1198-0.5642-0.0104-0.0776 3e-3 -0.1574-0.0105-0.2345-0.1445-0.8278-8e-3 0.457-0.0962-0.5133-0.1289-0.6282-8e-3 0.0503-0.0707-0.6502-0.0107-0.1192-0.0435-0.2358-0.054-0.3551-0.0113-0.1275 4e-3 -0.2568-0.0114-0.3838-0.0154-0.125-0.0613-0.2446-0.0816-0.3689-0.0199-0.1222-0.0257-0.2462-0.0386-0.3694-0.1122-0.8925 0.0472 0.2385-0.1534-0.7423-0.1224-0.5984-0.1158-1.222-0.2671-1.816-0.0275-0.158-0.055-0.3161-0.0825-0.4741-0.0186-0.1502-0.0311-0.3013-0.0557-0.4506-0.0243-0.1475-0.0698-0.2911-0.0908-0.4391-0.0372-0.2614-0.0185-0.5288-0.0559-0.7902-0.0177-0.1235-0.0537-0.2437-0.0806-0.3655-0.0905-0.9034 0.0306 0.1774-0.1092-0.7104-0.0748-0.4752-0.0826-0.9618-0.2015-1.431-0.0666-0.3642-0.1144-0.7246-0.1642-1.091-0.0858-0.63-0.0258-0.0606-0.1303-0.6759-0.0187-0.1099-0.0273-0.2213-0.0409-0.3319-0.0427-0.3404-0.0759-0.6834-0.1258-1.023-0.0419-0.2856-0.1233-0.565-0.1555-0.8519-0.0186-0.1653-0.0126-0.3324-0.0189-0.4986-0.0633-0.9526-0.1848-1.997-0.0188-2.943 0.0225-0.1283 0.071-0.2507 0.1064-0.3761 0-1.025 1.985-1.025 1.985 0z"/><path d="m164.9 182.4c0.3595 0.9053 0.4398 1.86 0.4442 2.824 1e-3 0.2527 8e-3 0.5064-0.0167 0.7579-0.0218 0.2237-0.0811 0.4422-0.1217 0.6633-0.0411 0.1863-0.1781 0.8371-0.2467 1.038-0.0451 0.1322-0.1214 0.2519-0.1709 0.3826-0.0427 0.1128-0.0614 0.2338-0.105 0.3462-0.2426 0.626-0.0423-0.1003-0.2018 0.5496-3e-3 0.1024 7e-3 0.206-9e-3 0.3072-0.0175 0.1114-0.0708 0.2149-0.0908 0.3258-0.0237 0.1312-0.0237 0.2656-0.0397 0.398-0.0513 0.4246-0.1176 0.8368-0.2214 1.251-0.1478 0.3427-0.1287 0.7161-0.2064 1.074-0.0224 0.1034-0.0665 0.2016-0.0852 0.3058-0.0158 0.0881-0.0117 0.1787-0.0175 0.268-0.0198 0.0871-0.0396 0.1743-0.0593 0.2614 0.0371 0.2706-0.0924 0.5236-0.1183 0.785-9e-3 0.0864 0.0163 0.1742 6e-3 0.2603-0.01 0.0789-0.044 0.1528-0.066 0.2293-6e-3 0.0868-0.0111 0.1736-0.0166 0.2605-6e-3 0.2669-0.053 0.5381-0.0311 0.8056 8e-3 0.102 0.0425 0.2009 0.0504 0.3029 0.0143 0.1858-0.0155 0.4474-0.0308 0.6301-0.0289 0.5065-0.0681 1.012-0.0506 1.519-0.055 0.7216 4e-3 -0.2674 0.0164 0.4959 3e-3 0.1827-0.0389 0.3639-0.0396 0.5466-7.5e-4 0.1785 0.0138 0.3567 0.0186 0.5352-0.0196 0.2433 0.0377 0.4895 0.0134 0.7325-8e-3 0.077-0.0442 0.15-0.0465 0.2273-2e-3 0.0637 0.0259 0.1248 0.0342 0.188 9e-3 0.0702 0.0123 0.141 0.0184 0.2115 3e-3 0.0654 2e-3 0.1313 0.0104 0.1962 0.0353 0.2686 0.0553 0.1682 0.0882 0.4459 0.0296 0.2495 2e-3 0.5062 9e-3 0.7571 0.0658 0.5414 0.0189-0.0254-3e-3 0.5018-3e-3 0.0777 0.0188 0.1553 0.0142 0.2329-4e-3 0.0716-0.0311 0.1403-0.0407 0.2114-0.0828 0.6108 0.0574-0.204-0.0464 0.3728 0.0869 0.296 4e-3 0.6084 2e-3 0.9102-0.0953 0.2342-0.3493 0.4226-0.5467 0.5701-0.0987 0.0266-0.1975 0.0532-0.2962 0.0798-0.0947 0.2632-0.6045 0.0798-0.5099-0.1834-0.0625-0.0361-0.1249-0.0723-0.1874-0.1085-0.1735-0.0942-0.3718-0.1234-0.4787-0.309-0.0444-0.3328-0.0504-0.6684-0.0387-1.004-0.0295-0.2253 3.7e-4 -0.4004-4e-3 -0.6229-1e-3 -0.0721-0.0218-0.1437-0.0176-0.2157 8e-3 -0.1382 0.0791-0.2683 0.0669-0.4098-5e-5 -0.0379 1e-3 -0.3344-5e-3 -0.3738-0.01-0.066-0.0374-0.1282-0.0519-0.1934-0.0547-0.246-0.0715-0.4981-0.1097-0.7467 6.7e-4 -0.486 0.0237-0.9731-0.0152-1.457-0.0265-0.5376-7e-3 -1.073 2e-3 -1.611 0.0243-0.2412 0.0441-0.4866 0.0195-0.7291-8e-3 -0.0831-0.0436-0.1635-0.0418-0.247 0.0208-0.9779 0.1114 0.4885 0.0311-0.5281 0.0251-0.7214 7e-3 0.1865-0.0259-0.6262-0.0176-0.4357 0.0522-0.87 0.1088-1.3 0.0122-0.1764 0.01-0.3544 0.0364-0.5292 0.0126-0.0833 0.0488-0.162 0.0596-0.2455 0.0117-0.0898-2.4e-4 -0.1813 8e-3 -0.2715 0.0152-0.1752 0.068-0.346 0.0658-0.5233 0.0508-0.6666 0.2172-1.322 0.2558-1.991 0.1327-0.8568 0.2852-1.717 0.5175-2.553 0.0908-0.2094 0.1968-0.4127 0.2756-0.6269 0.084-0.2283 0.0666-0.2864 0.115-0.5267 0.12-0.5961 0.0512-0.0451 0.114-0.77 0.0128-0.4094 0.0331-0.8185 0.0432-1.228 0.0215-0.8689-0.0284-1.747 0.1287-2.606-0.1165-0.9484 1.721-1.174 1.837-0.2257z"/><path d="m169.8 188.7c-0.0416 0.1196-0.086 0.2383-0.1249 0.3588-0.0517 0.1599-0.0873 0.3252-0.1469 0.4823-0.2487 0.6556-0.6172 1.285-0.8925 1.936-0.2957 0.6295-0.4356 1.316-0.6132 1.984-0.2935 0.8529-0.6984 1.655-1.064 2.478-0.1903 0.4998-0.4649 0.9648-0.6605 1.462-0.2593 0.6587 0.0526-6e-3 -0.2474 0.6032-0.0357 0.1023-0.0733 0.204-0.1071 0.3069-0.0293 0.0891-0.0486 0.1815-0.0823 0.269-0.0655 0.1699-0.1746 0.3211-0.2363 0.4924-0.1831 0.5083 0.1116-0.0648-0.1639 0.4271-0.1542 0.439-0.3487 0.8639-0.4814 1.31-0.0485 0.3006-0.2464 0.5372-0.3688 0.8073-0.19 0.4193 0.0518-0.0326-0.1786 0.3784-0.2347 0.4595-0.2882 0.9767-0.3085 1.485-0.0557 0.5612-0.0788 1.154-0.3154 1.674-0.0711 0.2266-0.3851 0.8678-0.6983 0.7786-0.4845-0.138-1.389-0.5942-0.8261-0.9093 0.101-0.0565 0.2166-0.0814 0.3249-0.122-7e-3 -0.1869 0.3555-0.1995 0.362-0.0126 0.1119-3e-3 0.2239-3e-3 0.3357-9e-3 0.0544-3e-3 0.2051 0.0179 0.1627-0.0163-0.8153-0.6582-0.7852-0.8761-1.363-0.2764-0.2239 0.2324-0.012 0.1842-0.1281 0.2064 0.0346-0.1238 2e-3 0.0218-0.0119-0.2202-4e-3 -0.0743 7e-3 -0.1488 4e-3 -0.2231-0.0143-0.3736-0.0407-0.7418 0.0566-1.111 0.1309-0.678 0.2617-1.378 0.6091-1.983 0.0581-0.1076 0.129-0.208 0.186-0.3161 0.1588-0.3013-5e-3 -0.0416 0.1293-0.3336 0.1673-0.3624 0.0534 6e-3 0.153-0.3755 0.1485-0.4463 0.3633-0.8642 0.5025-1.314 0.2526-0.4671 0.3153-1.014 0.5524-1.49 0.4306-1.052-0.162 0.4519 0.2025-0.6733 0.0388-0.1197 0.1078-0.2275 0.1543-0.3444 0.1597-0.4019 0.2943-0.8144 0.479-1.207 0.3569-0.7747 0.7602-1.526 1.11-2.304 0.1295-0.2933 0.2175-0.5823 0.3153-0.8868 0.0362-0.1126 0.0871-0.2208 0.1141-0.3359 0.0297-0.1268 0.0265-0.2597 0.055-0.3867 0.0334-0.1488 0.0869-0.2924 0.1303-0.4386 0.141-0.3396 0.2652-0.6864 0.4189-1.02 0.3083-0.67 0.6888-1.307 1.159-1.876 0.3846-0.7749 1.886-0.0297 1.501 0.7452z"/><path d="m156.1 191.1c0.5195 0.4617 0.9394 1.022 1.352 1.578 0.1101 0.1483 0.2303 0.2896 0.3302 0.445 0.0915 0.1422 0.1618 0.2971 0.2427 0.4456 0.4063 0.6393 0.6228 1.372 0.935 2.057 0.1119 0.1831 0.1515 0.3981 0.2472 0.588 0.1671 0.3316 0.4892 0.7693 0.7313 1.051 0.0533 0.0937 0.0993 0.192 0.1599 0.2812 0.7922 1.166-0.3721-0.6503 0.3932 0.5224 0.1762 0.2699 0.3197 0.5496 0.507 0.813 0.353 0.6267 0.6268 1.295 0.8206 1.987 0.0738 0.3388 0.222 0.6579 0.313 0.991 0.0846 0.31 0.075 0.4217 0.233 0.719 0.0609 0.3888-0.0185 6e-3 0.1092 0.3533 0.0197 0.0536 0.0211 0.1128 0.0412 0.1662 0.019 0.0504 0.0602 0.0913 0.0752 0.1431 0.0135 0.0468 9.6e-4 0.0979 8e-3 0.1461 9e-3 0.0581 0.0267 0.1144 0.04 0.1716 0.0251 0.1172 0.0894 0.221 0.1174 0.3372 9e-3 0.0358-3.5e-4 0.075 0.0117 0.1098 0.0948 0.2736 0.0403-0.1668 0.0669 0.2477 0.1472 0.2706 0.0229-0.012 0.0615 0.2538 0.0122 0.0839 0.1473 0.2921-0.0179 0.2984-0.1943 0.01-0.0701-3e-3 -0.3677 0.0712 0.3081 0.3459-0.362 0.9428-0.6701 0.5969-0.3205 0.0208-0.1761 0.0412-0.4362-0.035-0.1788-0.1274-0.2938-0.262-0.3364-0.4864-0.0113-0.0593-6e-3 -0.1214-0.0224-0.1796-0.0142-0.0518-0.0446-0.0977-0.0669-0.1466-0.0131-0.1174-1e-3 -0.2933-0.0305-0.4003-0.017-0.0621-0.1203-0.0832-0.0903-0.1707-7e-3 -0.0265-6e-3 -0.0547-9e-3 -0.082-0.1023-0.2595-0.2796-0.4811-0.373-0.7459-0.0391-0.0747-0.2362-0.4458-0.2624-0.5194-0.0384-0.1079-0.0487-0.2242-0.083-0.3335-0.1048-0.3339-0.2634-0.6533-0.3028-1.007-0.1704-0.5437-0.312-1.102-0.6423-1.577-0.1898-0.3316-0.4485-0.6075-0.6626-0.9236-0.0626-0.0924-0.1072-0.1969-0.1762-0.2846-0.0772-0.0981-0.1732-0.1797-0.2597-0.2696-0.3871-0.7367 0.0422 0.0384-0.4114-0.6572-0.2786-0.4273-0.4804-0.9055-0.6595-1.381-0.1291-0.2755-0.2539-0.5523-0.3719-0.8328-0.0378-0.0898-0.0611-0.1867-0.1111-0.2702-0.1185-0.198-0.3293-0.3324-0.4055-0.5611-0.8685-1.016 0.2896 0.3759-0.5846-0.8111-0.1141-0.1549-0.2602-0.2841-0.3768-0.4372-0.3061-0.402-0.507-0.849-0.7248-1.301-0.4962-0.856 1.162-1.817 1.658-0.9614z"/><path d="m171.5 195.4c-0.7413 0.6373-1.443 1.322-2.099 2.046-0.1208 0.1297-0.2403 0.2607-0.3625 0.3892-0.1116 0.1174-0.2294 0.229-0.3388 0.3484-0.1452 0.1585-0.4094 0.4949-0.5725 0.6453-0.1041 0.096-0.5148 0.3933-0.6354 0.4819-0.4606 0.442-1.033 0.7455-1.514 1.16-0.2745 0.2434-0.0909 0.0514-0.2872 0.3338-0.0407 0.0585-0.0963 0.107-0.13 0.1698-0.0316 0.059-0.0337 0.1304-0.0629 0.1906-0.0679 0.1401-0.1662 0.2633-0.2486 0.3954-0.1291 0.4754-0.419 0.8775-0.6553 1.302-0.0498 0.1875-0.1589 0.3528-0.2184 0.5365-0.0227 0.0702-0.0293 0.1451-0.0532 0.2149-0.045 0.131-0.1098 0.2545-0.1584 0.3842-0.0823 0.1601-0.0665 0.3576-0.1312 0.5215-0.0212 0.0538-0.0668 0.0954-0.0899 0.1484-0.2793 0.6398 0.2041-0.3248-0.1156 0.2972-5e-3 0.0488 2e-3 0.1-0.0139 0.1463-0.0394 0.1136-0.1266 0.2057-0.172 0.317-0.0209 0.0512-0.0256 0.1082-0.0486 0.1585-0.1078 0.172-0.0651 0.0902-0.1344 0.242-0.115 0.1564-0.0906 0.1501-0.2934 0.0838-0.1715 0.7444-1.614 0.4122-1.442-0.3322-0.0912-0.1356-0.1462-0.231-0.0913-0.3972 0.0875-0.291 0.2701-0.5466 0.4006-0.8201 0.0496-0.1246 0.0297-0.0594 0.0585-0.1961 0.0151-0.0388 0.044-0.0709 0.061-0.1088 0.0748-0.1667 0.1073-0.3486 0.1121-0.5302 0.0847-0.2344 0.1301-0.481 0.2168-0.7138 0.0775-0.2081 0.1503-0.3113 0.2468-0.5084 0.0408-0.0834 0.0773-0.1687 0.116-0.2531 0.1142-0.1936 0.2122-0.4045 0.3341-0.5928 0.0385-0.0594 0.0971-0.1054 0.1296-0.1683 0.2892-0.5592-0.1936 0.155 0.1888-0.379 0.2669-0.6166-0.0746 0.1604 0.2318-0.4956 0.0474-0.1016 0.0804-0.2101 0.1353-0.3078 0.1793-0.3193 0.4295-0.6066 0.6551-0.8924 0.517-0.4349 1.077-0.8073 1.655-1.157 0.1076-0.0839 0.3272-0.2471 0.415-0.3487 0.0745-0.086 0.1266-0.1892 0.1956-0.2796 0.0841-0.1102 0.1801-0.2111 0.2635-0.322 0.5819-0.7739-0.039-0.0456 0.6703-0.8385 0.4328-0.5043 0.8742-0.9671 1.379-1.401 0.1595-0.1372 0.3128-0.2832 0.486-0.4026 0.3464-0.2389 0.5316-0.2869 0.9038-0.428 0.7023-0.5238 1.717 0.8367 1.015 1.36z"/><path d="m161.1 205.2c-0.1265-0.1066-0.2598-0.2056-0.3794-0.3198-0.1669-0.1594-0.7399-0.7935-0.8841-0.949-0.2083-0.2245-0.6672-0.6974-0.8632-0.948-0.107-0.1368-0.1949-0.2876-0.2924-0.4313-0.0966-0.1094-0.2056-0.209-0.2897-0.3283-0.0718-0.1017-0.1168-0.2199-0.1748-0.33-0.1081-0.2056-0.2355-0.4008-0.3394-0.6084-0.0999-0.1998-0.177-0.4105-0.2766-0.6105-0.2186-0.5816-0.572-1.095-0.9525-1.581-0.2048-0.2313-0.4865-0.337-0.7429-0.4954-0.0579-0.033-0.1205-0.0589-0.1737-0.099-0.0592-0.0447-0.1062-0.1038-0.1611-0.1538-0.2703-0.2459-0.5349-0.4787-0.7813-0.7499-0.4438-0.4253-0.8056-0.9191-1.188-1.396 0.3698 0.1757-0.1694-0.2178-0.1012-0.1928 0.0174 6e-3 0.0251 0.0274 0.0376 0.0411 0.0686 0.0483 0.1228 0.1325 0.2058 0.145 0.4007 0.0606 0.8227-0.0989 0.5548-2e-3 -0.3338 0.1376-0.7334 0.0898-1.074-0.0115-0.0796-0.0237-0.1522-0.0674-0.2313-0.0928-0.5464-0.1757 3e-3 0.0544-0.5185-0.1807-0.6666-0.2329 0.114 0.0664-0.4735-0.2394-0.2161-0.1125-0.2115-0.028-0.3963-0.1754-0.1197-0.0955-0.2058-0.2269-0.3082-0.3408-0.2692-0.1491-0.1369-0.6652-0.3725-0.7969-0.2149-0.161-0.4949-0.2168-0.6979-0.3872-0.0469-8e-3 -0.0969-6e-3 -0.1407-0.0248-0.0401-0.0172-0.0662-0.0574-0.1036-0.0799-7e-3 -4e-3 -0.1944-0.0856-0.2109-0.0985-0.0389-0.0304-0.0678-0.0719-0.1017-0.1078-0.0422-0.0317-0.0844-0.0635-0.1266-0.0952-0.0901-0.1323-0.2096-0.3031-0.2346-0.4656-0.0128-0.0832 5e-3 -0.1684 8e-3 -0.2526 2e-3 -0.8324 1.615-0.8279 1.613 5e-3 -2e-3 -0.1192 2e-3 -0.2901-0.0755-0.3932-0.0443-0.0795 0.0292 3e-3 0.0382 7e-3 0.0273 0.0104 0.0595-6e-3 0.0876 2e-3 0.0545 0.0153 0.2348 0.134 0.2592 0.1492 0.505 0.2217 0.8993 0.6075 1.228 1.045 0.0136 0.0357 0.3278 0.9628 0.0997 0.5034-0.0112-0.0124-0.0481-0.0287-0.0337-0.0373 0.0872-0.0519 0.7431 0.3093 0.8864 0.3433 0.1986 0.0634 0.38 0.1457 0.5688 0.2316 0.0261 0.0119 0.1007 0.0412 0.0725 0.0462-0.5267 0.0939-0.2658-0.0839-0.4526 0.0566 0.2271-0.2954 0.7713-0.0557 1.014 0.099 0.1438 0.0917 0.2363 0.2653 0.4051 0.3258 0.4256 0.4864-0.1528-0.1628 0.3603 0.3694 0.299 0.3102 0.5486 0.6636 0.8369 0.983 0.3288 0.494-0.0133 0.0198 0.3345 0.4039 0.1119 0.1236 0.1921 0.2643 0.3578 0.3288 0.2178 0.0951 0.475 0.1975 0.6689 0.333 0.1806 0.1262 0.3176 0.3083 0.5008 0.4314 0.2891 0.2857 0.5603 0.6025 0.759 0.9611 0.2569 0.4638 0.0825 0.2903 0.2967 0.7619 0.0485 0.1068 0.1192 0.202 0.1788 0.303 0.0207 0.0969 0.0298 0.1969 0.062 0.2905 0.1463 0.4262 0.5814 0.7333 0.8725 1.047 0.179 0.1614 0.7148 0.6381 0.858 0.797 0.1542 0.1711 0.2844 0.3624 0.4252 0.5447 0.3573 0.4624 0.7528 0.9107 1.004 1.443 0.5047 0.7442-0.937 1.722-1.442 0.9777z"/></g><path d="m162.3 202.3c-0.2005-0.0109-0.4013-0.0178-0.6015-0.0328-0.2939-0.0221-0.5754-0.0863-0.8749-0.1312-0.3744-0.0562-0.774 0.0562-1.148 0-0.43-0.0645-0.9814-0.1153-1.422-0.0492-0.418 0.0627-0.8695 0.4517-1.258 0.607-0.1984 0.0794-0.41 0.1312-0.6015 0.2461-0.159 0.0954-0.3612 0.256-0.5468 0.3117-0.5393 0.1618-1.011 0.4782-1.531 0.7383-0.2414 0.1207-0.7577 0.4078-0.9843 0.4758-0.1918 0.0575-0.3686 0.0749-0.5468 0.1641-0.0871 0.0436-0.1084 0.1909-0.2187 0.2461-0.3544 0.1772-0.9374 0.703-1.148 1.083-0.0649 0.1168-0.1999 0.1359-0.2734 0.2461-0.2268 0.3402-0.56 0.6329-0.8202 0.9844-0.1644 0.2219 0.024-0.0483-0.0547 0.1641-0.0447 0.1208-0.2042 0.2466-0.2734 0.3609-0.1521 0.2509-0.3102 0.619-0.3828 0.9023-0.0666 0.2596-0.3139 0.4574-0.3828 0.7054-0.0668 0.2405-0.156 0.477-0.2187 0.7219-0.046 0.1795 0 0.4368 0 0.6234 0 0.5886-0.0239 1.163 0.1094 1.723 0.0603 0.2532 0.0354 0.5271 0.1094 0.7711 0.0396 0.1306 0 0.339 0 0.4758v1.69c0 0.2042-0.0546 0.509 0 0.7054 0.0405 0.1459 0.1323 0.2904 0.164 0.443 0.0397 0.1905 3e-3 0.4037 0.0547 0.5906 0.0937 0.3375 0.2041 0.6636 0.2734 1.017 0.0237 0.1207-0.0267 0.2574 0 0.3773 0.1083 0.4874 0.2052 0.9809 0.3281 1.46 0.0622 0.2427 0 0.5861 0 0.8367v3.708c0 0.4883-0.0842 1.062 0 1.542 0.1115 0.6358 0.3445 1.261 0.4375 1.903 0.0173 0.1191-0.0173 0.2419 0 0.3609 0.053 0.366 0.1636 0.719 0.2187 1.083 0.0537 0.3546 0.0441 0.7139 0.1094 1.066 0.0978 0.5283 0 1.169 0 1.706 0 0.5311 0.0266 1.086 0.1094 1.608 0.0327 0.2062 0 0.4471 0 0.6562 0 0.847-0.0904 1.765 0.0547 2.592 0.0189 0.1077-0.0164 0.22 0 0.3281 0.0204 0.1347 0.0898 0.2589 0.1094 0.3937 0.045 0.3106 0.0643 0.6243 0.1094 0.9351 0.0386 0.2662 3e-3 0.5243 0.0547 0.7875 0.0362 0.1844-0.0342 0.3894 0 0.5742 0.1128 0.609 0.2093 1.231 0.3281 1.837 0.0985 0.5026-0.0387 1.054 0.0547 1.559 0.0845 0.4564 0.197 0.9034 0.2734 1.362 0.0564 0.3385 0.03 0.7002 0.1094 1.034 0.0296 0.1244 0.1344 0.2365 0.164 0.3609 0.0357 0.1498 0.0213 0.309 0.0547 0.4594 0.0501 0.2256 0.1656 0.4332 0.2187 0.6562 0.0172 0.0724-0.0173 0.1572 0 0.2297 0.0703 0.2954 0.1595 0.6001 0.2187 0.9023 0.0806 0.4111 0.3101 0.7997 0.3828 1.214 0.1004 0.5726 0.1618 1.153 0.2734 1.723 0.0147 0.0751-0.0222 0.1564 0 0.2297 0.0491 0.1622 0.1284 0.321 0.164 0.4922 0.0954 0.4578 0.1845 0.9083 0.2734 1.362 0.0553 0.282 0.2122 0.5449 0.2734 0.8203 0.1378 0.6202 0.2451 1.267 0.3828 1.887 0.0195 0.0876 0.0886 0.1588 0.1094 0.2461 0.0619 0.2599 0.1193 0.5354 0.164 0.8039 0.1146 0.6877 0.1017 1.397 0.2734 2.067 0.0317 0.1237-0.0442 0.2907 0 0.4101 0.1075 0.2902 0.1901 0.6024 0.2734 0.9023 0.0161 0.058-0.0209 0.124 0 0.1805 0.1013 0.2735 0.1855 0.563 0.2734 0.8531 0.0281 0.0927 0.1334 0.1705 0.164 0.2625 0.0601 0.1803 0.0754 0.3685 0.164 0.5414 0.159 0.3101 0.2394 0.629 0.3828 0.9515 0.2315 0.521 0.5647 1.032 0.7109 1.559 0.0662 0.2382 0.01 0.5269 0.0547 0.7711 0.0792 0.4276 0.1544 0.8213 0.2734 1.214 0.0303 0.0999-0.0227 0.226 0 0.3281 0.0686 0.3088 0.0758 0.6438 0.164 0.9351 0.0749 0.247 0.5768 1.545 0.7109 1.706 0.1586 0.1904 0.3038 0.3931 0.4375 0.607 0.1153 0.1844 0.1966 0.3967 0.3281 0.5742 0.1628 0.2197 0.3801 0.3944 0.5468 0.607 0.2354 0.3001 0.479 0.8207 0.7656 1.05 0.1393 0.1115 0.704 0.5105 0.7656 0.6398 0.1059 0.2224 0.8539 0.9616 1.039 1.017 0.2631 0.0789 0.594 0.1618 0.8749 0.2461 0.1374 0.0412 0.3499 0 0.4922 0 0.4171 0 0.9046 0.0187 1.258-0.2461 0.1116-0.0837 0.1748-0.2065 0.2734-0.2953 0.1331-0.1198 0.3335-0.2834 0.3828-0.4758 0.0661-0.2577 0.1761-0.5354 0.2187-0.8039 0.0468-0.2946 0.058-0.5932 0.1094-0.8859 0.0731-0.4164-4e-3 -0.8605 0.0547-1.28 0.0358-0.258 0.0686-0.5146 0.1094-0.7711 0.0244-0.1538-0.0299-0.323 0-0.4758 0.0615-0.3139 0.172-0.6287 0.2187-0.9515 0.0327-0.2258 0.0448-0.4595 0.1094-0.6726 0.1791-0.5911 0.5397-1.225 0.6562-1.854 0.1084-0.5856 0.3788-1.195 0.6562-1.723 0.0537-0.102 0.0557-0.2261 0.1094-0.3281 0.0661-0.1256 0.1419-0.1636 0.2187-0.2789 0.1596-0.2394 0.2441-0.4763 0.4375-0.689 0.2154-0.237 0.3245-0.7778 0.4375-1.083 0.144-0.3888 0.1356-0.8151 0.2187-1.214 0.0635-0.3049 0.2742-0.6091 0.3828-0.9023 0.104-0.2807 0.1616-0.6111 0.2187-0.9023 0.0542-0.2766 0.234-0.5686 0.3281-0.8367 0.1403-0.3999 0.2925-0.9883 0.3828-1.394 0.0202-0.0908-0.0169-0.1875 0-0.2789 0.0771-0.4162 0.0778-0.8494 0.164-1.263 0.0272-0.1308-0.022-0.2784 0-0.4101 0.04-0.2402 0.071-0.4803 0.1094-0.7219 0.0302-0.1905-0.0393-0.402 0-0.5906 0.0407-0.1954 0.1289-0.3737 0.164-0.5742 0.0532-0.3034 8e-3 -0.6302 0.0547-0.9351 0.1068-0.705 0.1116-1.426 0.2187-2.133 0.0346-0.2287 0.1277-0.4438 0.164-0.6726 0.0805-0.5069 0.1484-0.989 0.2734-1.477 0.025-0.0975-0.0219-0.2134 0-0.3117 0.0424-0.1909 0.1221-0.3691 0.164-0.5578 0.0488-0.2196 3e-3 -0.4702 0.0547-0.689 0.0756-0.3175 0.1475-0.6308 0.2187-0.9515 0.0301-0.1356-0.0253-0.2899 0-0.4266 0.0451-0.2433 0.0984-0.502 0.164-0.7383 0.0743-0.2676 0.0306 0.0557 0.1094-0.1805 0.019-0.0571-0.0149-0.1222 0-0.1805 0.0751-0.293 0.2693-0.5531 0.3281-0.8531 0.038-0.1941 2e-3 -0.4352 0.0547-0.6234 0.2515-0.9054 0.5927-1.773 0.7656-2.707 0.1089-0.588-0.033-1.298 0.0547-1.903 0.0756-0.5219 0.1397-1.037 0.2187-1.559 0.0259-0.1711-0.0238-0.3536 0-0.525 0.0425-0.3062 0.061-0.6141 0.1094-0.9187 0.0507-0.3196-0.0559-0.6658 0-0.9844 0.0866-0.4937 0.1396-0.9944 0.2187-1.493 0.1022-0.6441-0.0432-1.323 0.0547-1.969 0.0873-0.5764 0.2436-1.14 0.3281-1.723 0.0583-0.402-0.0278-0.8508 0.0547-1.247 0.1608-0.772 0.2134-1.567 0.3828-2.33 0.1426-0.6417 0.0115-1.459 0.164-2.1 0.1091-0.4582 0.242-0.8966 0.3281-1.362 0.0864-0.4664 0.0253 0.1929 0.1094-0.3117 0.0759-0.4552 0.1449-0.8883 0.2734-1.312 0.0432-0.1424 0.0274-0.3286 0.0547-0.4758 0.0581-0.3136 0.1416-0.618 0.2187-0.9187 0.0204-0.0795-0.0178-0.166 0-0.2461 0.0502-0.2258 0.1104-0.4474 0.164-0.6726 0.0165-0.0692-0.019-0.1448 0-0.2133 0.0587-0.2113 0.1377-0.4453 0.2187-0.6398 0.0729-0.175 0-1.514 0-1.854 0-0.2547 0.0968-0.7192 0-0.9515-0.2174-0.5219-0.4157-1.1-0.6015-1.657-0.0293-0.088 0.0322-0.2084 0-0.2953-0.0969-0.2616-0.1311-0.5573-0.2187-0.8203-0.0944-0.2831-0.4002-0.4841-0.4922-0.7875-0.0108-0.0355-0.1076-0.4736-0.1094-0.4758-0.0726-0.0871-0.1141-0.144-0.164-0.2789-0.0864-0.2334-0.1735-0.5284-0.2734-0.7383-0.0422-0.0886 0.0312-0.2344 0-0.3281-0.0723-0.2168-0.0857-0.4446-0.164-0.6562-0.0598-0.1615 0.0246-0.333-0.0547-0.4758-0.2822-0.5079-0.9396-0.8871-1.422-1.263-0.2084-0.1626-0.745-0.734-0.8749-0.9679-0.1338-0.2408-0.6195-0.6032-0.8203-0.8039-0.0705-0.0705-0.1571-0.2419-0.2187-0.2789-0.4094-0.2456-0.9488-0.3358-1.422-0.525-0.2614-0.1046-0.5002-0.3493-0.7656-0.5086-0.0734-0.044-0.1398-0.0137-0.2187-0.0492-0.0838-0.0377-0.1927-0.1669-0.3281-0.1805-0.6757-0.0676-1.302-0.1462-1.969-0.2461-0.1434-0.0215-0.2941 5e-3 -0.4375-0.0164-0.1831-0.0275-0.3637-0.071-0.5468-0.0984-0.4096-0.0614-0.9175 0.1185-1.312 0-0.0938-0.0281-0.73-0.1017-0.8203-0.0656-0.2031 0.0813-0.401 0.175-0.6015 0.2625z" fill="url(#b)"/></g><g transform="translate(9.801)"><g fill="url(#a)" stroke-width="9.97"><path d="m190.7 181.5c0.1596 0.4184 0.2047 0.8568 0.2702 1.295 0.0573 0.3826 0.1162 0.764 0.1719 1.147 0.0268 0.572-0.0213-0.0362 0.0594 0.3928 8e-3 0.0415-6e-3 0.0857 5e-3 0.1265 0.01 0.0368 0.0395 0.0652 0.055 0.0999 0.0466 0.1042 0.0485 0.1517 0.0718 0.2682 0.0274 0.0523 0.065 0.1004 0.0821 0.1569 0.0232 0.0764 0.0192 0.1589 0.0374 0.2366 0.0804 0.3427 0.0537 0.0985 0.127 0.4012 0.0353 0.1458 0.0579 0.2944 0.0932 0.4401 0.0165 0.0708 0.0252 0.144 0.0496 0.2125 0.0258 0.0727 0.0742 0.136 0.1002 0.2087 0.0255 0.0713 0.0803 0.3594 0.0978 0.4341 0.0467 0.1997 0.0589 0.2218 0.1248 0.4237 0.0533 0.3753 0.1277 0.7505 0.2458 1.111 0.1397 0.3992 0.2367 0.7708 0.2668 1.195 0.0233 0.3364 0.028 0.674 0.0295 1.011-0.023 0.1248 0.0377 0.2443 0.0348 0.3672-1e-3 0.0613-0.0312 0.1194-0.0339 0.1806-6e-3 0.1411 0.0208 0.314 0.035 0.4557 7e-3 0.0568 0.0142 0.1137 0.0213 0.1706-2e-3 0.0645-0.0105 0.1293-5e-3 0.1936 6e-3 0.0685 0.032 0.1342 0.0377 0.2027 0.0178 0.2159-3e-3 0.4352 0.0147 0.6527 5e-3 0.0622 9e-3 0.1245 0.0136 0.1867-2e-3 0.0701-0.01 0.1404-6e-3 0.2105 4e-3 0.0757 0.0279 0.1497 0.0298 0.2254 2e-3 0.0801-0.0168 0.1596-0.0183 0.2397-4e-3 0.2322 8e-3 0.2384 0.049 0.455-0.0559 0.6157-1e-4 -0.174 8e-3 0.4402 9.5e-4 0.075-0.0277 0.1492-0.0221 0.224 5e-3 0.064 0.041 0.1221 0.0526 0.1852 0.0263 0.1434 0.018 0.2412 0.0155 0.3839 0.0952 0.417 0.1064 0.8447 0.189 1.266 0.011 0.075 0.0285 0.1494 0.033 0.225 5e-3 0.0855-0.012 0.1716-4e-3 0.2568 7e-3 0.0796 0.0333 0.1563 0.05 0.2345 0.0135 0.0848 0.0332 0.1689 0.0404 0.2545 0.044 0.5228-0.0597-0.0788 0.0434 0.444-1.7e-4 0.0627-7e-3 0.1257-5.2e-4 0.1881 0.019 0.19 0.0793 0.3789 0.1013 0.569 0.0788 0.6816-0.08-0.3677 0.0448 0.415-0.0175 0.1673 0.0683 0.3193 0.0807 0.4816 7e-3 0.0893-0.0151 0.179-0.0113 0.2685 4e-3 0.0984 0.0288 0.195 0.0354 0.2933 0.0131 0.1953 9e-3 0.3914 0.0176 0.587 0.0783 0.464-0.0435 0.9327-0.0159 1.394 0.0149 0.397-0.0222 0.7943 0.0146 1.19 0.0177 0.2011-0.0323 0.4044-0.0268 0.6047 5e-3 0.1917 0.0427 0.162-0.0535 0.3395-0.0229 0.0141-0.0457 0.0283-0.0686 0.0424 5e-3 0.8744-1.689 0.8848-1.694 0.0104-0.0282-0.0126-0.0564-0.0253-0.0846-0.0379-0.012-0.1151 2.1e-4 -0.0515-0.0463-0.1888-0.0431-0.2513-0.02-0.5215-0.0326-0.7744-0.0153-0.4024 0.037-0.8015 0.062-1.203-0.0179-0.1118-0.0483-0.2222-0.0544-0.3352-4e-3 -0.0675 0.0111-0.1351 9e-3 -0.2027-0.01-0.26-0.0954-0.5138-0.0547-0.7763-0.0202-0.4962 0.016-0.9964-0.0575-1.49-9e-3 -0.3952-0.083-0.783-0.1529-1.171-0.0597-0.2931-0.0353-0.1399-0.0699-0.4601-0.0143-0.0789-0.0514-0.1531-0.0605-0.2328-0.01-0.0861 7e-3 -0.1733 4e-3 -0.2599-3e-3 -0.0779-0.0152-0.1551-0.0228-0.2326-2e-3 -0.0824-3e-3 -0.1648-5e-3 -0.2471-0.0327-0.1302-0.0814-0.3018-0.092-0.4358-0.0214-0.273 0.021-0.5551-0.0509-0.8252-7e-3 -0.0784-0.0136-0.1567-0.0205-0.2351-0.0162-0.069-0.0404-0.1366-0.0485-0.207-0.0333-0.2892 6e-3 -0.5898-0.0658-0.8769-7e-3 -0.0857-0.0139-0.1714-0.0208-0.2571 7e-3 -0.0762 0.0239-0.1522 0.0203-0.2286-4e-3 -0.078-0.0374-0.1524-0.0422-0.2304-0.0145-0.2385 0.0303-0.4857-0.0118-0.725 0.0106-0.3567 0.0246-0.7161-0.0273-1.07-2e-3 -0.0679 7e-4 -0.136-5e-3 -0.2036-7e-3 -0.0739-0.0337-0.146-0.0329-0.2202 6.3e-4 -0.0597 0.0334-0.1156 0.0371-0.1752 0.0107-0.1701-0.0496-0.3459-0.0319-0.5172 0.0352-0.2448 0.0143-0.4994-0.0383-0.7365-0.0683-0.3665-0.2302-0.7084-0.296-1.076-0.0828-0.363-0.1347-0.732-0.223-1.093-0.0656-0.1849-0.128-0.3718-0.2019-0.5536-0.0309-0.0762-0.0751-0.1473-0.0982-0.2262-0.0491-0.1677-0.0316-0.3508-0.1016-0.5143-0.0379-0.1581-0.0878-0.3132-0.124-0.4716-0.0455-0.1993-0.0404-0.4058-0.1123-0.5989-0.0797-0.3715-0.353-0.6901-0.4458-1.061-0.3038-0.863-0.4648-1.779-0.3387-2.694-0.08-1.058 1.97-1.213 2.05-0.155z"/><path d="m196.7 182c0.0286 0.3403 0.0674 0.689 0.0488 1.031-0.0117 0.2155-0.06 0.4277-0.0789 0.6428-0.0188 0.2142-0.014 0.4301-0.0341 0.6442-0.1712 1.823-0.0127-0.5245-0.1134 1.101-2e-3 0.1477 6e-3 0.2958-5e-3 0.4432-9e-3 0.1244-0.0438 0.2459-0.0554 0.37-0.0406 0.4335 0.0107 0.8815 0.0246 1.315 0.0985 0.8219-0.0116 1.631-0.1541 2.438-0.1454 0.2957-0.1829 0.6221-0.2686 0.9341-0.035 0.1277-0.0872 0.2501-0.1257 0.3768-0.0229 0.357-0.1099 0.7064-0.1528 1.061-0.0125 0.1029-3e-3 0.2085-0.0241 0.31-0.0207 0.1011-0.0662 0.1955-0.0993 0.2932-0.0771 0.4808-0.2849 0.9116-0.4616 1.359-0.0212 0.1018-0.1413 0.1714-0.156 0.2751-6e-3 0.0428 0.0173 0.086 0.0127 0.129-0.0134 0.124-0.0583 0.2427-0.0794 0.3656-0.0151 0.6171-0.1894 1.215-0.2307 1.828-0.0129 0.0678-0.0846 0.4261-0.0889 0.5098-3e-3 0.0668 0.0187 0.1333 0.0144 0.2-4e-3 0.0542-0.0319 0.1045-0.0377 0.1585-0.0109 0.1014 4e-3 0.204 6.6e-4 0.306 0.0113 0.1142-0.0382 0.2278-0.0292 0.3418 5e-3 0.0619 0.0395 0.1191 0.0433 0.1811 4e-3 0.0637-0.019 0.1264-0.021 0.1902-4e-3 0.138 9e-3 0.2761 0.01 0.4142 0.0304 0.2898-0.08 0.5693-0.0971 0.8537-0.0348 0.5767 0.0504-0.1359-0.0161 0.3667-0.1165 0.3025-0.016-0.0229-0.0363 0.2666-4e-3 0.0591-0.0314 0.1148-0.0377 0.1737-0.0191 0.1803 0.0161 0.3735 0.0134 0.5551 0.016 0.2737 0.0222 0.5473 0.0341 0.821 5e-3 0.1118 0.0282 0.2232 0.023 0.335-0.0688 0.4075-0.049 0.2085-0.0643 0.5967-0.0701 0.1339-0.0176 0.2832-0.0466 0.4216-0.0132 0.0633-0.0498 0.1195-0.0685 0.1813-0.0146 0.0483-0.0181 0.0994-0.0311 0.1481-0.0136 0.0512 4e-3 0.1576-0.0487 0.1512-0.4007-0.0493-0.7819-0.201-1.173-0.3016-0.0393-0.3554 0.6492-0.4315 0.6885-0.0761-0.3826-0.0407-0.7635-0.1024-1.148-0.1221-0.0238-1e-3 -0.0166 0.0487-0.0367 0.0614-0.0325 0.0205 3e-3 -0.0768 2e-3 -0.1152-4e-3 -0.14-0.0659-0.2753-0.0436-0.418 0.0162-0.3594 0.0149-0.1758 2e-3 -0.5507 4e-3 -0.0983 0.0312-0.1948 0.0335-0.2931 3e-3 -0.1065-0.022-0.2125-0.0191-0.319 3e-3 -0.1021 0.0239-0.2029 0.0358-0.3044 3.4e-4 -0.0923 6.8e-4 -0.1845 1e-3 -0.2768 5e-3 -0.0828 6e-3 -0.1661 0.0159-0.2485 9e-3 -0.0723 0.038-0.1417 0.0416-0.2145 3e-3 -0.061-0.0288-0.1213-0.0218-0.182 6e-3 -0.0499 0.05-0.0893 0.0587-0.1387 0.0104-0.0587-2e-3 -0.1191-2e-3 -0.1787 0.0106-0.053 0.0212-0.1059 0.0318-0.1589 0.021-0.1639-2e-3 -0.3062 4e-3 -0.4696 6e-3 -0.1949 0.0861-0.3859 0.0433-0.5833 4e-3 -0.2786 0.0673-0.552 0.0693-0.8297 3.6e-4 -0.0506-0.0156-0.1008-0.0129-0.1513 2e-3 -0.0429 0.0186-0.0838 0.028-0.1257-0.0143-0.3351 0.012 0.1625-0.0381-0.3116-0.036-0.3407 0.0106-0.6877 5e-3 -1.029 0.0506-0.3394 0.0872-0.6799 0.1298-1.02 0.0145-0.116 0.0159-0.2341 0.0397-0.3486 0.0227-0.1094 0.0753-0.2111 0.0993-0.3203 0.0216-0.0983 0.0245-0.1998 0.0368-0.2996 0.3712-0.8493-0.1099 0.2841 0.1659-0.4609 0.0237-0.0641 0.0667-0.1201 0.0894-0.1845 0.0517-0.1463 0.0545-0.3122 0.1477-0.4452 0.0237-0.0399 0.0566-0.0756 0.0711-0.1196 0.0109-0.033-5e-3 -0.0705 3e-3 -0.1043 0.0566-0.2371 0.0652 0.0451 0.108-0.2929 0.0948-0.7482-0.1425 0.3139 0.0582-0.5003 0.0895-0.6056-0.0145 0.023 0.1224-0.593 0.0829-0.3728 0.1037-0.7597 0.2429-1.12 0.1543-0.3823 0.2239-0.8006 0.2508-1.211 0.1335-0.7033 0.0509-1.433 0.1654-2.142-3e-3 -0.1143-0.0126-0.2285-9e-3 -0.3428 3e-3 -0.1083 0.0346-0.2155 0.0301-0.3238-5e-3 -0.1093-0.0461-0.2144-0.057-0.3233-0.0117-0.1169 4.1e-4 -0.2354-0.0107-0.3524-0.0782-0.8237-0.0719 0.0387-0.0495-0.8764-3e-3 -0.2748-0.0153-0.9606-3.4e-4 -1.219 0.0471-0.8127 0.2099-1.62 0.4442-2.398 0.1261-0.9258 1.92-0.6814 1.793 0.2443z"/><path d="m202.2 184.1c-0.0951 0.4639-0.2292 0.9306-0.4318 1.36-0.0773 0.1641-0.1826 0.3137-0.2647 0.4754-0.364 0.7168-0.0226 0.2074-0.4788 0.8164-0.423 0.4982-0.0986 0.0884-0.4239 0.5679-0.0995 0.1466-0.2245 0.2759-0.3148 0.4283-0.0327 0.0551-0.2066 0.4548-0.2269 0.5009-0.3149 0.636-0.5267 1.314-0.7648 1.981-0.0387 0.12-0.0775 0.2401-0.1162 0.3601-0.0503 0.126-0.1083 0.2493-0.151 0.3781-0.0419 0.1266-0.0569 0.2614-0.1024 0.3867-0.0474 0.1309-0.1292 0.2477-0.1752 0.3791-0.2888 0.8231 0.1287-0.0382-0.2657 0.7133-0.2486 0.5772-0.5071 1.154-0.8309 1.694-0.1389 0.3309-0.3339 0.6351-0.4811 0.9622-0.074 0.1644-0.1318 0.3356-0.1993 0.5027-0.0397 0.0798-0.0767 0.161-0.1191 0.2394-0.0433 0.0801-0.0993 0.1533-0.1379 0.2358-0.1191 0.2544-0.1614 0.538-0.2565 0.8002-0.0345 0.0953-0.0811 0.1857-0.1217 0.2785-0.0263 0.1021-0.0439 0.2068-0.079 0.3062-0.0332 0.094-0.0858 0.1801-0.1253 0.2717-0.2772 0.6426 0.0503-0.088-0.2102 0.5486-0.0618 0.151-0.1343 0.2976-0.1966 0.4484-0.126 0.2118-0.1825 0.4464-0.243 0.6816-0.0189 0.0736-0.0513 0.1441-0.0616 0.2194-0.0117 0.0856-3e-3 0.1727-4e-3 0.2591-6e-3 0.0237-0.1445 0.5448-0.1473 0.5603-0.0175 0.0966-0.0133 0.1964-0.0303 0.2931-0.0475 0.2705-0.1465 0.5388-0.2269 0.8009-0.0301 0.1439-0.1354 0.251-0.1909 0.3821-0.0273 0.0645-0.0377 0.1351-0.0615 0.201-0.0171 0.1188-0.1125 0.201-0.1526 0.3085-0.0245 0.0659-0.0323 0.1368-0.0484 0.2052-0.0966 0.4886 0.0299-0.063-0.1364 0.4155-0.0777 0.2236-0.0802 0.4138-0.2479 0.5994-0.0317 9e-3 -0.0634 0.0174-0.0951 0.0261-0.12 0.7249-1.524 0.4924-1.404-0.2325-0.0337-0.0302-0.0673-0.0604-0.101-0.0907 4.5e-4 -0.2561-0.0288-0.5245 0.0639-0.7718 0.0311-0.083 0.1003-0.1479 0.1334-0.2302 0.0319-0.0795 0.0397-0.1666 0.0595-0.2499 0.184-0.5712-0.0589 0.1291 0.1922-0.4292 0.0268-0.0595 0.0305-0.1276 0.0569-0.1873 0.02-0.0453 0.0632-0.0782 0.081-0.1244 0.0198-0.0514 0.0118-0.1103 0.0294-0.1625 0.0172-0.0507 0.0493-0.0951 0.0739-0.1427 0.1472-0.4966 0.1895-1.013 0.2925-1.519 0.1334-0.4814 0.296-0.9491 0.4666-1.418 0.024-0.064 0.1255-0.3302 0.1374-0.3842 0.0176-0.0793 4e-3 -0.1645 0.028-0.2421 0.0288-0.0934 0.0906-0.1734 0.1278-0.2638 0.0677-0.1644 0.1507-0.4481 0.2028-0.6177 0.2242-0.5688 0.4362-1.143 0.6975-1.695 0.1202-0.2475 0.2568-0.4919 0.3701-0.7422 0.1143-0.2525 0.1826-0.5277 0.3583-0.7504 0.1887-0.5117-0.0103-0.0191 0.2334-0.4955 0.1781-0.3482 0.2962-0.723 0.4648-1.075 0.0808-0.2285 0.1732-0.453 0.2482-0.6835 0.0388-0.1194 0.0636-0.243 0.1017-0.3626 0.2316-0.7264 0.0339-0.0373 0.2831-0.7509 0.0451-0.129 0.079-0.2617 0.1185-0.3926 0.1178-0.3954 0.2695-0.7312 0.426-1.11 0.0371-0.0898 0.2367-0.6383 0.2791-0.7245 0.0546-0.1108 0.1282-0.2112 0.1922-0.3168 0.2953-0.5558 0.6289-1.087 0.9541-1.625 0.1616-0.3963 0.3382-0.7962 0.5321-1.178 0.0788-0.1552 0.1752-0.3009 0.2565-0.4548 0.0727-0.1378 0.1253-0.2862 0.2052-0.42 0.0667-0.1116 0.1552-0.2086 0.2327-0.313 0.2934-0.8909 2.019-0.3224 1.726 0.5684z"/><path d="m186.5 187.7c0.0909 0.0929 0.1913 0.1774 0.2727 0.2786 0.2615 0.3252 0.3606 0.5525 0.5485 0.9316 0.2495 0.5031 0.4652 1.018 0.6822 1.535 0.0512 0.1388 0.1088 0.2754 0.1537 0.4164 0.0371 0.1164 0.0514 0.2395 0.0921 0.3546 0.1163 0.3292 0.3492 0.6428 0.5557 0.9194 0.3394 0.6085 0.6689 1.216 0.9617 1.849 0.411 0.6061 0.6917 1.275 0.9386 1.96 0.106 0.2984 0.2349 0.5948 0.3224 0.8996 0.0272 0.0947 0.0345 0.1945 0.0621 0.2891 0.1661 0.5709 0.0356-0.0871 0.1363 0.4944 0.0692 0.2941 0.133 0.5891 0.1912 0.8854 0.0121 0.0618 0.0118 0.1267 0.0326 0.1861 0.0207 0.0592 0.0603 0.1101 0.0904 0.1651 0.0473 0.6691-0.0507-0.3221 0.109 0.3242 0.0928 0.3756-0.1387-3e-3 0.0256 0.3707 0.1587 0.2336 0.0924 0.1101 0.1991 0.3703 3e-3 0.0703-4e-3 0.1419 0.01 0.211 0.0159 0.08 0.0591 0.1526 0.0784 0.232 0.0134 0.0552 0.0448 0.3484 0.0566 0.4128 0.0293 0.1595 0.0466 0.1886 0.1007 0.338 0.0673 0.3464 0.1467 0.6835 0.2483 1.023-4e-3 0.2027 0.0824 0.3831 0.0959 0.5795 0.0102 0.0449 0.0395 0.1495 0.0251 0.1953-0.0791 0.252-0.3314 0.4298-0.5165 0.5866 0.0762 0.1288-0.1733 0.2765-0.2495 0.1477-0.1502 0.0348-0.2972 0.0885-0.4505 0.1044-0.261 0.027-0.5415-0.1246-0.6902-0.327-0.0698-0.1414-0.1677-0.3062-0.2005-0.4617-0.035-0.166 0.0118-0.2829-0.1291-0.4221-0.0915-0.3332-0.1202-0.6867-0.2686-1.002-0.0257-0.1965-0.0841-0.386-0.1069-0.5822-7e-3 -0.0577 4e-3 -0.1171-8e-3 -0.1741-0.0233-0.1183-0.1126-0.2181-0.1106-0.3444-0.0696-0.1834-0.0968-0.3702-0.1629-0.5541-0.0217-0.0605-0.0595-0.1152-0.075-0.1775-0.2013-0.8083 0.18 0.4151-0.0788-0.3833-0.0688-0.257-0.0234-0.131-0.1379-0.3776-0.0198-0.0647-0.0174-0.1344-0.032-0.2004-0.047-0.2121-0.116-0.4216-0.1779-0.6296-0.0545-0.1614-0.1318-0.3147-0.1831-0.4771-0.024-0.0759-0.0251-0.1576-0.0468-0.2343-0.0689-0.2437-0.1579-0.4866-0.2525-0.7212-0.4287-0.9796 0.2094 0.4571-0.2804-0.5713-0.0457-0.0959-0.0765-0.1983-0.1212-0.2947-0.1486-0.3205-0.3532-0.6099-0.4898-0.9365-0.3254-0.5829-0.5905-1.195-0.9419-1.762-0.5112-0.8281 0.1906 0.3209-0.3092-0.5384-0.0571-0.0981-0.1313-0.1864-0.181-0.2884-0.0525-0.1078-0.0702-0.2306-0.1239-0.3378-0.1201-0.24-0.327-0.4311-0.407-0.6947-0.3788-0.9316-0.9378-1.794-1.193-2.773-0.41-0.9991 1.526-1.794 1.936-0.7944z"/><path d="m204.8 194.8c-0.4553 0.5922-1.007 1.102-1.612 1.539-0.6804 0.4406-0.3571 0.2159-0.9724 0.6708-0.3526 0.1741-0.6794 0.3936-1.019 0.5906-0.1367 0.0794-0.2936 0.1261-0.4185 0.223-0.059 0.0458-0.1018 0.1094-0.1527 0.1641-0.2792 0.3097-0.4839 0.6771-0.739 1.005-0.0433 0.0556-0.4595 0.5291-0.505 0.5811-0.2142 0.2963-0.4945 0.5244-0.7627 0.7665-0.079 0.0713-0.1464 0.1555-0.2296 0.2219-0.1279 0.1021-0.3103 0.19-0.4557 0.2662-0.3344 0.1803 0.0146-0.0346-0.2066 0.1724-0.0308 0.0289-0.0781 0.0367-0.1076 0.0669-0.0338 0.0345-0.0472 0.085-0.0777 0.1225-0.2933 0.3603 0.0421-0.1349-0.2464 0.315-0.1304 0.1953-0.2751 0.384-0.3999 0.5829-0.0444 0.0708-0.0727 0.1513-0.1207 0.2198-0.0915 0.1305-0.2078 0.2419-0.3059 0.3674-0.2146 0.1901-0.5371 0.5458-0.817 0.6143-5e-3 8e-3 -5e-3 0.0212-0.0139 0.0243-0.0148 5e-3 -0.0315-7e-3 -0.0468-3e-3 -0.0702 0.0151-0.0282 0.1126-0.0976 0.1161 0.0314-0.1228 0.0151-0.0353-2e-3 -0.267-0.0643 0.9252-1.857 0.8005-1.792-0.1246 9e-3 -0.3467-0.0159-0.1912 0.056-0.4692 0.0925-0.1355 0.2148-0.3383 0.3167-0.4594 0.1339-0.1592 0.314-0.2368 0.4752-0.3606 0.3464-0.1564 0.0322 0.1112 0.272-0.0932 0.0809-0.1849 0.2068-0.3154 0.3102-0.4862 0.0446-0.0737 0.0703-0.1578 0.1137-0.2322 0.0124-0.0213 0.3136-0.4676 0.3304-0.4926 0.2656-0.3821 0.0214-0.0683 0.353-0.3943 0.2252-0.2214 0.4179-0.4806 0.6778-0.6638 0.4022-0.2384 0.7627-0.552 1.008-0.9556 0.5036-0.6358-0.0793 0.084 0.4828-0.5577 0.3272-0.3736 0.6079-0.7861 0.9714-1.128 0.3222-0.2849 0.1818-0.1524 0.4809-0.4491 0.0734-0.0728 0.1391-0.1541 0.2197-0.2188 0.0868-0.0696 0.1913-0.1146 0.2799-0.182 0.215-0.1635 0.3926-0.3732 0.6207-0.5211 1.124-0.7274-0.2944 0.2182 0.8472-0.6388 0.1615-0.1212 0.3421-0.2151 0.5061-0.3328 0.419-0.3006 0.7939-0.673 1.279-0.8721 0.6574-0.7743 2.157 0.4992 1.5 1.274z"/></g><path d="m194.2 202.1c0.5289-0.0546 1.022 0.022 1.531 0.0984 0.3914 0.0587 0.842-0.0361 1.203 0.1805 0.4693 0.2816 1.042 0.5037 1.641 0.6234 0.8302 0.166 1.566 0.0896 2.351 0.443 0.2398 0.1079 0.5927 0.2067 0.8203 0.3773 0.1938 0.1454 0.3838 0.3614 0.6015 0.4594 0.4805 0.2162 0.9428 0.4752 1.258 0.8531 0.4475 0.537 0.8926 1.306 1.312 1.936 0.0592 0.0888 0.0757 0.2272 0.1094 0.3281 0.0325 0.0975 0.1334 0.1779 0.164 0.2789 0.0642 0.2117 0.1384 0.3815 0.2187 0.5742 0.0605 0.1453 0.1168 0.6876 0.1641 0.8859 0.0576 0.2421 0.213 0.4534 0.2734 0.689 0.0523 0.2038 0.0987 0.3945 0.164 0.5906 0.1092 0.3278 0.0931 0.7091 0.1641 1.05 0.042 0.2018 0.1193 0.3893 0.164 0.5906 0.0408 0.1838-0.0545 0.4107 0 0.5906 0.1428 0.4711 0.0145 0.9766 0.1094 1.46 0.1119 0.5707 0.0547 1.2 0.0547 1.788 0 1.258 0.0214 2.5-0.164 3.724-0.0432 0.2852-7e-3 0.5851-0.0547 0.8695-0.0672 0.4034 9e-3 0.8265-0.0547 1.23-0.0635 0.4001 0.0152 0.8318-0.0547 1.23-0.1486 0.847-0.0547 1.789-0.0547 2.658 0 0.5543 0.091 1.193 0 1.739-0.1678 1.007-0.2692 2.025-0.4375 3.035-0.1004 0.6026 0.0509 1.252-0.0547 1.854-0.0381 0.217-0.02 0.4376-0.0547 0.6562-0.0469 0.2955-0.1256 0.5862-0.1641 0.8859-0.0248 0.1931 0.0292 0.3982 0 0.5906-0.1268 0.8367-0.1465 1.689-0.2734 2.526-0.018 0.119 0.0189 0.2421 0 0.3609-0.0413 0.2604-0.1139 0.5152-0.1641 0.7711-0.047 0.2396-8e-3 0.4978-0.0547 0.7383-0.0981 0.5003-0.2356 0.9934-0.3281 1.493-0.066 0.3564-0.0806 0.7321-0.164 1.083-0.0918 0.3856-0.2543 0.7661-0.3281 1.165-0.1571 0.8485-0.5752 1.639-0.7109 2.494-0.0966 0.6089-0.2668 1.164-0.3828 1.755-0.0492 0.2508-0.0105 0.5191-0.0547 0.7711-0.1641 0.9353-0.3357 1.867-0.4922 2.805-0.0947 0.5681-0.4098 1.105-0.4922 1.673-0.0282 0.1944-0.0277 0.3961-0.0547 0.5906-0.087 0.6261-0.4758 1.168-0.6015 1.772-0.1462 0.702-0.3829 1.395-0.5468 2.084-0.1094 0.4596-0.399 0.8865-0.4922 1.362-0.0708 0.3613-0.1338 0.7261-0.2187 1.083-0.0208 0.0873-0.0886 0.1588-0.1094 0.2461-0.0798 0.3352-0.1328 0.689-0.2734 0.9844-0.0259 0.0543 0.0149 0.1551 0 0.2133-0.052 0.2027-0.1294 0.383-0.164 0.5906-0.0177 0.1064 0.0177 0.2217 0 0.3281-0.0277 0.1662-0.124 0.3194-0.164 0.4758-0.057 0.2225-0.1074 0.4515-0.164 0.6726-0.029 0.1129 0.0253 0.247 0 0.3609-0.0605 0.2724-0.1674 0.5266-0.2187 0.8039-0.0703 0.3799-0.0256 0.7879-0.1094 1.165-0.0631 0.284-0.153 0.544-0.2187 0.8203-0.0331 0.139 0.0235 0.3019 0 0.443-0.0268 0.1611-0.0796 0.315-0.1094 0.4758-0.0254 0.1373 0.0269 0.2895 0 0.4266-0.0693 0.3534-0.2008 0.6848-0.2734 1.034-0.0571 0.2743-0.044 0.562-0.1094 0.8367-0.0301 0.1263-0.1372 0.2319-0.164 0.3609-0.0341 0.1634-0.0162 0.347-0.0547 0.5086-0.0799 0.3357-0.2996 0.6086-0.4375 0.9187-0.0945 0.2126-0.1508 0.4765-0.2734 0.6726-0.0728 0.1165-0.1802 0.2222-0.2187 0.3609-0.0455 0.1637-0.0704 0.3845-0.164 0.525-0.0742 0.1113-0.1888 0.205-0.2734 0.3445-0.202 0.3334-0.3789 0.6656-0.5468 0.9679-0.1075 0.1935-1.199 0.9345-1.422 0.968-0.1735 0.026-0.3718 0-0.5468 0-0.2052 0-0.4557 0.0401-0.6562 0-0.5953-0.1191-1.103-0.6464-1.586-0.9844-0.12-0.084-0.2305-0.3028-0.3281-0.4102-0.236-0.2596-0.2539-0.707-0.4375-1.001-0.2616-0.4186-0.4074-0.9113-0.4922-1.394-0.0657-0.3744-0.2659-0.7096-0.3281-1.083-0.0322-0.1934-0.131-0.3418-0.2187-0.5086-0.1162-0.2208-0.0104-0.0724-0.0547-0.3117-0.0413-0.2231-0.2246-0.4202-0.2734-0.6398-0.0812-0.3652-0.1536-0.7281-0.2187-1.099-0.0334-0.1901-0.1797-0.354-0.2187-0.5414-0.0782-0.3752-0.2525-0.7098-0.3281-1.05-0.0622-0.2799-0.0571-0.5706-0.1094-0.8531-0.1227-0.6627-0.2257-1.326-0.3281-2.002-0.0476-0.3141-0.2216-0.6076-0.2734-0.9187-0.1027-0.6165-0.2749-1.218-0.4922-1.805-0.0992-0.2678-0.188-0.5516-0.3281-0.8039-0.2335-0.4203-0.523-0.8338-0.6015-1.329-0.1735-1.093-0.355-2.17-0.4922-3.281-0.0282-0.2282-0.1359-0.4444-0.164-0.6726-0.1037-0.8399-0.3467-1.666-0.4375-2.51-0.0371-0.3454-0.1591-0.6643-0.2734-0.9844-0.1011-0.2832-0.1844-0.9047-0.2187-1.214-0.1107-0.996-0.2456-1.965-0.3828-2.953-0.0253-0.1823 0.0264-0.3756 0-0.5578-0.0447-0.3086-0.0979-0.6212-0.164-0.9187-0.076-0.3421-6e-3 -0.7494-0.0547-1.099-0.0329-0.2372-0.1266-0.4695-0.164-0.7054-0.0525-0.3309 0.01-0.688-0.0547-1.017-0.1564-0.7974-0.2531-1.654-0.4375-2.428-0.0307-0.1292 0.0242-0.2795 0-0.4101-0.0312-0.1683-0.1231-0.3324-0.164-0.4922-0.0493-0.1921-0.075-0.4108-0.1094-0.607-0.0967-0.5511-0.3533-1.085-0.4375-1.641-0.08-0.5281-0.1604-1.032-0.2187-1.575-0.0712-0.6623-0.2954-1.314-0.3828-1.969-0.058-0.4354 0.0519-0.8926 0-1.329-0.0321-0.2697-0.0671-0.5377-0.1094-0.8039-0.1051-0.6624 0.0416-1.37-0.0547-2.034-0.0496-0.3426-0.2588-0.6516-0.3281-0.9844-0.119-0.5711-0.334-1.089-0.6015-1.624-0.3152-0.6304-0.3244-1.396-0.4922-2.051-0.042-0.1636 0.0292-0.3583 0-0.525-0.0691-0.3941-0.1419-0.7895-0.2187-1.181-0.0734-0.3741 0-0.8497 0-1.23v-2.969-1.772c0-0.281 0.0462-0.6084 0-0.8859-0.113-0.6782-0.164-1.332-0.164-2.034 0-0.182-0.0371-0.4126 0-0.5906 0.0739-0.3546 0.1552-0.7043 0.2187-1.066 0.0312-0.1776 0.0102-0.3516 0.0547-0.525 0.0747-0.2915 0.306-0.5206 0.3828-0.8203 0.0643-0.2508 0.0851-0.5177 0.1641-0.7547 0.1294-0.3882 0.6256-0.9472 0.7109-1.28 0.0687-0.2679 0.1274-0.5081 0.2187-0.7547 0.019-0.0513-0.0173-0.1122 0-0.1641 0.0128-0.0383 0.0966-0.1258 0.1094-0.1641 0.0586-0.1759 0.0511-0.6476 0.1094-0.7875 0.0969-0.2326 0.0849-0.5008 0.1641-0.7383 0.0737-0.2212 0.193-0.4228 0.2734-0.6398 0.0966-0.2609 0.5646-0.5537 0.7656-0.7547 0.0704-0.0704 0.0666-0.1856 0.1094-0.2625 0.0878-0.1581 0.316-0.2188 0.4375-0.3281 0.4719-0.4247 1.212-0.4849 1.805-0.7218 0.3609-0.1444 0.8979-0.4895 1.258-0.7054 0.0839-0.0504 0.0901-0.1308 0.164-0.1641 0.6569-0.2956 1.396-0.0782 2.078-0.1805 0.4303-0.0645 0.8684-0.1428 1.312-0.0984 0.3958 0.0396 0.9375 0.0352 1.312 0.1476 0.1453 0.0436 0.3306 0.1648 0.4922 0.2133 0.432 0.1296 0.9973 0.0791 1.422 0.0328z" fill="#cb8f3f"/></g></g></g></svg>
