<?xml version="1.0" encoding="UTF-8"?>
<!-- Created with Inkscape (http://www.inkscape.org/) -->
<svg width="28.11mm" height="38.48mm" version="1.1" viewBox="0 0 28.11 38.48" xmlns="http://www.w3.org/2000/svg" xmlns:cc="http://creativecommons.org/ns#" xmlns:dc="http://purl.org/dc/elements/1.1/" xmlns:rdf="http://www.w3.org/1999/02/22-rdf-syntax-ns#">
 <metadata>
  <rdf:RDF>
   <cc:Work rdf:about="">
    <dc:format>image/svg+xml</dc:format>
    <dc:type rdf:resource="http://purl.org/dc/dcmitype/StillImage"/>
    <dc:title/>
   </cc:Work>
  </rdf:RDF>
 </metadata>
 <g transform="translate(182.5 -90.97)">
  <g transform="rotate(-30 -96.78 567.5)" fill="none" stroke="#424540" stroke-width="1.3">
   <path d="m71.57 128.2c-1.111 6e-3 -5.522 0.3103-4.967 4.781 1.539 12.39 3.853 23.67 4.556 24.75 0.5099 0.7429 1.041 0.4136 1.321 0 0.7031-1.077 3.017-12.36 4.556-24.75 0.6345-5.109-5.217-4.777-5.217-4.777s-0.0913-5e-3 -0.2501-4e-3z"/>
   <g stroke-linecap="round">
    <path transform="scale(-1,1)" d="m-66.86 135a4.878 1.096 0 0 1-4.346 1.089"/>
    <path transform="scale(-1,1)" d="m-67.67 140.5a3.93 0.763 0 0 1-3.502 0.7585"/>
    <path transform="scale(-1,1)" d="m-68.54 145.9a3.118 0.5787 0 0 1-2.778 0.5752"/>
   </g>
   <g stroke-linecap="round">
    <path d="m71.57 128.2c0-9.621-4.097-15.39-4.097-15.39"/>
    <path d="m69.04 115.9-2.622 0.0472"/>
    <path d="m70.43 120.6-4.441-0.6142"/>
    <path d="m71.23 124.8-2.457-0.8032"/>
   </g>
  </g>
 </g>
</svg>
