<?xml version="1.0" encoding="UTF-8"?>
<svg width="3.495mm" height="3.486mm" version="1.1" viewBox="0 0 3.494941 3.4858899" xmlns="http://www.w3.org/2000/svg"><path d="m3.494 0.6591c-0.1285 0.05706-0.2665 0.09558-0.4117 0.1129 0.1481-0.0887 0.2616-0.2292 0.3152-0.3965-0.1384 0.08215-0.2918 0.1418-0.4553 0.1739-0.1307-0.1393-0.317-0.2263-0.5232-0.2263-0.3957 0-0.7167 0.3208-0.7167 0.7168 0 0.05611 0.00629 0.1108 0.01847 0.1634-0.5957-0.02991-1.124-0.3153-1.477-0.7489-0.06173 0.1059-0.09707 0.229-0.09707 0.3604 0 0.2486 0.1266 0.468 0.3189 0.5965-0.1175-0.00345-0.228-0.03594-0.3247-0.08962v0.00905c0 0.3473 0.247 0.6369 0.575 0.7028-0.06024 0.01655-0.1235 0.02517-0.1889 0.02517-0.04624 0-0.0911-0.00431-0.1349-0.01258 0.09122 0.2847 0.3559 0.4919 0.6695 0.4977-0.2453 0.1923-0.5544 0.3069-0.8902 0.3069-0.05783 0-0.115-0.00345-0.1711-0.01017 0.3173 0.2034 0.694 0.3222 1.099 0.3222 1.318 0 2.039-1.092 2.039-2.039 0-0.03112-6.842e-4 -0.06198-0.00215-0.09271 0.1404-0.1015 0.2621-0.2278 0.3581-0.3715z" fill="#96d571"/></svg>
